<?xml version="1.0" encoding="utf-8"?>
<!-- Generated by IcoMoon.io -->
<!DOCTYPE svg PUBLIC "-//W3C//DTD SVG 1.1//EN" "http://www.w3.org/Graphics/SVG/1.1/DTD/svg11.dtd">
<svg version="1.1" xmlns="http://www.w3.org/2000/svg" xmlns:xlink="http://www.w3.org/1999/xlink" width="32" height="32" viewBox="0 0 32 32">
<g>
</g>
	<path d="M32 21.656q0 0.813-0.406 1.438t-1.281 0.875-2.25-0.469q-0.219-0.25-0.641-0.656t-1.578-1.375-2.219-1.594q-1-0.563-2.281-1.188 0.656-1.281 0.656-2.688 0-2.563-1.844-4.313 1-0.781 1.938-1.344 1.156-0.656 2.656-1.125t2.406-0.594l0.906-0.156q1.375-0.688 2.25-0.422t1.281 0.891 0.406 1.438q-0.219 0.313-0.547 0.875t-0.891 2.078-0.563 2.797q0 1.25 0.5 2.625t1 2.156zM16 20q-1.656 0-2.828-1.172t-1.172-2.828 1.172-2.828 2.828-1.172 2.828 1.172 1.172 2.828-1.172 2.828-2.828 1.172zM10.656 18.688q-1.281 0.625-2.281 1.188-1.063 0.625-2.172 1.531t-1.672 1.5l-0.594 0.594q-1.375 0.719-2.25 0.469t-1.281-0.875-0.406-1.438q0.219-0.313 0.547-0.844t0.891-2 0.563-2.688q0-1.281-0.5-2.719t-1-2.219l-0.5-0.813q0-0.813 0.406-1.438t1.281-0.891 2.25 0.422q0.375 0.063 1 0.156t2.219 0.578 2.75 1.141q0.938 0.531 1.938 1.313-1.844 1.781-1.844 4.344 0 1.406 0.656 2.688z" fill="#000000" />
</svg>
