<?xml version="1.0" encoding="iso-8859-1"?>
<!-- Generator: Adobe Illustrator 16.0.0, SVG Export Plug-In . SVG Version: 6.00 Build 0)  -->
<!DOCTYPE svg PUBLIC "-//W3C//DTD SVG 1.1//EN" "http://www.w3.org/Graphics/SVG/1.1/DTD/svg11.dtd">
<svg version="1.1" id="Layer_1" xmlns="http://www.w3.org/2000/svg" xmlns:xlink="http://www.w3.org/1999/xlink" x="0px" y="0px"
	 width="58.426px" height="81.336px" viewBox="0 0 58.426 81.336" style="enable-background:new 0 0 58.426 81.336;"
	 xml:space="preserve">
<g>
	<g>
		<path style="fill-rule:evenodd;clip-rule:evenodd;fill:#FAFAFA;" d="M58.111,75.623c0,2.969-2.43,5.398-5.399,5.398H5.713
			c-2.969,0-5.398-2.43-5.398-5.398V5.713c0-2.969,2.43-5.398,5.398-5.398h46.998c2.97,0,5.399,2.43,5.399,5.398V75.623z"/>
		<path style="fill:none;stroke:#CCCCCC;stroke-width:0.6299;stroke-miterlimit:3.8637;" d="M58.111,75.623
			c0,2.969-2.43,5.398-5.399,5.398H5.713c-2.969,0-5.398-2.43-5.398-5.398V5.713c0-2.969,2.43-5.398,5.398-5.398h46.998
			c2.97,0,5.399,2.43,5.399,5.398V75.623z"/>
	</g>
	<g>
		<path style="fill:#171717;" d="M10.379,19.146v1.689c0,1.301,0.572,1.768,1.482,1.768s1.482-0.467,1.482-1.768v-4.004
			c0-1.301-0.572-1.795-1.482-1.795s-1.482,0.494-1.482,1.795v0.545H7.676L8.196,6.82h7.54v2.602H10.77l-0.234,4.342
			c0.52-0.857,1.352-1.326,2.496-1.326c2.106,0,3.172,1.482,3.172,4.16v4.057c0,2.912-1.455,4.576-4.264,4.576
			s-4.264-1.664-4.264-4.576v-1.508H10.379z"/>
	</g>
	<g>
		<path style="fill:#171717;" d="M14.365,32.936c-0.283,0-0.551,0.055-0.809,0.135c0.35-0.461,0.568-1.027,0.568-1.65
			c0-1.506-1.223-2.73-2.732-2.73c-1.508,0-2.729,1.225-2.729,2.73c0,0.623,0.215,1.189,0.564,1.648
			c-0.256-0.078-0.523-0.133-0.807-0.133c-1.506,0-2.73,1.223-2.73,2.729c0,1.508,1.225,2.732,2.73,2.732
			c0.779,0,1.473-0.332,1.969-0.852c-0.121,0.992-0.396,2.75-0.85,3.092h3.705c-0.455-0.342-0.729-2.1-0.852-3.092
			c0.498,0.52,1.193,0.852,1.971,0.852c1.506,0,2.73-1.225,2.73-2.732C17.095,34.158,15.871,32.936,14.365,32.936z"/>
		<path style="fill:#171717;" d="M44.023,55.707c-0.709,0-1.377,0.141-2.021,0.34c0.875-1.15,1.416-2.568,1.416-4.123
			c0-3.768-3.053-6.826-6.824-6.826c-3.77,0-6.824,3.059-6.824,6.826c0,1.555,0.539,2.973,1.414,4.121
			c-0.643-0.197-1.309-0.338-2.018-0.338c-3.768,0-6.824,3.059-6.824,6.824c0,3.773,3.057,6.83,6.824,6.83
			c1.945,0,3.684-0.826,4.924-2.127c-0.303,2.482-0.992,6.875-2.127,7.73h9.262c-1.133-0.855-1.818-5.248-2.125-7.73
			c1.244,1.301,2.982,2.127,4.924,2.127c3.766,0,6.826-3.057,6.826-6.83C50.849,58.766,47.789,55.707,44.023,55.707z"/>
	</g>
</g>
</svg>
