<?xml version="1.0" encoding="iso-8859-1"?>
<!-- Generator: Adobe Illustrator 16.0.0, SVG Export Plug-In . SVG Version: 6.00 Build 0)  -->
<!DOCTYPE svg PUBLIC "-//W3C//DTD SVG 1.1//EN" "http://www.w3.org/Graphics/SVG/1.1/DTD/svg11.dtd">
<svg version="1.1" id="Layer_1" xmlns="http://www.w3.org/2000/svg" xmlns:xlink="http://www.w3.org/1999/xlink" x="0px" y="0px"
	 width="58.426px" height="81.336px" viewBox="0 0 58.426 81.336" style="enable-background:new 0 0 58.426 81.336;"
	 xml:space="preserve">
<g>
	<g>
		<path style="fill-rule:evenodd;clip-rule:evenodd;fill:#FAFAFA;" d="M58.111,75.623c0,2.969-2.43,5.398-5.398,5.398H5.715
			c-2.97,0-5.399-2.43-5.399-5.398V5.713c0-2.969,2.43-5.398,5.399-5.398h46.998c2.969,0,5.398,2.43,5.398,5.398V75.623z"/>
		<path style="fill:none;stroke:#CCCCCC;stroke-width:0.6299;stroke-miterlimit:3.8637;" d="M58.111,75.623
			c0,2.969-2.43,5.398-5.398,5.398H5.715c-2.97,0-5.399-2.43-5.399-5.398V5.713c0-2.969,2.43-5.398,5.399-5.398h46.998
			c2.969,0,5.398,2.43,5.398,5.398V75.623z"/>
	</g>
	<g>
		<path style="fill:#171717;" d="M7.016,11.189c0-2.912,1.534-4.576,4.343-4.576c2.808,0,4.342,1.664,4.342,4.576v9.465
			c0,1.014-0.182,1.871-0.546,2.547c0.13,0.338,0.338,0.391,0.807,0.391h0.26v2.549H15.83c-1.273,0-2.08-0.469-2.47-1.248
			c-0.572,0.207-1.248,0.338-2.002,0.338c-2.809,0-4.343-1.664-4.343-4.576V11.189z M9.876,20.836c0,1.301,0.572,1.793,1.482,1.793
			c0.909,0,1.481-0.492,1.481-1.793v-9.828c0-1.301-0.572-1.795-1.481-1.795c-0.91,0-1.482,0.494-1.482,1.795V20.836z"/>
	</g>
	<g>
		<path style="fill:#B32825;stroke:#000000;stroke-width:0.5616;stroke-miterlimit:10;" d="M27.797,27.104
			c0,0,3.912-3.115,10.412-1.557c0,0,7.043,1.229,7.345,10.24c0,0-0.784-2.412-3.102-1.701c-2.317,0.713-9.715-3.246-10.514-3.291
			C31.14,30.754,27.797,27.104,27.797,27.104z"/>
		<path style="fill:#B32825;stroke:#000000;stroke-width:0.5499;stroke-miterlimit:10;" d="M38.717,23.264"/>
		<g>
			<path style="fill:#B32825;stroke:#000000;stroke-width:0.5779;stroke-miterlimit:10;" d="M24.537,30.256
				c1.973,14.713-3.65,23.199-7.641,27.762l10.841-3.434l6.805-15.5l-3.142-4.18L24.537,30.256z"/>
			<g>
				<defs>
					<polygon id="XMLID_102_" points="27.93,49.688 10.164,63.098 6.5,75.494 9.923,75.494 52.202,75.494 52.202,56.77 
						49.37,47.549 37.219,43.746 					"/>
				</defs>
				<use xlink:href="#XMLID_102_"  style="overflow:visible;"/>
				<clipPath id="XMLID_2_">
					<use xlink:href="#XMLID_102_"  style="overflow:visible;"/>
				</clipPath>
				<path style="clip-path:url(#XMLID_2_);fill:#FFFFFF;stroke:#000000;stroke-width:0.718;stroke-miterlimit:10;" d="
					M21.905,47.279c0,0.002,1.06,6.971,9.646,5.779c8.588-1.189,12.257-7.846,11.614-11.303c-0.643-3.459-7.682-4.264-7.682-4.264
					L21.905,47.279z"/>
				<g style="clip-path:url(#XMLID_2_);">
					<g>
						
							<line style="fill:#B32825;stroke:#000000;stroke-width:0.5779;stroke-miterlimit:10;" x1="38.855" y1="40.578" x2="40.38" y2="46.23"/>
					</g>
				</g>
				<g style="clip-path:url(#XMLID_2_);">
					<defs>
						<polygon id="XMLID_105_" points="12.325,77.674 50.936,48.941 55.595,56.584 22.623,81.666 						"/>
					</defs>
					<use xlink:href="#XMLID_105_"  style="overflow:visible;fill:#F7CC10;"/>
					<clipPath id="XMLID_3_">
						<use xlink:href="#XMLID_105_"  style="overflow:visible;"/>
					</clipPath>
					<g style="clip-path:url(#XMLID_3_);">
						<defs>
							<polygon id="XMLID_106_" points="18.718,82.58 57.445,53.002 54.209,48.76 8.348,82.758 							"/>
						</defs>
						<use xlink:href="#XMLID_106_"  style="overflow:visible;fill:#B32825;"/>
						<clipPath id="XMLID_4_">
							<use xlink:href="#XMLID_106_"  style="overflow:visible;"/>
						</clipPath>
						
							<ellipse transform="matrix(0.7971 -0.6039 0.6039 0.7971 -40.5111 29.5253)" style="clip-path:url(#XMLID_4_);fill:#FFFFFF;stroke:#000000;stroke-width:0.4088;stroke-miterlimit:10;" cx="23.674" cy="75.038" rx="1.499" ry="1.471"/>
						<path style="clip-path:url(#XMLID_4_);fill:#FFFFFF;stroke:#000000;stroke-width:0.4088;stroke-miterlimit:10;" d="
							M24.172,73.396c0.07-0.809,0.796-1.408,1.621-1.338c0.825,0.068,1.438,0.787,1.369,1.594c-0.069,0.813-0.797,1.412-1.622,1.34
							C24.717,74.922,24.104,74.207,24.172,73.396z"/>
						<path style="clip-path:url(#XMLID_4_);fill:#FFFFFF;stroke:#000000;stroke-width:0.4088;stroke-miterlimit:10;" d="
							M28.818,71.139c0.49,0.645,0.354,1.576-0.305,2.078c-0.66,0.498-1.596,0.377-2.085-0.266c-0.492-0.65-0.356-1.582,0.306-2.082
							C27.393,70.369,28.327,70.49,28.818,71.139z"/>
						<path style="clip-path:url(#XMLID_4_);fill:#FFFFFF;stroke:#000000;stroke-width:0.4088;stroke-miterlimit:10;" d="
							M28.121,70.4c0.068-0.805,0.795-1.408,1.621-1.338c0.824,0.068,1.438,0.787,1.369,1.594c-0.07,0.813-0.796,1.412-1.623,1.34
							C28.665,71.926,28.052,71.213,28.121,70.4z"/>
						<path style="clip-path:url(#XMLID_4_);fill:#FFFFFF;stroke:#000000;stroke-width:0.4088;stroke-miterlimit:10;" d="
							M32.776,68.135c0.487,0.645,0.353,1.58-0.307,2.08c-0.659,0.502-1.595,0.379-2.085-0.266
							c-0.491-0.648-0.355-1.582,0.307-2.084C31.35,67.367,32.284,67.488,32.776,68.135z"/>
						<path style="clip-path:url(#XMLID_4_);fill:#FFFFFF;stroke:#000000;stroke-width:0.4088;stroke-miterlimit:10;" d="
							M32.078,67.398c0.068-0.807,0.795-1.404,1.621-1.336c0.824,0.07,1.438,0.787,1.368,1.594c-0.069,0.811-0.795,1.41-1.62,1.338
							C32.622,68.926,32.01,68.209,32.078,67.398z"/>
						<path style="clip-path:url(#XMLID_4_);fill:#FFFFFF;stroke:#000000;stroke-width:0.4088;stroke-miterlimit:10;" d="
							M36.725,65.141c0.489,0.646,0.354,1.578-0.305,2.078c-0.661,0.502-1.596,0.381-2.086-0.264
							c-0.491-0.65-0.355-1.58,0.305-2.082C35.299,64.373,36.232,64.492,36.725,65.141z"/>
						
							<ellipse transform="matrix(-0.9964 -0.0846 0.0846 -0.9964 69.4495 132.0106)" style="clip-path:url(#XMLID_4_);fill:#FFFFFF;stroke:#000000;stroke-width:0.4088;stroke-miterlimit:10;" cx="37.523" cy="64.533" rx="1.5" ry="1.472"/>
						
							<ellipse transform="matrix(0.7967 -0.6043 0.6043 0.7967 -30.109 36.6519)" style="clip-path:url(#XMLID_4_);fill:#FFFFFF;stroke:#000000;stroke-width:0.4088;stroke-miterlimit:10;" cx="39.432" cy="63.086" rx="1.5" ry="1.473"/>
						<path style="clip-path:url(#XMLID_4_);fill:#FFFFFF;stroke:#000000;stroke-width:0.4088;stroke-miterlimit:10;" d="
							M39.931,61.447c0.069-0.809,0.794-1.41,1.619-1.34s1.438,0.787,1.37,1.594c-0.069,0.811-0.796,1.412-1.621,1.342
							C40.475,62.969,39.861,62.256,39.931,61.447z"/>
						<path style="clip-path:url(#XMLID_4_);fill:#FFFFFF;stroke:#000000;stroke-width:0.4088;stroke-miterlimit:10;" d="
							M44.576,59.188c0.49,0.645,0.354,1.576-0.306,2.076c-0.659,0.502-1.594,0.381-2.085-0.266
							c-0.492-0.648-0.355-1.582,0.307-2.08C43.151,58.418,44.085,58.537,44.576,59.188z"/>
						<path style="clip-path:url(#XMLID_4_);fill:#FFFFFF;stroke:#000000;stroke-width:0.4088;stroke-miterlimit:10;" d="
							M43.879,58.449c0.07-0.807,0.796-1.408,1.619-1.338c0.826,0.072,1.439,0.787,1.371,1.594
							c-0.069,0.811-0.795,1.414-1.621,1.342C44.424,59.977,43.811,59.262,43.879,58.449z"/>
						<path style="clip-path:url(#XMLID_4_);fill:#FFFFFF;stroke:#000000;stroke-width:0.4088;stroke-miterlimit:10;" d="
							M48.533,56.186c0.489,0.645,0.354,1.578-0.305,2.078c-0.661,0.5-1.596,0.377-2.086-0.266c-0.49-0.648-0.354-1.58,0.305-2.082
							C47.107,55.416,48.041,55.537,48.533,56.186z"/>
						<path style="clip-path:url(#XMLID_4_);fill:#FFFFFF;stroke:#000000;stroke-width:0.4088;stroke-miterlimit:10;" d="
							M47.836,55.449c0.068-0.807,0.795-1.41,1.619-1.338c0.826,0.07,1.438,0.787,1.369,1.594c-0.067,0.813-0.794,1.41-1.619,1.34
							C48.381,56.977,47.767,56.262,47.836,55.449z"/>
						<path style="clip-path:url(#XMLID_4_);fill:#FFFFFF;stroke:#000000;stroke-width:0.4088;stroke-miterlimit:10;" d="
							M52.482,53.189c0.488,0.648,0.354,1.578-0.307,2.078c-0.66,0.502-1.595,0.381-2.083-0.264
							c-0.492-0.65-0.356-1.582,0.304-2.084C51.056,52.422,51.99,52.543,52.482,53.189z"/>
						<path style="clip-path:url(#XMLID_4_);fill:#FFFFFF;stroke:#000000;stroke-width:0.4088;stroke-miterlimit:10;" d="
							M51.785,52.453c0.069-0.807,0.795-1.406,1.619-1.338c0.826,0.072,1.438,0.789,1.369,1.594
							c-0.068,0.811-0.795,1.412-1.62,1.342C52.329,53.98,51.717,53.264,51.785,52.453z"/>
						
							<use xlink:href="#XMLID_106_"  style="overflow:visible;fill:none;stroke:#000000;stroke-width:0.5779;stroke-miterlimit:10;"/>
					</g>
					
						<use xlink:href="#XMLID_105_"  style="overflow:visible;fill:none;stroke:#020202;stroke-width:0.5499;stroke-miterlimit:10;"/>
				</g>
				<path style="clip-path:url(#XMLID_2_);fill:#B32825;stroke:#000000;stroke-width:0.5616;stroke-miterlimit:10;" d="
					M23.896,47.26c0,0,1.054,4.965,8.071,3.912c7.016-1.053,10.79-7.553,10.17-10.016c-0.619-2.459-7.357-1.215-7.357-1.215
					L23.896,47.26z"/>
				<g style="clip-path:url(#XMLID_2_);">
					<defs>
						<polygon id="XMLID_104_" points="17.503,52.596 13.34,78.963 18.363,78.963 22.966,50.518 						"/>
					</defs>
					<use xlink:href="#XMLID_104_"  style="overflow:visible;fill:#FFFFFF;"/>
					<clipPath id="XMLID_5_">
						<use xlink:href="#XMLID_104_"  style="overflow:visible;"/>
					</clipPath>
					<polygon style="clip-path:url(#XMLID_5_);fill:#B32825;stroke:#000000;stroke-width:0.5779;stroke-miterlimit:10;" points="
						19.551,51.166 15.313,77.492 21.179,77.492 25.512,48.998 					"/>
					<polygon style="clip-path:url(#XMLID_5_);fill:#FFFFFF;stroke:#000000;stroke-width:0.5499;stroke-miterlimit:10;" points="
						21.184,51.166 16.941,77.492 22.812,77.492 27.144,48.998 					"/>
					
						<use xlink:href="#XMLID_104_"  style="overflow:visible;fill:none;stroke:#000000;stroke-width:0.5499;stroke-miterlimit:10;"/>
				</g>
				<g style="clip-path:url(#XMLID_2_);">
					<defs>
						<polygon id="XMLID_103_" points="54.484,61.068 33.332,77.354 36.98,80.807 59.881,63.314 						"/>
					</defs>
					<use xlink:href="#XMLID_103_"  style="overflow:visible;fill:#FFFFFF;"/>
					<clipPath id="XMLID_6_">
						<use xlink:href="#XMLID_103_"  style="overflow:visible;"/>
					</clipPath>
					<polygon style="clip-path:url(#XMLID_6_);fill:#B32825;stroke:#000000;stroke-width:0.5779;stroke-miterlimit:10;" points="
						56.955,61.439 35.776,77.641 40.035,81.672 62.774,63.963 					"/>
					<polygon style="clip-path:url(#XMLID_6_);fill:#FFFFFF;stroke:#000000;stroke-width:0.5499;stroke-miterlimit:10;" points="
						58.14,62.561 36.96,78.764 41.222,82.799 63.959,65.084 					"/>
					
						<use xlink:href="#XMLID_103_"  style="overflow:visible;fill:none;stroke:#000000;stroke-width:0.5499;stroke-miterlimit:10;"/>
				</g>
				<use xlink:href="#XMLID_102_"  style="overflow:visible;fill:none;stroke:#000000;stroke-width:0.5616;stroke-miterlimit:10;"/>
			</g>
			<path style="fill:#FFFFFF;stroke:#000000;stroke-width:0.5843;stroke-miterlimit:10;" d="M9.773,48.979
				c0,0,1.525,0.148-0.52,6.559c-2.043,6.41,0,8.441,0,8.441l1.071,0.826c0,0-1.906-2.098-0.005-8.453
				c2.285-7.637-0.057-7.877-0.178-8.301"/>
			<g>
				<defs>
					<path id="XMLID_101_" d="M25.162,32.207c0,0,1.213,3.121,1.213,3.781l-2.504,7.475h1.463v6.18c0,0,10.91,2.559,14.139-5.791
						v-12.91C39.473,30.941,27.816,30.033,25.162,32.207z"/>
				</defs>
				<use xlink:href="#XMLID_101_"  style="overflow:visible;fill:#FFFFFF;"/>
				<clipPath id="XMLID_7_">
					<use xlink:href="#XMLID_101_"  style="overflow:visible;"/>
				</clipPath>
				<path style="clip-path:url(#XMLID_7_);fill:#F7CC10;stroke:#020202;stroke-width:0.4366;stroke-miterlimit:10;" d="
					M29.924,50.428c0,0,3.508-1.236,3.246-6.104c-0.262-4.863,5.988,0.387,5.988,0.387l-3.035,5.717l-5.461,0.975L29.924,50.428z"/>
				<use xlink:href="#XMLID_101_"  style="overflow:visible;fill:none;stroke:#000000;stroke-width:0.5499;stroke-miterlimit:10;"/>
			</g>
			<g>
				<defs>
					<path id="XMLID_100_" d="M44.498,32.967c0,0-1.626,0.324,2.018,3.752l4.277,13.822l-10.212-5.938l-11.672-5.268l-1.729-10.91
						l11.607,2.576L44.498,32.967z"/>
				</defs>
				<use xlink:href="#XMLID_100_"  style="overflow:visible;fill:#B32825;"/>
				<clipPath id="XMLID_8_">
					<use xlink:href="#XMLID_100_"  style="overflow:visible;"/>
				</clipPath>
				<path style="clip-path:url(#XMLID_8_);fill:#B32825;stroke:#000000;stroke-width:0.5616;stroke-miterlimit:10;" d="
					M31.662,26.936c-0.256,4.145-2.448,14.855,18.613,16.455c0,0-1.234-4.33-0.29-3.127c0.399,0.516-16.714,0.85-15.077-12.023
					C34.908,28.24,32.104,19.975,31.662,26.936z"/>
				<path style="clip-path:url(#XMLID_8_);fill:#B32825;stroke:#000000;stroke-width:0.5616;stroke-miterlimit:10;" d="
					M34.713,26.219c-0.01,4.984-1.844,13.346,15.887,15.123c0,0-0.813-3.941,0.01-2.779c0.293,0.406-13.968,1.434-12.597-10.404
					C38.013,28.158,34.727,19.541,34.713,26.219z"/>
				<path style="clip-path:url(#XMLID_8_);fill:#B32825;stroke:#000000;stroke-width:0.5616;stroke-miterlimit:10;" d="
					M41.943,28.164c0,0-3.127,9.279,8.26,8.377"/>
				<use xlink:href="#XMLID_100_"  style="overflow:visible;fill:none;stroke:#000000;stroke-width:0.5616;stroke-miterlimit:10;"/>
			</g>
			<ellipse style="fill:#171717;" cx="27.061" cy="39.773" rx="0.629" ry="0.637"/>
			
				<line style="fill:none;stroke:#000000;stroke-width:0.5499;stroke-miterlimit:10;" x1="24.502" y1="43.463" x2="26.14" y2="43.463"/>
			<g>
				<defs>
					<path id="XMLID_99_" d="M6.201,63.514h5.979c0,0,0.32,8.984-5.979,11.996V63.514z"/>
				</defs>
				<use xlink:href="#XMLID_99_"  style="overflow:visible;fill:#FFFFFF;"/>
				<clipPath id="XMLID_9_">
					<use xlink:href="#XMLID_99_"  style="overflow:visible;"/>
				</clipPath>
				<polyline style="clip-path:url(#XMLID_9_);fill:#FFFFFF;stroke:#000000;stroke-width:0.6476;stroke-miterlimit:10;" points="
					4.281,66.154 12.836,66.154 12.836,69.443 4.502,69.443 4.822,72.938 11.863,72.938 10.758,75.734 4.281,75.76 				"/>
				<use xlink:href="#XMLID_99_"  style="overflow:visible;fill:none;stroke:#000000;stroke-width:0.5178;stroke-miterlimit:10;"/>
			</g>
			
				<line style="fill:none;stroke:#000000;stroke-width:0.5392;stroke-miterlimit:10;" x1="27.639" y1="45.66" x2="25.611" y2="45.611"/>
			<path style="fill:#FFFFFF;stroke:#000000;stroke-width:0.6596;stroke-miterlimit:10;" d="M24.469,27.6
				c0,0-1.496,15.447,16.565,18.633c7.458,1.316,9.759,5.285,11.168,10.537c0.104,0.391-1.237-7.264-3.394-10.109
				c-2.447-3.229-5.389-2.963-6.438-3.113c0,0-15.986-0.736-14.52-16.074L24.469,27.6z"/>
			<path style="stroke:#020202;stroke-width:0.6469;stroke-miterlimit:10;" d="M12.646,57.012"/>
			<g>
				<defs>
					<path id="XMLID_98_" d="M24.438,29.303c0,0,13.239,8.113,22.078,7.416l1.106-4.479c0,0-10.032-0.316-23.751-8.908
						L24.438,29.303z"/>
				</defs>
				<use xlink:href="#XMLID_98_"  style="overflow:visible;fill:#F7CC10;"/>
				<clipPath id="XMLID_10_">
					<use xlink:href="#XMLID_98_"  style="overflow:visible;"/>
				</clipPath>
				<path style="clip-path:url(#XMLID_10_);fill:#F7CC10;stroke:#020202;stroke-width:0.4345;stroke-miterlimit:10;" d="
					M24.438,28.162c0,0,13.721,8.498,24.832,7.561l-0.435-4.621c0,0-11.245-1.529-24.964-10.123L24.438,28.162z"/>
				<use xlink:href="#XMLID_98_"  style="overflow:visible;fill:none;stroke:#020202;stroke-width:0.4345;stroke-miterlimit:10;"/>
			</g>
			<g>
				<g>
					
						<ellipse transform="matrix(0.1739 -0.9848 0.9848 0.1739 -13.9994 82.443)" style="fill:#FFFFFF;stroke:#000000;stroke-width:0.4033;stroke-miterlimit:10;" cx="42.138" cy="49.565" rx="0.834" ry="0.961"/>
					<path style="fill:#FFFFFF;stroke:#000000;stroke-width:0.4033;stroke-miterlimit:10;" d="M42.895,49.324
						c0.434-0.303,1-0.242,1.264,0.133c0.266,0.375,0.124,0.932-0.311,1.236s-1.003,0.244-1.268-0.133
						C42.317,50.184,42.458,49.631,42.895,49.324z"/>
					
						<ellipse transform="matrix(0.041 -0.9992 0.9992 0.041 -9.3543 92.7379)" style="fill:#FFFFFF;stroke:#000000;stroke-width:0.4033;stroke-miterlimit:10;" cx="43.636" cy="51.242" rx="0.833" ry="0.961"/>
					
						<ellipse transform="matrix(-0.9671 -0.2544 0.2544 -0.9671 70.2556 113.2785)" style="fill:#FFFFFF;stroke:#000000;stroke-width:0.4033;stroke-miterlimit:10;" cx="42.452" cy="52.097" rx="0.833" ry="0.962"/>
					<path style="fill:#FFFFFF;stroke:#000000;stroke-width:0.4033;stroke-miterlimit:10;" d="M41.676,52.25
						c-0.465,0.25-1.022,0.131-1.24-0.275c-0.221-0.404-0.018-0.939,0.447-1.189c0.467-0.254,1.025-0.133,1.244,0.271
						C42.348,51.463,42.145,51.996,41.676,52.25z"/>
					
						<ellipse transform="matrix(-0.1541 0.9881 -0.9881 -0.1541 97.4489 17.392)" style="fill:#FFFFFF;stroke:#000000;stroke-width:0.4033;stroke-miterlimit:10;" cx="41.28" cy="50.409" rx="0.833" ry="0.96"/>
				</g>
				
					<ellipse style="fill:#FFFFFF;stroke:#000000;stroke-width:0.3719;stroke-miterlimit:10;" cx="42.397" cy="50.832" rx="0.833" ry="0.816"/>
			</g>
			<g>
				<g>
					
						<ellipse transform="matrix(0.1735 -0.9848 0.9848 0.1735 -22.5493 79.9468)" style="fill:#FFFFFF;stroke:#000000;stroke-width:0.4033;stroke-miterlimit:10;" cx="36.357" cy="53.408" rx="0.833" ry="0.962"/>
					
						<ellipse transform="matrix(-0.5728 -0.8197 0.8197 -0.5728 14.9865 115.5113)" style="fill:#FFFFFF;stroke:#000000;stroke-width:0.4033;stroke-miterlimit:10;" cx="37.592" cy="53.851" rx="0.833" ry="0.961"/>
					<path style="fill:#FFFFFF;stroke:#000000;stroke-width:0.4033;stroke-miterlimit:10;" d="M37.891,54.252
						c0.527,0.023,0.945,0.412,0.926,0.871c-0.019,0.461-0.466,0.816-0.995,0.795c-0.53-0.021-0.947-0.412-0.929-0.873
						C36.91,54.586,37.358,54.23,37.891,54.252z"/>
					<path style="fill:#FFFFFF;stroke:#000000;stroke-width:0.4033;stroke-miterlimit:10;" d="M35.866,55.725
						c0.136-0.512,0.605-0.834,1.05-0.717c0.445,0.117,0.697,0.631,0.561,1.141c-0.135,0.516-0.605,0.838-1.051,0.723
						C35.979,56.752,35.73,56.24,35.866,55.725z"/>
					<path style="fill:#FFFFFF;stroke:#000000;stroke-width:0.4033;stroke-miterlimit:10;" d="M35.896,56.094
						c-0.466,0.25-1.022,0.127-1.24-0.277c-0.221-0.404-0.019-0.939,0.447-1.189c0.467-0.254,1.025-0.131,1.244,0.273
						C36.567,55.305,36.364,55.838,35.896,56.094z"/>
					
						<ellipse transform="matrix(-0.1547 0.988 -0.988 -0.1547 94.5897 27.5709)" style="fill:#FFFFFF;stroke:#000000;stroke-width:0.4033;stroke-miterlimit:10;" cx="35.5" cy="54.251" rx="0.833" ry="0.961"/>
				</g>
				
					<ellipse style="fill:#FFFFFF;stroke:#000000;stroke-width:0.3719;stroke-miterlimit:10;" cx="36.618" cy="54.674" rx="0.833" ry="0.818"/>
			</g>
			<g>
				<g>
					
						<ellipse transform="matrix(0.1733 -0.9849 0.9849 0.1733 -31.9732 77.942)" style="fill:#FFFFFF;stroke:#000000;stroke-width:0.4033;stroke-miterlimit:10;" cx="30.441" cy="58.017" rx="0.834" ry="0.961"/>
					
						<ellipse transform="matrix(-0.5728 -0.8197 0.8197 -0.5728 1.9019 117.9111)" style="fill:#FFFFFF;stroke:#000000;stroke-width:0.4033;stroke-miterlimit:10;" cx="31.675" cy="58.46" rx="0.833" ry="0.962"/>
					<path style="fill:#FFFFFF;stroke:#000000;stroke-width:0.4033;stroke-miterlimit:10;" d="M31.974,58.859
						c0.528,0.023,0.946,0.412,0.926,0.871c-0.019,0.461-0.465,0.816-0.995,0.795c-0.529-0.021-0.947-0.412-0.928-0.873
						C30.994,59.195,31.441,58.84,31.974,58.859z"/>
					<path style="fill:#FFFFFF;stroke:#000000;stroke-width:0.4033;stroke-miterlimit:10;" d="M29.949,60.334
						c0.135-0.514,0.606-0.836,1.051-0.717c0.444,0.115,0.696,0.631,0.561,1.141c-0.135,0.516-0.605,0.84-1.052,0.723
						C30.063,61.361,29.813,60.85,29.949,60.334z"/>
					
						<ellipse transform="matrix(0.4756 0.8797 -0.8797 0.4756 68.2673 5.4247)" style="fill:#FFFFFF;stroke:#000000;stroke-width:0.4033;stroke-miterlimit:10;" cx="29.584" cy="59.968" rx="0.834" ry="0.962"/>
					<path style="fill:#FFFFFF;stroke:#000000;stroke-width:0.4033;stroke-miterlimit:10;" d="M29.455,59.682
						c-0.521-0.08-0.893-0.518-0.82-0.971c0.068-0.455,0.555-0.756,1.078-0.676c0.524,0.084,0.895,0.518,0.822,0.971
						C30.467,59.461,29.981,59.766,29.455,59.682z"/>
				</g>
				
					<ellipse style="fill:#FFFFFF;stroke:#000000;stroke-width:0.3719;stroke-miterlimit:10;" cx="30.701" cy="59.283" rx="0.834" ry="0.818"/>
			</g>
			<g>
				<g>
					<path style="fill:#FFFFFF;stroke:#000000;stroke-width:0.4033;stroke-miterlimit:10;" d="M24.789,61.191
						c0.521,0.092,0.881,0.535,0.801,0.986c-0.08,0.453-0.57,0.746-1.092,0.656c-0.524-0.096-0.885-0.539-0.804-0.99
						C23.774,61.389,24.266,61.098,24.789,61.191z"/>
					
						<ellipse transform="matrix(-0.5728 -0.8197 0.8197 -0.5728 -10.491 119.4409)" style="fill:#FFFFFF;stroke:#000000;stroke-width:0.4033;stroke-miterlimit:10;" cx="25.877" cy="62.454" rx="0.833" ry="0.961"/>
					<path style="fill:#FFFFFF;stroke:#000000;stroke-width:0.4033;stroke-miterlimit:10;" d="M26.176,62.857
						c0.528,0.02,0.945,0.41,0.926,0.869c-0.018,0.463-0.465,0.816-0.994,0.793c-0.53-0.021-0.947-0.412-0.929-0.871
						C25.195,63.189,25.645,62.834,26.176,62.857z"/>
					<path style="fill:#FFFFFF;stroke:#000000;stroke-width:0.4033;stroke-miterlimit:10;" d="M24.151,64.328
						c0.135-0.51,0.606-0.834,1.05-0.717c0.445,0.117,0.697,0.631,0.562,1.143c-0.135,0.514-0.605,0.836-1.05,0.721
						C24.266,65.355,24.016,64.846,24.151,64.328z"/>
					<path style="fill:#FFFFFF;stroke:#000000;stroke-width:0.4033;stroke-miterlimit:10;" d="M24.183,64.697
						c-0.466,0.25-1.023,0.129-1.241-0.277c-0.221-0.406-0.018-0.938,0.447-1.189c0.468-0.252,1.026-0.133,1.245,0.273
						C24.854,63.908,24.65,64.441,24.183,64.697z"/>
					
						<ellipse transform="matrix(-0.1541 0.9881 -0.9881 -0.1541 89.5551 49.0406)" style="fill:#FFFFFF;stroke:#000000;stroke-width:0.4033;stroke-miterlimit:10;" cx="23.786" cy="62.854" rx="0.833" ry="0.96"/>
				</g>
				
					<ellipse style="fill:#FFFFFF;stroke:#000000;stroke-width:0.3719;stroke-miterlimit:10;" cx="24.903" cy="63.277" rx="0.833" ry="0.816"/>
			</g>
			<path style="fill:#F7CC10;stroke:#020202;stroke-width:0.4705;stroke-miterlimit:10;" d="M26.328,23.332
				c0,0.756-0.615,1.375-1.375,1.375c-0.758,0-1.374-0.619-1.374-1.375c0-0.762,0.616-1.375,1.374-1.375
				C25.713,21.957,26.328,22.57,26.328,23.332z"/>
			<circle style="fill:#F7CC10;stroke:#020202;stroke-width:0.3187;stroke-miterlimit:10;" cx="26.509" cy="24.92" r="0.931"/>
			<path style="fill:#F7CC10;stroke:#020202;stroke-width:0.3036;stroke-miterlimit:10;" d="M28.683,25.893
				c0,0.488-0.396,0.885-0.886,0.885s-0.887-0.396-0.887-0.885c0-0.492,0.396-0.885,0.887-0.885S28.683,25.4,28.683,25.893z"/>
			<circle style="fill:#F7CC10;stroke:#020202;stroke-width:0.3036;stroke-miterlimit:10;" cx="29.352" cy="26.865" r="0.887"/>
			<circle style="fill:#F7CC10;stroke:#020202;stroke-width:0.3036;stroke-miterlimit:10;" cx="30.977" cy="27.662" r="0.887"/>
			<circle style="fill:#F7CC10;stroke:#020202;stroke-width:0.3036;stroke-miterlimit:10;" cx="32.596" cy="28.359" r="0.887"/>
			<g>
				<path style="fill:#F7CC10;stroke:#020202;stroke-width:0.4345;stroke-miterlimit:10;" d="M10.852,43.617
					c0.853,0.15,1.443,0.875,1.312,1.615c-0.132,0.744-0.935,1.221-1.787,1.07c-0.858-0.152-1.448-0.877-1.317-1.619
					C9.191,43.943,9.994,43.465,10.852,43.617z"/>
				
					<ellipse transform="matrix(-0.5727 -0.8197 0.8197 -0.5727 -17.5811 82.2056)" style="fill:#F7CC10;stroke:#020202;stroke-width:0.4345;stroke-miterlimit:10;" cx="12.633" cy="45.685" rx="1.364" ry="1.574"/>
				<path style="fill:#F7CC10;stroke:#020202;stroke-width:0.4345;stroke-miterlimit:10;" d="M13.123,46.342
					c0.863,0.035,1.546,0.674,1.515,1.426c-0.031,0.754-0.761,1.336-1.628,1.301c-0.868-0.037-1.552-0.676-1.52-1.428
					C11.518,46.889,12.25,46.305,13.123,46.342z"/>
				<path style="fill:#F7CC10;stroke:#020202;stroke-width:0.4345;stroke-miterlimit:10;" d="M9.809,48.752
					c0.221-0.836,0.991-1.363,1.721-1.174c0.727,0.193,1.139,1.033,0.918,1.869c-0.223,0.844-0.993,1.373-1.722,1.18
					C9.994,50.434,9.586,49.598,9.809,48.752z"/>
				<path style="fill:#F7CC10;stroke:#020202;stroke-width:0.4345;stroke-miterlimit:10;" d="M9.858,49.355
					c-0.763,0.41-1.675,0.209-2.031-0.453c-0.361-0.662-0.03-1.537,0.731-1.949c0.767-0.412,1.68-0.213,2.039,0.451
					C10.957,48.064,10.625,48.939,9.858,49.355z"/>
				<path style="fill:#F7CC10;stroke:#020202;stroke-width:0.4345;stroke-miterlimit:10;" d="M9,47.688
					c-0.857-0.135-1.463-0.846-1.346-1.592c0.115-0.744,0.908-1.236,1.766-1.104c0.857,0.131,1.464,0.844,1.348,1.59
					C10.654,47.326,9.859,47.822,9,47.688z"/>
			</g>
			
				<ellipse style="fill:#FFFFFF;stroke:#000000;stroke-width:0.3719;stroke-miterlimit:10;" cx="11.039" cy="47.031" rx="1.365" ry="1.338"/>
			<path style="fill:#F7CC10;stroke:#020202;stroke-width:0.4345;stroke-miterlimit:10;" d="M10.207,57.834
				c0,0,1.014-2.922,3.568-2.838c0,0-0.303,2.992-3.574,2.861L10.207,57.834z"/>
			<path style="fill:#F7CC10;stroke:#020202;stroke-width:0.4345;stroke-miterlimit:10;" d="M8.672,56.045
				c0,0-0.227-3.086-2.717-3.658c0,0-0.479,2.967,2.717,3.682V56.045z"/>
		</g>
	</g>
	<path style="fill:#171717;" d="M14.73,32.572c-0.283,0-0.551,0.055-0.809,0.135c0.35-0.461,0.568-1.027,0.568-1.65
		c0-1.506-1.223-2.73-2.732-2.73c-1.508,0-2.729,1.225-2.729,2.73c0,0.623,0.215,1.189,0.564,1.648
		c-0.256-0.078-0.523-0.133-0.807-0.133c-1.506,0-2.73,1.223-2.73,2.729c0,1.508,1.225,2.732,2.73,2.732
		c0.779,0,1.473-0.332,1.969-0.852c-0.121,0.992-0.396,2.75-0.85,3.092h3.705c-0.455-0.342-0.729-2.1-0.852-3.092
		c0.498,0.52,1.193,0.852,1.971,0.852c1.506,0,2.73-1.225,2.73-2.732C17.461,33.795,16.236,32.572,14.73,32.572z"/>
</g>
</svg>
