<?xml version="1.0" encoding="iso-8859-1"?>
<!-- Generator: Adobe Illustrator 16.0.0, SVG Export Plug-In . SVG Version: 6.00 Build 0)  -->
<!DOCTYPE svg PUBLIC "-//W3C//DTD SVG 1.1//EN" "http://www.w3.org/Graphics/SVG/1.1/DTD/svg11.dtd">
<svg version="1.1" id="Layer_1" xmlns="http://www.w3.org/2000/svg" xmlns:xlink="http://www.w3.org/1999/xlink" x="0px" y="0px"
	 width="58.426px" height="81.336px" viewBox="0 0 58.426 81.336" style="enable-background:new 0 0 58.426 81.336;"
	 xml:space="preserve">
<g>
	<g>
		<path style="fill-rule:evenodd;clip-rule:evenodd;fill:#FAFAFA;" d="M58.111,75.622c0,2.97-2.43,5.399-5.399,5.399H5.715
			c-2.97,0-5.399-2.43-5.399-5.399V5.714c0-2.97,2.43-5.399,5.399-5.399h46.997c2.97,0,5.399,2.43,5.399,5.399V75.622z"/>
		<path style="fill:none;stroke:#CCCCCC;stroke-width:0.6299;stroke-miterlimit:3.8637;" d="M58.111,75.622
			c0,2.97-2.43,5.399-5.399,5.399H5.715c-2.97,0-5.399-2.43-5.399-5.399V5.714c0-2.97,2.43-5.399,5.399-5.399h46.997
			c2.97,0,5.399,2.43,5.399,5.399V75.622z"/>
	</g>
	<g>
		<path style="fill:#171717;" d="M8.81,22.422c0.313,0.025,0.677,0.025,0.988,0.025c0.91,0,1.638-0.338,1.638-1.742V6.82h2.86
			v13.678c0,3.641-1.95,4.576-4.108,4.576c-0.52,0-0.91,0-1.378-0.053V22.422z"/>
	</g>
	<g>
		<path style="fill:#F5CC00;stroke:#020202;stroke-width:0.436;stroke-miterlimit:10;" d="M44.946,45.834
			c0,0,6.562,1.666,7.283-3.658c0.45-3.324-2.288-5.91-5.663-5.355v3.043l2.438,1.711l0.57,1.377l-1.115,1.719L44.946,45.834z"/>
		<g>
			<defs>
				<polygon id="XMLID_110_" points="27.933,49.66 9.74,62.105 6.463,75.514 9.892,75.514 52.248,75.514 52.248,56.754 
					47.203,48.264 37.238,43.707 				"/>
			</defs>
			<use xlink:href="#XMLID_110_"  style="overflow:visible;"/>
			<clipPath id="XMLID_2_">
				<use xlink:href="#XMLID_110_"  style="overflow:visible;"/>
			</clipPath>
			<g style="clip-path:url(#XMLID_2_);">
				<defs>
					<polygon id="XMLID_113_" points="43.688,48.283 23.155,61.951 25.531,42.805 41.076,40.178 45.542,42.043 					"/>
				</defs>
				<use xlink:href="#XMLID_113_"  style="overflow:visible;fill:#FFFFFF;"/>
				<clipPath id="XMLID_3_">
					<use xlink:href="#XMLID_113_"  style="overflow:visible;"/>
				</clipPath>
				<g style="clip-path:url(#XMLID_3_);">
					<defs>
						<path id="XMLID_114_" d="M41.076,47.941L25.629,57.947l0.85-8.02c0,0-1.188-1.771-0.283-4.469l12.502-2.566L41.076,47.941z"/>
					</defs>
					<use xlink:href="#XMLID_114_"  style="overflow:visible;fill:#F5CC00;"/>
					<clipPath id="XMLID_4_">
						<use xlink:href="#XMLID_114_"  style="overflow:visible;"/>
					</clipPath>
					<polygon style="clip-path:url(#XMLID_4_);stroke:#020202;stroke-width:0.5509;stroke-miterlimit:10;" points="40.404,46.193 
						27.74,54.563 29.107,39.701 38.878,40.533 					"/>
					
						<use xlink:href="#XMLID_114_"  style="overflow:visible;fill:none;stroke:#020202;stroke-width:0.5509;stroke-miterlimit:10;"/>
				</g>
				<use xlink:href="#XMLID_113_"  style="overflow:visible;fill:none;stroke:#000000;stroke-width:0.5509;stroke-miterlimit:10;"/>
			</g>
			<g style="clip-path:url(#XMLID_2_);">
				<defs>
					<polygon id="XMLID_112_" points="12.301,77.697 50.979,48.91 55.646,56.568 22.615,81.697 					"/>
				</defs>
				<use xlink:href="#XMLID_112_"  style="overflow:visible;fill:#F5CC00;"/>
				<clipPath id="XMLID_5_">
					<use xlink:href="#XMLID_112_"  style="overflow:visible;"/>
				</clipPath>
				<polygon style="clip-path:url(#XMLID_5_);fill:#AE2A20;stroke:#000000;stroke-width:0.579;stroke-miterlimit:10;" points="
					18.703,82.611 57.5,52.98 54.259,48.732 8.316,82.789 				"/>
				<use xlink:href="#XMLID_112_"  style="overflow:visible;fill:none;stroke:#020202;stroke-width:0.5509;stroke-miterlimit:10;"/>
			</g>
			<g style="clip-path:url(#XMLID_2_);">
				<defs>
					<polygon id="XMLID_111_" points="17.486,52.574 13.594,77.877 18.98,77.877 22.959,50.49 					"/>
				</defs>
				<use xlink:href="#XMLID_111_"  style="overflow:visible;fill:#FFFFFF;"/>
				<clipPath id="XMLID_6_">
					<use xlink:href="#XMLID_111_"  style="overflow:visible;"/>
				</clipPath>
				<polygon style="clip-path:url(#XMLID_6_);fill:#F5CC00;stroke:#020202;stroke-width:0.5509;stroke-miterlimit:10;" points="
					19.539,51.141 15.291,77.518 21.169,77.518 25.51,48.969 				"/>
				<polygon style="clip-path:url(#XMLID_6_);fill:#FFFFFF;stroke:#000000;stroke-width:0.5509;stroke-miterlimit:10;" points="
					21.174,51.141 16.926,77.518 22.805,77.518 27.145,48.969 				"/>
				<use xlink:href="#XMLID_111_"  style="overflow:visible;fill:none;stroke:#000000;stroke-width:0.5509;stroke-miterlimit:10;"/>
			</g>
			<use xlink:href="#XMLID_110_"  style="overflow:visible;fill:none;stroke:#000000;stroke-width:0.579;stroke-miterlimit:10;"/>
		</g>
		<path style="fill:#FFFFFF;stroke:#000000;stroke-width:0.5509;stroke-miterlimit:10;" d="M25.161,30.934c0,0,0,4.338,0,5.002
			l-2.509,6.271h2.68v7.406c0,0,10.928,2.564,14.163-5.801V28.451C39.495,28.451,27.818,28.754,25.161,30.934z"/>
		<g>
			<defs>
				<path id="XMLID_109_" d="M47.211,32.346c0,0-1.856,3.566,1.139,7.242l0.679,6.365l-5.558,2.096l-9.591-5.652l-1.421-11.705
					l9.537,0.162L47.211,32.346z"/>
			</defs>
			<use xlink:href="#XMLID_109_"  style="overflow:visible;fill:#F5CC00;"/>
			<clipPath id="XMLID_7_">
				<use xlink:href="#XMLID_109_"  style="overflow:visible;"/>
			</clipPath>
			<path style="clip-path:url(#XMLID_7_);fill:#F5CC00;stroke:#020202;stroke-width:0.5425;stroke-miterlimit:10;" d="
				M36.145,29.092c-0.212,4.449-2.014,15.939,15.293,17.652c0,0-1.014-4.643-0.238-3.352c0.328,0.553-13.733,0.91-12.391-12.9
				C38.809,30.492,36.505,21.623,36.145,29.092z"/>
			<path style="clip-path:url(#XMLID_7_);fill:#F5CC00;stroke:#020202;stroke-width:0.4976;stroke-miterlimit:10;" d="M38.65,28.322
				c-0.01,5.35-1.517,14.32,13.053,16.223c0,0-0.668-4.223,0.01-2.98c0.238,0.438-11.479,1.537-10.353-11.158
				C41.36,30.406,38.662,21.16,38.65,28.322z"/>
			<path style="clip-path:url(#XMLID_7_);fill:#F5CC00;stroke:#020202;stroke-width:0.4976;stroke-miterlimit:10;" d="M44.59,30.41
				c0,0-2.567,9.953,6.787,8.986"/>
			<use xlink:href="#XMLID_109_"  style="overflow:visible;fill:none;stroke:#020202;stroke-width:0.4976;stroke-miterlimit:10;"/>
		</g>
		<path style="fill:none;stroke:#D85A00;stroke-width:0.5427;stroke-miterlimit:10;" d="M39.936,29.539"/>
		<ellipse style="fill:#171717;" cx="27.865" cy="37.27" rx="0.734" ry="0.744"/>
		<path style="fill:#171717;" d="M25.332,44.627c1.504-0.314,3.508,0,3.508,0c2.444,0.266,3.168-0.855,3.168-0.855
			s-0.605,0.512-3.168-0.033c-2.561-0.545-3.508-0.408-3.508-0.408V44.627z"/>
		
			<line style="fill:none;stroke:#000000;stroke-width:0.5509;stroke-miterlimit:10;" x1="24.499" y1="42.207" x2="26.64" y2="42.207"/>
		<g>
			<defs>
				<path id="XMLID_108_" d="M6.164,61.918h6.998c0,0,1.811,9.193-6.998,13.559V61.918z"/>
			</defs>
			<use xlink:href="#XMLID_108_"  style="overflow:visible;fill:#FFFFFF;"/>
			<clipPath id="XMLID_8_">
				<use xlink:href="#XMLID_108_"  style="overflow:visible;"/>
			</clipPath>
			<polyline style="clip-path:url(#XMLID_8_);fill:#FFFFFF;stroke:#000000;stroke-width:0.6693;stroke-miterlimit:10;" points="
				4.88,64.844 13.451,64.844 13.451,68.348 5.103,68.348 5.424,72.074 12.477,72.074 11.37,75.055 4.88,75.082 			"/>
			<use xlink:href="#XMLID_108_"  style="overflow:visible;fill:none;stroke:#000000;stroke-width:0.5509;stroke-miterlimit:10;"/>
		</g>
		
			<line style="fill:none;stroke:#000000;stroke-width:0.5402;stroke-miterlimit:10;" x1="27.641" y1="45.625" x2="25.609" y2="45.576"/>
		<path style="fill:#F5CC00;stroke:#020202;stroke-width:0.436;stroke-miterlimit:10;" d="M43.619,47.809
			c0,0,6.84,1.666,7.562-3.658c0.451-3.328-2.288-5.91-5.663-5.352v3.039l2.438,1.713l0.565,1.375l-1.113,1.719L43.619,47.809z"/>
		<path style="fill:#F5CC00;stroke:#020202;stroke-width:0.5509;stroke-miterlimit:10;" d="M43.021,29.678"/>
		<path style="fill:#F5CC00;stroke:#020202;stroke-width:0.5509;stroke-miterlimit:10;" d="M30.702,30.707
			c0,0-1.974,14.85,11.636,18.27c1.626,0.408,6.581,0.699,7.025-4.043c0.285-3.059-2.988-5.018-5.509-4.5l0.121,2.502
			c0,0,2.729-0.375,2.637,2.021c0,0-0.28,2.068-3.261,1.547c0,0-11.197-1.795-10.086-15.912L30.702,30.707z"/>
		<path style="fill:#020202;stroke:#000000;stroke-width:0.5509;stroke-miterlimit:10;" d="M20.193,23.988l4.656,8.742
			c0,0,13.23-3.568,22.299-0.072l3.275-8.793C50.424,23.865,36.762,18.615,20.193,23.988z"/>
		<g>
			<defs>
				<path id="XMLID_107_" d="M20.621,24.244l3.209,6.584c0,0,13.154-2.902,23.992-0.02l2.431-6.441
					C50.253,24.367,36.445,19.174,20.621,24.244z"/>
			</defs>
			<use xlink:href="#XMLID_107_"  style="overflow:visible;fill:#AE2A20;"/>
			<clipPath id="XMLID_9_">
				<use xlink:href="#XMLID_107_"  style="overflow:visible;"/>
			</clipPath>
			<use xlink:href="#XMLID_107_"  style="overflow:visible;fill:none;stroke:#000000;stroke-width:0.5509;stroke-miterlimit:10;"/>
		</g>
		<path style="fill:#AE2A20;stroke:#000000;stroke-width:0.5509;stroke-miterlimit:10;" d="M23.208,25.256l1.849,3.59
			c0,0,2.41-0.641,5.269-0.873l-0.363-3.801"/>
		<path style="fill:#AE2A20;stroke:#000000;stroke-width:0.5509;stroke-miterlimit:10;" d="M47.915,24.943l-1.293,3.545
			c0,0-3.245-0.367-6.103-0.602l0.086-3.799"/>
		<polyline style="fill:#AE2A20;stroke:#000000;stroke-width:0.5509;stroke-miterlimit:10;" points="32.186,24.172 32.466,27.779 
			38.392,27.779 38.392,24.029 		"/>
		<path style="fill:#AE2A20;stroke:#000000;stroke-width:0.5509;stroke-miterlimit:10;" d="M38.672,23.027"/>
		<polygon style="stroke:#020202;stroke-width:0.5509;stroke-miterlimit:10;" points="23.573,73.99 26.756,73.99 29.859,71.76 
			26.656,71.76 		"/>
		<polygon style="stroke:#020202;stroke-width:0.5509;stroke-miterlimit:10;" points="28.486,70.088 31.668,70.088 34.771,67.855 
			31.568,67.855 		"/>
		<polygon style="stroke:#020202;stroke-width:0.5509;stroke-miterlimit:10;" points="33.617,66.396 36.797,66.396 39.903,64.164 
			36.699,64.164 		"/>
		<polygon style="stroke:#020202;stroke-width:0.5509;stroke-miterlimit:10;" points="38.529,62.764 41.711,62.764 44.816,60.533 
			41.612,60.533 		"/>
		<polygon style="stroke:#020202;stroke-width:0.5509;stroke-miterlimit:10;" points="43.579,59.002 46.484,59.002 49.311,57.043 
			48.33,55.404 		"/>
		<polygon style="stroke:#020202;stroke-width:0.4883;stroke-miterlimit:10;" points="38.873,72.965 49.898,64.979 49.898,72.965 		
			"/>
		<polygon style="fill:#F5CC00;stroke:#020202;stroke-width:0.4713;stroke-miterlimit:10;" points="42.59,71.604 48.532,67.504 
			48.532,71.604 		"/>
		
			<ellipse style="fill:#FFFFFF;stroke:#000000;stroke-width:0.3726;stroke-miterlimit:10;" cx="43.579" cy="51.334" rx="0.835" ry="0.82"/>
		
			<ellipse style="fill:#FFFFFF;stroke:#000000;stroke-width:0.3726;stroke-miterlimit:10;" cx="40.049" cy="54.01" rx="0.834" ry="0.818"/>
		
			<ellipse style="fill:#FFFFFF;stroke:#000000;stroke-width:0.3726;stroke-miterlimit:10;" cx="36.447" cy="56.707" rx="0.834" ry="0.82"/>
		<path style="fill:#FFFFFF;stroke:#000000;stroke-width:0.3726;stroke-miterlimit:10;" d="M33.194,59.928
			c0,0.457-0.372,0.822-0.833,0.822s-0.833-0.365-0.833-0.822c0-0.451,0.372-0.818,0.833-0.818S33.194,59.477,33.194,59.928z"/>
		<path style="fill:#FFFFFF;stroke:#000000;stroke-width:0.3726;stroke-miterlimit:10;" d="M28.906,62.963
			c0,0.451-0.375,0.816-0.836,0.816c-0.457,0-0.836-0.365-0.836-0.816c0-0.449,0.379-0.82,0.836-0.82
			C28.531,62.143,28.906,62.514,28.906,62.963z"/>
		<path style="fill:#FFFFFF;stroke:#000000;stroke-width:0.3726;stroke-miterlimit:10;" d="M24.819,66.184
			c0,0.455-0.372,0.822-0.835,0.822c-0.459,0-0.834-0.367-0.834-0.822c0-0.451,0.375-0.818,0.834-0.818
			C24.447,65.365,24.819,65.732,24.819,66.184z"/>
		<path style="stroke:#020202;stroke-width:0.4379;stroke-miterlimit:10;" d="M11.885,49.098c0-0.797-0.91-1.443-2.086-1.443
			c-1.174,0-2.09,0.646-2.09,1.443c0,0.096,0,12.609,0,12.609h4.176C11.885,52.795,11.885,52.795,11.885,49.098z"/>
		<path style="fill:#FFFFFF;" d="M10.336,48.924c0-0.201-0.234-0.367-0.537-0.367c-0.299,0-0.533,0.166-0.533,0.367
			c0,0.025,0,11.883,0,11.883h1.07C10.336,58.523,10.336,49.871,10.336,48.924z"/>
		<rect x="9.242" y="44.17" style="stroke:#020202;stroke-width:0.5236;stroke-miterlimit:10;" width="1.115" height="3.297"/>
		<polygon style="stroke:#020202;stroke-width:0.5036;stroke-miterlimit:10;" points="9.883,41.912 11.713,45.969 7.9,45.969 		"/>
	</g>
	<path style="fill:#171717;" d="M14.73,32.262c-0.283,0-0.551,0.055-0.809,0.135c0.35-0.461,0.568-1.027,0.568-1.65
		c0-1.506-1.223-2.73-2.732-2.73c-1.508,0-2.729,1.225-2.729,2.73c0,0.623,0.215,1.189,0.564,1.648
		c-0.256-0.078-0.523-0.133-0.807-0.133c-1.506,0-2.73,1.223-2.73,2.729c0,1.508,1.225,2.732,2.73,2.732
		c0.779,0,1.473-0.332,1.969-0.852c-0.121,0.992-0.396,2.75-0.85,3.092h3.705c-0.455-0.342-0.729-2.1-0.852-3.092
		c0.498,0.52,1.193,0.852,1.971,0.852c1.506,0,2.73-1.225,2.73-2.732C17.461,33.484,16.236,32.262,14.73,32.262z"/>
</g>
</svg>
