<?xml version="1.0" encoding="iso-8859-1"?>
<!-- Generator: Adobe Illustrator 16.0.0, SVG Export Plug-In . SVG Version: 6.00 Build 0)  -->
<!DOCTYPE svg PUBLIC "-//W3C//DTD SVG 1.1//EN" "http://www.w3.org/Graphics/SVG/1.1/DTD/svg11.dtd">
<svg version="1.1" id="Layer_1" xmlns="http://www.w3.org/2000/svg" xmlns:xlink="http://www.w3.org/1999/xlink" x="0px" y="0px"
	 width="58.426px" height="81.339px" viewBox="0 0 58.426 81.339" style="enable-background:new 0 0 58.426 81.339;"
	 xml:space="preserve">
<g>
	<g>
		<path style="fill-rule:evenodd;clip-rule:evenodd;fill:#FAFAFA;" d="M58.111,75.624c0,2.97-2.43,5.399-5.399,5.399H5.715
			c-2.97,0-5.399-2.43-5.399-5.399V5.714c0-2.969,2.43-5.399,5.399-5.399h46.997c2.97,0,5.399,2.43,5.399,5.399V75.624z"/>
		<path style="fill:none;stroke:#CCCCCC;stroke-width:0.6299;stroke-miterlimit:3.8637;" d="M58.111,75.624
			c0,2.97-2.43,5.399-5.399,5.399H5.715c-2.97,0-5.399-2.43-5.399-5.399V5.714c0-2.969,2.43-5.399,5.399-5.399h46.997
			c2.97,0,5.399,2.43,5.399,5.399V75.624z"/>
	</g>
	<g>
		<path style="fill:#171717;" d="M4.426,9.111c2.211,0,2.705-1.066,3.146-2.289h1.924v18.201H6.637V11.138H4.426V9.111z"/>
		<path style="fill:#171717;" d="M10.641,11.191c0-2.912,1.533-4.576,4.342-4.576c2.808,0,4.342,1.664,4.342,4.576v9.464
			c0,2.912-1.534,4.576-4.342,4.576c-2.809,0-4.342-1.664-4.342-4.576V11.191z M13.5,20.836c0,1.301,0.572,1.794,1.482,1.794
			s1.482-0.493,1.482-1.794v-9.828c0-1.3-0.572-1.794-1.482-1.794S13.5,9.708,13.5,11.008V20.836z"/>
	</g>
	<g>
		<path style="fill:#171717;" d="M14.365,32.936c-0.283,0-0.551,0.055-0.809,0.136c0.35-0.462,0.568-1.027,0.568-1.65
			c0-1.507-1.223-2.73-2.732-2.73c-1.508,0-2.729,1.224-2.729,2.73c0,0.623,0.215,1.188,0.564,1.647
			c-0.256-0.078-0.523-0.133-0.807-0.133c-1.506,0-2.73,1.223-2.73,2.729c0,1.508,1.225,2.731,2.73,2.731
			c0.779,0,1.473-0.332,1.969-0.852c-0.121,0.992-0.396,2.75-0.85,3.094h3.705c-0.455-0.344-0.729-2.102-0.852-3.094
			c0.498,0.52,1.193,0.852,1.971,0.852c1.506,0,2.73-1.223,2.73-2.731C17.096,34.159,15.871,32.936,14.365,32.936z"/>
		<path style="fill:#171717;" d="M44.023,55.709c-0.709,0-1.377,0.139-2.021,0.34c0.875-1.15,1.416-2.57,1.416-4.125
			c0-3.766-3.053-6.826-6.824-6.826c-3.77,0-6.824,3.061-6.824,6.826c0,1.555,0.539,2.975,1.414,4.121
			c-0.643-0.197-1.309-0.336-2.018-0.336c-3.768,0-6.824,3.057-6.824,6.824c0,3.771,3.057,6.828,6.824,6.828
			c1.945,0,3.684-0.826,4.924-2.125c-0.303,2.482-0.992,6.873-2.127,7.73h9.262c-1.133-0.857-1.818-5.248-2.125-7.73
			c1.244,1.299,2.982,2.125,4.924,2.125c3.766,0,6.826-3.057,6.826-6.828C50.85,58.766,47.789,55.709,44.023,55.709z"/>
	</g>
</g>
</svg>
