<?xml version="1.0" encoding="iso-8859-1"?>
<!-- Generator: Adobe Illustrator 16.0.0, SVG Export Plug-In . SVG Version: 6.00 Build 0)  -->
<!DOCTYPE svg PUBLIC "-//W3C//DTD SVG 1.1//EN" "http://www.w3.org/Graphics/SVG/1.1/DTD/svg11.dtd">
<svg version="1.1" id="Layer_1" xmlns="http://www.w3.org/2000/svg" xmlns:xlink="http://www.w3.org/1999/xlink" x="0px" y="0px"
	 width="58.426px" height="81.338px" viewBox="0 0 58.426 81.338" style="enable-background:new 0 0 58.426 81.338;"
	 xml:space="preserve">
<g>
	<g>
		<path style="fill-rule:evenodd;clip-rule:evenodd;fill:#FAFAFA;" d="M58.111,75.624c0,2.97-2.43,5.399-5.399,5.399H5.715
			c-2.97,0-5.399-2.43-5.399-5.399V5.714c0-2.97,2.43-5.399,5.399-5.399h46.997c2.97,0,5.399,2.43,5.399,5.399V75.624z"/>
		<path style="fill:none;stroke:#CCCCCC;stroke-width:0.6299;stroke-miterlimit:3.8637;" d="M58.111,75.624
			c0,2.97-2.43,5.399-5.399,5.399H5.715c-2.97,0-5.399-2.43-5.399-5.399V5.714c0-2.97,2.43-5.399,5.399-5.399h46.997
			c2.97,0,5.399,2.43,5.399,5.399V75.624z"/>
	</g>
	<g>
		<path style="fill:#171717;" d="M11.28,17.77l-0.884,1.664v5.59h-2.86V6.822h2.86v7.93l3.744-7.93H17l-3.978,8.113L17,25.023
			h-2.938L11.28,17.77z"/>
	</g>
	<g>
		<path style="fill:#FFFFFF;stroke:#000000;stroke-width:0.6537;stroke-miterlimit:10;" d="M44.082,46.813
			c0,0,6.578,1.451,7.047-4.139c0.293-3.494-2.541-6.072-5.859-5.344l0.143,3.176l2.494,1.68l0.627,1.412l-1.025,1.844
			L44.082,46.813z"/>
		<g>
			<defs>
				<polygon id="XMLID_94_" points="27.938,49.666 9.75,62.109 6.473,75.514 9.901,75.514 52.248,75.514 52.248,56.76 
					47.203,48.271 37.241,43.717 				"/>
			</defs>
			<use xlink:href="#XMLID_94_"  style="overflow:visible;"/>
			<clipPath id="XMLID_2_">
				<use xlink:href="#XMLID_94_"  style="overflow:visible;"/>
			</clipPath>
			<g style="clip-path:url(#XMLID_2_);">
				<defs>
					<polygon id="XMLID_97_" points="43.689,48.291 23.161,61.955 25.537,42.813 41.076,40.189 45.542,42.055 					"/>
				</defs>
				<use xlink:href="#XMLID_97_"  style="overflow:visible;fill:#F7CC10;"/>
				<clipPath id="XMLID_3_">
					<use xlink:href="#XMLID_97_"  style="overflow:visible;"/>
				</clipPath>
				<g style="clip-path:url(#XMLID_3_);">
					<polygon style="fill:#B32825;stroke:#000000;stroke-width:0.5788;stroke-miterlimit:10;" points="40.406,46.203 27.745,54.568 
						29.111,39.711 38.881,40.541 					"/>
				</g>
				<use xlink:href="#XMLID_97_"  style="overflow:visible;fill:none;stroke:#020202;stroke-width:0.4345;stroke-miterlimit:10;"/>
			</g>
			<g style="clip-path:url(#XMLID_2_);">
				<defs>
					<polygon id="XMLID_96_" points="12.309,77.697 50.979,48.918 55.646,56.574 22.621,81.697 					"/>
				</defs>
				<use xlink:href="#XMLID_96_"  style="overflow:visible;fill:#F7CC10;"/>
				<clipPath id="XMLID_4_">
					<use xlink:href="#XMLID_96_"  style="overflow:visible;"/>
				</clipPath>
				<polygon style="clip-path:url(#XMLID_4_);fill:#B32825;stroke:#000000;stroke-width:0.5788;stroke-miterlimit:10;" points="
					18.711,82.611 57.498,52.986 54.258,48.74 8.325,82.789 				"/>
				<use xlink:href="#XMLID_96_"  style="overflow:visible;fill:none;stroke:#020202;stroke-width:0.5508;stroke-miterlimit:10;"/>
			</g>
			<g style="clip-path:url(#XMLID_2_);">
				<defs>
					<polygon id="XMLID_95_" points="17.494,52.58 13.604,77.877 18.988,77.877 22.965,50.498 					"/>
				</defs>
				<use xlink:href="#XMLID_95_"  style="overflow:visible;fill:#FFFFFF;"/>
				<clipPath id="XMLID_5_">
					<use xlink:href="#XMLID_95_"  style="overflow:visible;"/>
				</clipPath>
				<polygon style="clip-path:url(#XMLID_5_);fill:#B32825;stroke:#000000;stroke-width:0.5788;stroke-miterlimit:10;" points="
					19.545,51.146 15.299,77.516 21.176,77.516 25.516,48.977 				"/>
				<polygon style="clip-path:url(#XMLID_5_);fill:#FFFFFF;stroke:#000000;stroke-width:0.5508;stroke-miterlimit:10;" points="
					21.18,51.146 16.934,77.516 22.811,77.516 27.149,48.977 				"/>
				<use xlink:href="#XMLID_95_"  style="overflow:visible;fill:none;stroke:#000000;stroke-width:0.5508;stroke-miterlimit:10;"/>
			</g>
			<use xlink:href="#XMLID_94_"  style="overflow:visible;fill:none;stroke:#000000;stroke-width:0.5788;stroke-miterlimit:10;"/>
		</g>
		<path style="fill:#FFFFFF;stroke:#000000;stroke-width:0.5508;stroke-miterlimit:10;" d="M25.166,30.945c0,0,0,3.121,0,3.787
			l-2.508,7.484h2.68v7.402c0,0,10.926,2.564,14.16-5.799V28.463C39.498,28.463,27.823,28.768,25.166,30.945z"/>
		<g>
			<defs>
				<path id="XMLID_93_" d="M47.211,32.355c0,0-1.856,3.568,1.139,7.242l0.678,6.363l-5.555,2.096l-9.588-5.652l-1.422-11.701
					l9.535,0.16L47.211,32.355z"/>
			</defs>
			<use xlink:href="#XMLID_93_"  style="overflow:visible;fill:#FFFFFF;"/>
			<clipPath id="XMLID_6_">
				<use xlink:href="#XMLID_93_"  style="overflow:visible;"/>
			</clipPath>
			<path style="clip-path:url(#XMLID_6_);fill:#FFFFFF;stroke:#000000;stroke-width:0.6419;stroke-miterlimit:10;" d="
				M36.146,29.104c-0.211,4.449-2.012,15.938,15.29,17.65c0,0-1.015-4.645-0.238-3.354c0.327,0.555-13.73,0.912-12.386-12.896
				C38.813,30.504,36.508,21.637,36.146,29.104z"/>
			<path style="clip-path:url(#XMLID_6_);fill:#FFFFFF;stroke:#000000;stroke-width:0.6419;stroke-miterlimit:10;" d="
				M38.652,28.334c-0.009,5.348-1.516,14.316,13.051,16.219c0,0-0.668-4.221,0.009-2.979c0.239,0.436-11.477,1.537-10.349-11.156
				C41.363,30.418,38.664,21.174,38.652,28.334z"/>
			<path style="clip-path:url(#XMLID_6_);fill:#FFFFFF;stroke:#000000;stroke-width:0.6419;stroke-miterlimit:10;" d="
				M44.592,30.424c0,0-2.568,9.949,6.785,8.982"/>
			<use xlink:href="#XMLID_93_"  style="overflow:visible;fill:none;stroke:#000000;stroke-width:0.6419;stroke-miterlimit:10;"/>
		</g>
		<path style="fill:none;stroke:#DD5817;stroke-width:0.5426;stroke-miterlimit:10;" d="M39.939,29.553"/>
		<ellipse style="fill:#171717;" cx="27.87" cy="37.279" rx="0.735" ry="0.744"/>
		<path style="fill:#171717;" d="M25.291,44.117C26.82,43.99,29,44.848,29,44.848c0.813,0.633,0.23-1.871-3.289-1.979
			C25.1,42.977,25.291,44.117,25.291,44.117z"/>
		
			<line style="fill:none;stroke:#000000;stroke-width:0.5508;stroke-miterlimit:10;" x1="24.505" y1="42.217" x2="26.646" y2="42.217"/>
		<g>
			<defs>
				<path id="XMLID_92_" d="M6.174,61.922h6.997c0,0,1.811,9.191-6.997,13.557V61.922z"/>
			</defs>
			<use xlink:href="#XMLID_92_"  style="overflow:visible;fill:#FFFFFF;"/>
			<clipPath id="XMLID_7_">
				<use xlink:href="#XMLID_92_"  style="overflow:visible;"/>
			</clipPath>
			<polyline style="clip-path:url(#XMLID_7_);fill:#FFFFFF;stroke:#000000;stroke-width:0.6691;stroke-miterlimit:10;" points="
				4.891,64.846 13.461,64.846 13.461,68.352 5.112,68.352 5.434,72.076 12.485,72.076 11.379,75.057 4.891,75.082 			"/>
			<use xlink:href="#XMLID_92_"  style="overflow:visible;fill:none;stroke:#000000;stroke-width:0.5508;stroke-miterlimit:10;"/>
		</g>
		
			<line style="fill:none;stroke:#000000;stroke-width:0.5401;stroke-miterlimit:10;" x1="27.645" y1="45.633" x2="25.615" y2="45.584"/>
		<path style="fill:#F7CC10;stroke:#020202;stroke-width:0.5508;stroke-miterlimit:10;" d="M43.023,29.689"/>
		<path style="fill:#FFFFFF;stroke:#000000;stroke-width:0.6419;stroke-miterlimit:10;" d="M29.424,27.514
			c0,0-2.303,17.303,13.557,21.285c1.895,0.477,7.67,0.818,8.186-4.707c0.333-3.566-3.481-5.85-6.417-5.246l0.14,2.918
			c0,0,3.182-0.438,3.072,2.352c0,0-0.325,2.412-3.8,1.805c0,0-13.046-2.092-11.751-18.543L29.424,27.514z"/>
		<path style="fill:#020202;stroke:#000000;stroke-width:0.5357;stroke-miterlimit:10;" d="M21.963,24.539l3.068,8.572
			c0,0,10.584-2.752,22.255-0.264l2.109-7.779C49.396,25.068,38.256,19.373,21.963,24.539z"/>
		<path style="fill:#B32825;stroke:#000000;stroke-width:0.5508;stroke-miterlimit:10;" d="M38.674,23.041"/>
		<polygon style="fill:#FFFFFF;stroke:#000000;stroke-width:0.6419;stroke-miterlimit:10;" points="23.58,73.992 26.762,73.992 
			29.865,71.76 26.662,71.76 		"/>
		<polygon style="fill:#FFFFFF;stroke:#000000;stroke-width:0.6419;stroke-miterlimit:10;" points="28.491,70.09 31.673,70.09 
			34.776,67.859 31.573,67.859 		"/>
		<polygon style="fill:#FFFFFF;stroke:#000000;stroke-width:0.6419;stroke-miterlimit:10;" points="33.619,66.398 36.799,66.398 
			39.906,64.168 36.703,64.168 		"/>
		<polygon style="fill:#FFFFFF;stroke:#000000;stroke-width:0.6419;stroke-miterlimit:10;" points="38.532,62.77 41.714,62.77 
			44.817,60.539 41.613,60.539 		"/>
		<polygon style="fill:#FFFFFF;stroke:#000000;stroke-width:0.6419;stroke-miterlimit:10;" points="43.581,59.006 46.484,59.006 
			49.311,57.049 48.331,55.41 		"/>
		<polygon style="stroke:#020202;stroke-width:0.4882;stroke-miterlimit:10;" points="38.875,72.967 49.898,64.982 49.898,72.967 		
			"/>
		<polygon style="fill:#F7CC10;stroke:#020202;stroke-width:0.4712;stroke-miterlimit:10;" points="42.59,71.605 48.533,67.506 
			48.533,71.605 		"/>
		
			<ellipse style="fill:#FFFFFF;stroke:#000000;stroke-width:0.3725;stroke-miterlimit:10;" cx="43.581" cy="51.342" rx="0.834" ry="0.818"/>
		
			<ellipse style="fill:#FFFFFF;stroke:#000000;stroke-width:0.3725;stroke-miterlimit:10;" cx="40.051" cy="54.016" rx="0.834" ry="0.818"/>
		<path style="fill:#FFFFFF;stroke:#000000;stroke-width:0.3725;stroke-miterlimit:10;" d="M37.283,56.715
			c0,0.449-0.375,0.816-0.836,0.816c-0.459,0-0.832-0.367-0.832-0.816c0-0.455,0.373-0.822,0.832-0.822
			C36.908,55.893,37.283,56.26,37.283,56.715z"/>
		
			<ellipse style="fill:#FFFFFF;stroke:#000000;stroke-width:0.3725;stroke-miterlimit:10;" cx="32.365" cy="59.934" rx="0.833" ry="0.82"/>
		
			<ellipse style="fill:#FFFFFF;stroke:#000000;stroke-width:0.3725;stroke-miterlimit:10;" cx="28.076" cy="62.967" rx="0.835" ry="0.818"/>
		<path style="fill:#FFFFFF;stroke:#000000;stroke-width:0.3725;stroke-miterlimit:10;" d="M24.826,66.188
			c0,0.455-0.373,0.82-0.836,0.82c-0.457,0-0.834-0.365-0.834-0.82c0-0.451,0.377-0.818,0.834-0.818
			C24.453,65.369,24.826,65.736,24.826,66.188z"/>
		<g>
			<defs>
				<path id="XMLID_91_" d="M11.721,45.109l-1.828-3.998l-1.981,3.998c0,0-0.192,0.57-0.192,0.898c0,0.119,0,15.631,0,15.631h4.176
					c0-11.451,0-10.881,0-15.631C11.895,45.68,11.721,45.109,11.721,45.109z"/>
			</defs>
			<use xlink:href="#XMLID_91_"  style="overflow:visible;"/>
			<clipPath id="XMLID_8_">
				<use xlink:href="#XMLID_91_"  style="overflow:visible;"/>
			</clipPath>
			<path style="clip-path:url(#XMLID_8_);fill:#FFFFFF;stroke:#020202;stroke-width:0.6096;stroke-miterlimit:10;" d="
				M13.809,36.652l-1.828-5.947l-1.981,5.947c0,0-0.192,0.65-0.192,1.023c0-0.885,0,0.139,0,19.504h4.176c0-14.088,0-14.088,0-18.48
				C13.982,38.326,13.809,36.652,13.809,36.652z"/>
			<use xlink:href="#XMLID_91_"  style="overflow:visible;fill:none;stroke:#020202;stroke-width:0.5708;stroke-miterlimit:10;"/>
		</g>
		<polygon style="fill:#171717;" points="29.434,50.092 29.307,44.693 28.84,44.367 28.845,47.023 25.338,47.023 25.338,49.619 		
			"/>
		<path style="fill:#171717;" d="M33.203,42.613c0,0,0.059,1.295-1.43,3.322c-1.584,2.158-2.556,2.121-2.556,2.121v1.701
			c0,0,5.089-0.43,5.911-4.822"/>
		<path style="fill:#F7CC10;stroke:#020202;stroke-width:0.4345;stroke-miterlimit:10;" d="M51.863,19.514
			c0.041-1.014-0.75-1.873-1.765-1.912c-1.016-0.041-1.871,0.75-1.912,1.764c-0.021,0.51,0.167,0.977,0.486,1.322l-1.501,2.766
			c-0.857-0.209-1.869-0.428-3.018-0.633l-0.206-2.906c0.687-0.305,1.147-1.012,1.091-1.803c-0.072-1.014-0.953-1.777-1.966-1.705
			c-1.015,0.07-1.776,0.951-1.704,1.965c0.035,0.506,0.273,0.951,0.629,1.26l-1.107,2.723c-1.089-0.121-2.25-0.213-3.475-0.268
			l-0.641-2.979c0.638-0.398,0.994-1.162,0.826-1.941c-0.214-0.99-1.192-1.625-2.186-1.412c-0.993,0.215-1.625,1.193-1.412,2.186
			c0.107,0.498,0.405,0.904,0.801,1.16l-0.74,2.953c-1.03,0.025-2.092,0.078-3.182,0.176l-1.117-2.75
			c0.355-0.309,0.594-0.754,0.629-1.26c0.072-1.014-0.689-1.895-1.705-1.965c-1.012-0.072-1.893,0.691-1.965,1.705
			c-0.057,0.793,0.403,1.498,1.09,1.803l-0.203,2.867c-1.151,0.182-2.326,0.41-3.518,0.695l-1.52-2.713
			c0.314-0.35,0.496-0.82,0.467-1.33c-0.055-1.014-0.92-1.793-1.936-1.736c-1.014,0.055-1.793,0.922-1.737,1.938
			c0.043,0.793,0.587,1.436,1.308,1.654l3.478,9.703c0,0,12.922-2.9,23.757-0.018l2.668-9.635
			C51.295,20.961,51.83,20.309,51.863,19.514z"/>
		<polygon style="stroke:#020202;stroke-width:0.3771;stroke-miterlimit:10;" points="14.377,55.893 14.377,57.531 13.324,57.531 
			8.909,57.531 6.044,57.531 6.044,55.893 8.968,55.893 13.324,55.893 		"/>
		<path style="stroke:#020202;stroke-width:0.5708;stroke-miterlimit:10;" d="M12.504,57.531"/>
		<path style="fill:#F7CC10;stroke:#020202;stroke-width:0.4975;stroke-miterlimit:10;" d="M23.819,25.248l1.372,3.611
			c0,0,2.281-0.641,5.137-0.873l-0.361-3.801"/>
		<path style="fill:#F7CC10;stroke:#020202;stroke-width:0.4975;stroke-miterlimit:10;" d="M47.227,24.906l-0.959,3.557
			c0,0-3.42-0.721-5.744-0.914l0.084-3.447"/>
		<polyline style="fill:#F7CC10;stroke:#020202;stroke-width:0.4975;stroke-miterlimit:10;" points="32.051,24.115 32.379,27.721 
			38.443,27.549 38.395,24.043 		"/>
	</g>
	<path style="fill:#171717;" d="M14.73,31.572c-0.283,0-0.551,0.055-0.809,0.137c0.35-0.463,0.568-1.027,0.568-1.65
		c0-1.508-1.223-2.73-2.732-2.73c-1.508,0-2.729,1.223-2.729,2.73c0,0.623,0.215,1.188,0.564,1.646
		c-0.256-0.078-0.523-0.133-0.807-0.133c-1.506,0-2.73,1.223-2.73,2.73s1.225,2.73,2.73,2.73c0.779,0,1.473-0.332,1.969-0.852
		c-0.121,0.992-0.396,2.75-0.85,3.094h3.705c-0.455-0.344-0.729-2.102-0.852-3.094c0.498,0.52,1.193,0.852,1.971,0.852
		c1.506,0,2.73-1.223,2.73-2.73S16.236,31.572,14.73,31.572z"/>
</g>
</svg>
