<?xml version="1.0" encoding="iso-8859-1"?>
<!-- Generator: Adobe Illustrator 16.0.0, SVG Export Plug-In . SVG Version: 6.00 Build 0)  -->
<!DOCTYPE svg PUBLIC "-//W3C//DTD SVG 1.1//EN" "http://www.w3.org/Graphics/SVG/1.1/DTD/svg11.dtd">
<svg version="1.1" id="Layer_1" xmlns="http://www.w3.org/2000/svg" xmlns:xlink="http://www.w3.org/1999/xlink" x="0px" y="0px"
	 width="58.203px" height="81.107px" viewBox="0 0 58.203 81.107" style="enable-background:new 0 0 58.203 81.107;"
	 xml:space="preserve">
<g>
	<g>
		<path style="fill-rule:evenodd;clip-rule:evenodd;fill:#FAFAFA;" d="M0.209,3.803c0-1.977,1.617-3.593,3.593-3.593h50.599
			c1.976,0,3.593,1.616,3.593,3.593v73.502c0,1.977-1.617,3.593-3.593,3.593H3.802c-1.976,0-3.593-1.616-3.593-3.593V3.803z"/>
		<path style="fill:none;stroke:#CCCCCC;stroke-width:0.4191;stroke-miterlimit:3.8637;" d="M0.209,3.803
			c0-1.977,1.617-3.593,3.593-3.593h50.599c1.976,0,3.593,1.616,3.593,3.593v73.502c0,1.977-1.617,3.593-3.593,3.593H3.802
			c-1.976,0-3.593-1.616-3.593-3.593V3.803z"/>
	</g>
	<g>
		<path style="fill-rule:evenodd;clip-rule:evenodd;fill:none;stroke:#99D2D4;stroke-width:0.5899;stroke-miterlimit:3.8637;" d="
			M3.604,8.28c0-2.438,2.005-4.412,4.479-4.412H50.12c2.473,0,4.479,1.975,4.479,4.412v64.546c0,2.437-2.005,4.412-4.479,4.412
			H8.083c-2.473,0-4.479-1.976-4.479-4.412V8.28z"/>
		<polygon style="fill:#FFE7B5;stroke:#99D2D4;stroke-width:0.5899;stroke-miterlimit:3.8637;" points="7.599,5.827 9.527,8.56 
			7.579,11.175 5.612,8.54 		"/>
		<polygon style="fill:#FFE7B5;stroke:#99D2D4;stroke-width:0.5899;stroke-miterlimit:3.8637;" points="15.429,5.827 17.357,8.56 
			15.409,11.175 13.442,8.54 		"/>
		<polygon style="fill:#99EBFF;stroke:#99D2D4;stroke-width:0.5899;stroke-miterlimit:3.8637;" points="11.513,5.827 13.442,8.56 
			11.494,11.175 9.527,8.54 		"/>
		<polygon style="fill:#99EBFF;stroke:#99D2D4;stroke-width:0.5899;stroke-miterlimit:3.8637;" points="19.344,5.827 21.272,8.56 
			19.324,11.175 17.357,8.54 		"/>
		<polygon style="fill:#99EBFF;stroke:#99D2D4;stroke-width:0.5899;stroke-miterlimit:3.8637;" points="27.174,5.827 29.102,8.56 
			27.154,11.175 25.187,8.54 		"/>
		<polygon style="fill:#FFE7B5;stroke:#99D2D4;stroke-width:0.5899;stroke-miterlimit:3.8637;" points="23.259,5.827 25.187,8.56 
			23.238,11.175 21.272,8.54 		"/>
		<polygon style="fill:#FFE7B5;stroke:#99D2D4;stroke-width:0.5899;stroke-miterlimit:3.8637;" points="31.089,5.827 33.017,8.56 
			31.068,11.175 29.102,8.54 		"/>
		<polygon style="fill:#99EBFF;stroke:#99D2D4;stroke-width:0.5899;stroke-miterlimit:3.8637;" points="35.003,5.827 36.931,8.56 
			34.984,11.175 33.017,8.54 		"/>
		<polygon style="fill:#99EBFF;stroke:#99D2D4;stroke-width:0.5899;stroke-miterlimit:3.8637;" points="42.833,5.827 44.761,8.56 
			42.814,11.175 40.847,8.54 		"/>
		<polygon style="fill:#FFE7B5;stroke:#99D2D4;stroke-width:0.5899;stroke-miterlimit:3.8637;" points="38.919,5.827 40.847,8.56 
			38.899,11.175 36.931,8.54 		"/>
		<polygon style="fill:#99EBFF;stroke:#99D2D4;stroke-width:0.5899;stroke-miterlimit:3.8637;" points="50.664,5.827 52.591,8.56 
			50.643,11.175 48.677,8.54 		"/>
		<polygon style="fill:#FFE7B5;stroke:#99D2D4;stroke-width:0.5899;stroke-miterlimit:3.8637;" points="46.749,5.827 48.677,8.56 
			46.729,11.175 44.761,8.54 		"/>
		<polygon style="fill:#99EBFF;stroke:#99D2D4;stroke-width:0.5899;stroke-miterlimit:3.8637;" points="7.599,11.175 9.527,13.906 
			7.579,16.522 5.612,13.889 		"/>
		<polygon style="fill:#99EBFF;stroke:#99D2D4;stroke-width:0.5899;stroke-miterlimit:3.8637;" points="15.429,11.175 
			17.357,13.906 15.409,16.522 13.442,13.889 		"/>
		<polygon style="fill:#FFE7B5;stroke:#99D2D4;stroke-width:0.5899;stroke-miterlimit:3.8637;" points="11.513,11.175 
			13.442,13.906 11.494,16.522 9.527,13.889 		"/>
		<polygon style="fill:#FFE7B5;stroke:#99D2D4;stroke-width:0.5899;stroke-miterlimit:3.8637;" points="19.344,11.175 
			21.272,13.906 19.324,16.522 17.357,13.889 		"/>
		<polygon style="fill:#FFE7B5;stroke:#99D2D4;stroke-width:0.5899;stroke-miterlimit:3.8637;" points="27.174,11.175 
			29.102,13.906 27.154,16.522 25.187,13.889 		"/>
		<polygon style="fill:#99EBFF;stroke:#99D2D4;stroke-width:0.5899;stroke-miterlimit:3.8637;" points="23.259,11.175 
			25.187,13.906 23.238,16.522 21.272,13.889 		"/>
		<polygon style="fill:#99EBFF;stroke:#99D2D4;stroke-width:0.5899;stroke-miterlimit:3.8637;" points="31.089,11.175 
			33.017,13.906 31.068,16.522 29.102,13.889 		"/>
		<polygon style="fill:#FFE7B5;stroke:#99D2D4;stroke-width:0.5899;stroke-miterlimit:3.8637;" points="35.003,11.175 
			36.931,13.906 34.984,16.522 33.017,13.889 		"/>
		<polygon style="fill:#FFE7B5;stroke:#99D2D4;stroke-width:0.5899;stroke-miterlimit:3.8637;" points="42.833,11.175 
			44.761,13.906 42.814,16.522 40.847,13.889 		"/>
		<polygon style="fill:#99EBFF;stroke:#99D2D4;stroke-width:0.5899;stroke-miterlimit:3.8637;" points="38.919,11.175 
			40.847,13.906 38.899,16.522 36.931,13.889 		"/>
		<polygon style="fill:#FFE7B5;stroke:#99D2D4;stroke-width:0.5899;stroke-miterlimit:3.8637;" points="50.664,11.175 
			52.591,13.906 50.643,16.522 48.677,13.889 		"/>
		<polygon style="fill:#99EBFF;stroke:#99D2D4;stroke-width:0.5899;stroke-miterlimit:3.8637;" points="46.749,11.175 
			48.677,13.906 46.729,16.522 44.761,13.889 		"/>
		<polygon style="fill:#FFE7B5;stroke:#99D2D4;stroke-width:0.5899;stroke-miterlimit:3.8637;" points="7.599,16.522 9.527,19.255 
			7.579,21.87 5.612,19.236 		"/>
		<polygon style="fill:#FFE7B5;stroke:#99D2D4;stroke-width:0.5899;stroke-miterlimit:3.8637;" points="15.429,16.522 
			17.357,19.255 15.409,21.87 13.442,19.236 		"/>
		<polygon style="fill:#99EBFF;stroke:#99D2D4;stroke-width:0.5899;stroke-miterlimit:3.8637;" points="11.513,16.522 
			13.442,19.255 11.494,21.87 9.527,19.236 		"/>
		<polygon style="fill:#99EBFF;stroke:#99D2D4;stroke-width:0.5899;stroke-miterlimit:3.8637;" points="19.344,16.522 
			21.272,19.255 19.324,21.87 17.357,19.236 		"/>
		<polygon style="fill:#99EBFF;stroke:#99D2D4;stroke-width:0.5899;stroke-miterlimit:3.8637;" points="27.174,16.522 
			29.102,19.255 27.154,21.87 25.187,19.236 		"/>
		<polygon style="fill:#FFE7B5;stroke:#99D2D4;stroke-width:0.5899;stroke-miterlimit:3.8637;" points="23.259,16.522 
			25.187,19.255 23.238,21.87 21.272,19.236 		"/>
		<polygon style="fill:#FFE7B5;stroke:#99D2D4;stroke-width:0.5899;stroke-miterlimit:3.8637;" points="31.089,16.522 
			33.017,19.255 31.068,21.87 29.102,19.236 		"/>
		<polygon style="fill:#99EBFF;stroke:#99D2D4;stroke-width:0.5899;stroke-miterlimit:3.8637;" points="35.003,16.522 
			36.931,19.255 34.984,21.87 33.017,19.236 		"/>
		<polygon style="fill:#99EBFF;stroke:#99D2D4;stroke-width:0.5899;stroke-miterlimit:3.8637;" points="42.833,16.522 
			44.761,19.255 42.814,21.87 40.847,19.236 		"/>
		<polygon style="fill:#FFE7B5;stroke:#99D2D4;stroke-width:0.5899;stroke-miterlimit:3.8637;" points="38.919,16.522 
			40.847,19.255 38.899,21.87 36.931,19.236 		"/>
		<polygon style="fill:#99EBFF;stroke:#99D2D4;stroke-width:0.5899;stroke-miterlimit:3.8637;" points="50.664,16.522 
			52.591,19.255 50.643,21.87 48.677,19.236 		"/>
		<polygon style="fill:#FFE7B5;stroke:#99D2D4;stroke-width:0.5899;stroke-miterlimit:3.8637;" points="46.749,16.522 
			48.677,19.255 46.729,21.87 44.761,19.236 		"/>
		<polygon style="fill:#99EBFF;stroke:#99D2D4;stroke-width:0.5899;stroke-miterlimit:3.8637;" points="7.599,21.87 9.527,24.603 
			7.579,27.217 5.612,24.583 		"/>
		<polygon style="fill:#99EBFF;stroke:#99D2D4;stroke-width:0.5899;stroke-miterlimit:3.8637;" points="15.429,21.87 17.357,24.603 
			15.409,27.217 13.442,24.583 		"/>
		<polygon style="fill:#FFE7B5;stroke:#99D2D4;stroke-width:0.5899;stroke-miterlimit:3.8637;" points="11.513,21.87 13.442,24.603 
			11.494,27.217 9.527,24.583 		"/>
		<polygon style="fill:#FFE7B5;stroke:#99D2D4;stroke-width:0.5899;stroke-miterlimit:3.8637;" points="19.344,21.87 21.272,24.603 
			19.324,27.217 17.357,24.583 		"/>
		<polygon style="fill:#FFE7B5;stroke:#99D2D4;stroke-width:0.5899;stroke-miterlimit:3.8637;" points="27.174,21.87 29.102,24.603 
			27.154,27.217 25.187,24.583 		"/>
		<polygon style="fill:#99EBFF;stroke:#99D2D4;stroke-width:0.5899;stroke-miterlimit:3.8637;" points="23.259,21.87 25.187,24.603 
			23.238,27.217 21.272,24.583 		"/>
		<polygon style="fill:#99EBFF;stroke:#99D2D4;stroke-width:0.5899;stroke-miterlimit:3.8637;" points="31.089,21.87 33.017,24.603 
			31.068,27.217 29.102,24.583 		"/>
		<polygon style="fill:#FFE7B5;stroke:#99D2D4;stroke-width:0.5899;stroke-miterlimit:3.8637;" points="35.003,21.87 36.931,24.603 
			34.984,27.217 33.017,24.583 		"/>
		<polygon style="fill:#FFE7B5;stroke:#99D2D4;stroke-width:0.5899;stroke-miterlimit:3.8637;" points="42.833,21.87 44.761,24.603 
			42.814,27.217 40.847,24.583 		"/>
		<polygon style="fill:#99EBFF;stroke:#99D2D4;stroke-width:0.5899;stroke-miterlimit:3.8637;" points="38.919,21.87 40.847,24.603 
			38.899,27.217 36.931,24.583 		"/>
		<polygon style="fill:#FFE7B5;stroke:#99D2D4;stroke-width:0.5899;stroke-miterlimit:3.8637;" points="50.664,21.87 52.591,24.603 
			50.643,27.217 48.677,24.583 		"/>
		<polygon style="fill:#99EBFF;stroke:#99D2D4;stroke-width:0.5899;stroke-miterlimit:3.8637;" points="46.749,21.87 48.677,24.603 
			46.729,27.217 44.761,24.583 		"/>
		<polygon style="fill:#FFE7B5;stroke:#99D2D4;stroke-width:0.5899;stroke-miterlimit:3.8637;" points="7.599,27.217 9.527,29.95 
			7.579,32.565 5.612,29.931 		"/>
		<polygon style="fill:#FFE7B5;stroke:#99D2D4;stroke-width:0.5899;stroke-miterlimit:3.8637;" points="15.429,27.217 17.357,29.95 
			15.409,32.565 13.442,29.931 		"/>
		<polygon style="fill:#99EBFF;stroke:#99D2D4;stroke-width:0.5899;stroke-miterlimit:3.8637;" points="11.513,27.217 13.442,29.95 
			11.494,32.565 9.527,29.931 		"/>
		<polygon style="fill:#99EBFF;stroke:#99D2D4;stroke-width:0.5899;stroke-miterlimit:3.8637;" points="19.344,27.217 21.272,29.95 
			19.324,32.565 17.357,29.931 		"/>
		<polygon style="fill:#99EBFF;stroke:#99D2D4;stroke-width:0.5899;stroke-miterlimit:3.8637;" points="27.174,27.217 29.102,29.95 
			27.154,32.565 25.187,29.931 		"/>
		<polygon style="fill:#FFE7B5;stroke:#99D2D4;stroke-width:0.5899;stroke-miterlimit:3.8637;" points="23.259,27.217 25.187,29.95 
			23.238,32.565 21.272,29.931 		"/>
		<polygon style="fill:#FFE7B5;stroke:#99D2D4;stroke-width:0.5899;stroke-miterlimit:3.8637;" points="31.089,27.217 33.017,29.95 
			31.068,32.565 29.102,29.931 		"/>
		<polygon style="fill:#99EBFF;stroke:#99D2D4;stroke-width:0.5899;stroke-miterlimit:3.8637;" points="35.003,27.217 36.931,29.95 
			34.984,32.565 33.017,29.931 		"/>
		<polygon style="fill:#99EBFF;stroke:#99D2D4;stroke-width:0.5899;stroke-miterlimit:3.8637;" points="42.833,27.217 44.761,29.95 
			42.814,32.565 40.847,29.931 		"/>
		<polygon style="fill:#FFE7B5;stroke:#99D2D4;stroke-width:0.5899;stroke-miterlimit:3.8637;" points="38.919,27.217 40.847,29.95 
			38.899,32.565 36.931,29.931 		"/>
		<polygon style="fill:#99EBFF;stroke:#99D2D4;stroke-width:0.5899;stroke-miterlimit:3.8637;" points="50.664,27.217 52.591,29.95 
			50.643,32.565 48.677,29.931 		"/>
		<polygon style="fill:#FFE7B5;stroke:#99D2D4;stroke-width:0.5899;stroke-miterlimit:3.8637;" points="46.749,27.217 48.677,29.95 
			46.729,32.565 44.761,29.931 		"/>
		<polygon style="fill:#99EBFF;stroke:#99D2D4;stroke-width:0.5899;stroke-miterlimit:3.8637;" points="7.599,32.565 9.527,35.297 
			7.579,37.913 5.612,35.277 		"/>
		<polygon style="fill:#99EBFF;stroke:#99D2D4;stroke-width:0.5899;stroke-miterlimit:3.8637;" points="15.429,32.565 
			17.357,35.297 15.409,37.913 13.442,35.277 		"/>
		<polygon style="fill:#FFE7B5;stroke:#99D2D4;stroke-width:0.5899;stroke-miterlimit:3.8637;" points="11.513,32.565 
			13.442,35.297 11.494,37.913 9.527,35.277 		"/>
		<polygon style="fill:#FFE7B5;stroke:#99D2D4;stroke-width:0.5899;stroke-miterlimit:3.8637;" points="19.344,32.565 
			21.272,35.297 19.324,37.913 17.357,35.277 		"/>
		<polygon style="fill:#FFE7B5;stroke:#99D2D4;stroke-width:0.5899;stroke-miterlimit:3.8637;" points="27.174,32.565 
			29.102,35.297 27.154,37.913 25.187,35.277 		"/>
		<polygon style="fill:#99EBFF;stroke:#99D2D4;stroke-width:0.5899;stroke-miterlimit:3.8637;" points="23.259,32.565 
			25.187,35.297 23.238,37.913 21.272,35.277 		"/>
		<polygon style="fill:#99EBFF;stroke:#99D2D4;stroke-width:0.5899;stroke-miterlimit:3.8637;" points="31.089,32.565 
			33.017,35.297 31.068,37.913 29.102,35.277 		"/>
		<polygon style="fill:#FFE7B5;stroke:#99D2D4;stroke-width:0.5899;stroke-miterlimit:3.8637;" points="35.003,32.565 
			36.931,35.297 34.984,37.913 33.017,35.277 		"/>
		<polygon style="fill:#FFE7B5;stroke:#99D2D4;stroke-width:0.5899;stroke-miterlimit:3.8637;" points="42.833,32.565 
			44.761,35.297 42.814,37.913 40.847,35.277 		"/>
		<polygon style="fill:#99EBFF;stroke:#99D2D4;stroke-width:0.5899;stroke-miterlimit:3.8637;" points="38.919,32.565 
			40.847,35.297 38.899,37.913 36.931,35.277 		"/>
		<polygon style="fill:#FFE7B5;stroke:#99D2D4;stroke-width:0.5899;stroke-miterlimit:3.8637;" points="50.664,32.565 
			52.591,35.297 50.643,37.913 48.677,35.277 		"/>
		<polygon style="fill:#99EBFF;stroke:#99D2D4;stroke-width:0.5899;stroke-miterlimit:3.8637;" points="46.749,32.565 
			48.677,35.297 46.729,37.913 44.761,35.277 		"/>
		<polygon style="fill:#FFE7B5;stroke:#99D2D4;stroke-width:0.5899;stroke-miterlimit:3.8637;" points="7.599,37.913 9.527,40.645 
			7.579,43.261 5.612,40.626 		"/>
		<polygon style="fill:#FFE7B5;stroke:#99D2D4;stroke-width:0.5899;stroke-miterlimit:3.8637;" points="15.429,37.913 
			17.357,40.645 15.409,43.261 13.442,40.626 		"/>
		<polygon style="fill:#99EBFF;stroke:#99D2D4;stroke-width:0.5899;stroke-miterlimit:3.8637;" points="11.513,37.913 
			13.442,40.645 11.494,43.261 9.527,40.626 		"/>
		<polygon style="fill:#99EBFF;stroke:#99D2D4;stroke-width:0.5899;stroke-miterlimit:3.8637;" points="19.344,37.913 
			21.272,40.645 19.324,43.261 17.357,40.626 		"/>
		<polygon style="fill:#99EBFF;stroke:#99D2D4;stroke-width:0.5899;stroke-miterlimit:3.8637;" points="27.174,37.913 
			29.102,40.645 27.154,43.261 25.187,40.626 		"/>
		<polygon style="fill:#FFE7B5;stroke:#99D2D4;stroke-width:0.5899;stroke-miterlimit:3.8637;" points="23.259,37.913 
			25.187,40.645 23.238,43.261 21.272,40.626 		"/>
		<polygon style="fill:#FFE7B5;stroke:#99D2D4;stroke-width:0.5899;stroke-miterlimit:3.8637;" points="31.089,37.913 
			33.017,40.645 31.068,43.261 29.102,40.626 		"/>
		<polygon style="fill:#99EBFF;stroke:#99D2D4;stroke-width:0.5899;stroke-miterlimit:3.8637;" points="35.003,37.913 
			36.931,40.645 34.984,43.261 33.017,40.626 		"/>
		<polygon style="fill:#99EBFF;stroke:#99D2D4;stroke-width:0.5899;stroke-miterlimit:3.8637;" points="42.833,37.913 
			44.761,40.645 42.814,43.261 40.847,40.626 		"/>
		<polygon style="fill:#FFE7B5;stroke:#99D2D4;stroke-width:0.5899;stroke-miterlimit:3.8637;" points="38.919,37.913 
			40.847,40.645 38.899,43.261 36.931,40.626 		"/>
		<polygon style="fill:#99EBFF;stroke:#99D2D4;stroke-width:0.5899;stroke-miterlimit:3.8637;" points="50.664,37.913 
			52.591,40.645 50.643,43.261 48.677,40.626 		"/>
		<polygon style="fill:#FFE7B5;stroke:#99D2D4;stroke-width:0.5899;stroke-miterlimit:3.8637;" points="46.749,37.913 
			48.677,40.645 46.729,43.261 44.761,40.626 		"/>
		<polygon style="fill:#99EBFF;stroke:#99D2D4;stroke-width:0.5899;stroke-miterlimit:3.8637;" points="7.599,43.261 9.527,45.992 
			7.579,48.607 5.612,45.974 		"/>
		<polygon style="fill:#99EBFF;stroke:#99D2D4;stroke-width:0.5899;stroke-miterlimit:3.8637;" points="15.429,43.261 
			17.357,45.992 15.409,48.607 13.442,45.974 		"/>
		<polygon style="fill:#FFE7B5;stroke:#99D2D4;stroke-width:0.5899;stroke-miterlimit:3.8637;" points="11.513,43.261 
			13.442,45.992 11.494,48.607 9.527,45.974 		"/>
		<polygon style="fill:#FFE7B5;stroke:#99D2D4;stroke-width:0.5899;stroke-miterlimit:3.8637;" points="19.344,43.261 
			21.272,45.992 19.324,48.607 17.357,45.974 		"/>
		<polygon style="fill:#FFE7B5;stroke:#99D2D4;stroke-width:0.5899;stroke-miterlimit:3.8637;" points="27.174,43.261 
			29.102,45.992 27.154,48.607 25.187,45.974 		"/>
		<polygon style="fill:#99EBFF;stroke:#99D2D4;stroke-width:0.5899;stroke-miterlimit:3.8637;" points="23.259,43.261 
			25.187,45.992 23.238,48.607 21.272,45.974 		"/>
		<polygon style="fill:#99EBFF;stroke:#99D2D4;stroke-width:0.5899;stroke-miterlimit:3.8637;" points="31.089,43.261 
			33.017,45.992 31.068,48.607 29.102,45.974 		"/>
		<polygon style="fill:#FFE7B5;stroke:#99D2D4;stroke-width:0.5899;stroke-miterlimit:3.8637;" points="35.003,43.261 
			36.931,45.992 34.984,48.607 33.017,45.974 		"/>
		<polygon style="fill:#FFE7B5;stroke:#99D2D4;stroke-width:0.5899;stroke-miterlimit:3.8637;" points="42.833,43.261 
			44.761,45.992 42.814,48.607 40.847,45.974 		"/>
		<polygon style="fill:#99EBFF;stroke:#99D2D4;stroke-width:0.5899;stroke-miterlimit:3.8637;" points="38.919,43.261 
			40.847,45.992 38.899,48.607 36.931,45.974 		"/>
		<polygon style="fill:#FFE7B5;stroke:#99D2D4;stroke-width:0.5899;stroke-miterlimit:3.8637;" points="50.664,43.261 
			52.591,45.992 50.643,48.607 48.677,45.974 		"/>
		<polygon style="fill:#99EBFF;stroke:#99D2D4;stroke-width:0.5899;stroke-miterlimit:3.8637;" points="46.749,43.261 
			48.677,45.992 46.729,48.607 44.761,45.974 		"/>
		<polygon style="fill:#FFE7B5;stroke:#99D2D4;stroke-width:0.5899;stroke-miterlimit:3.8637;" points="7.599,48.607 9.527,51.34 
			7.579,53.955 5.612,51.32 		"/>
		<polygon style="fill:#FFE7B5;stroke:#99D2D4;stroke-width:0.5899;stroke-miterlimit:3.8637;" points="15.429,48.607 17.357,51.34 
			15.409,53.955 13.442,51.32 		"/>
		<polygon style="fill:#99EBFF;stroke:#99D2D4;stroke-width:0.5899;stroke-miterlimit:3.8637;" points="11.513,48.607 13.442,51.34 
			11.494,53.955 9.527,51.32 		"/>
		<polygon style="fill:#99EBFF;stroke:#99D2D4;stroke-width:0.5899;stroke-miterlimit:3.8637;" points="19.344,48.607 21.272,51.34 
			19.324,53.955 17.357,51.32 		"/>
		<polygon style="fill:#99EBFF;stroke:#99D2D4;stroke-width:0.5899;stroke-miterlimit:3.8637;" points="27.174,48.607 29.102,51.34 
			27.154,53.955 25.187,51.32 		"/>
		<polygon style="fill:#FFE7B5;stroke:#99D2D4;stroke-width:0.5899;stroke-miterlimit:3.8637;" points="23.259,48.607 25.187,51.34 
			23.238,53.955 21.272,51.32 		"/>
		<polygon style="fill:#FFE7B5;stroke:#99D2D4;stroke-width:0.5899;stroke-miterlimit:3.8637;" points="31.089,48.607 33.017,51.34 
			31.068,53.955 29.102,51.32 		"/>
		<polygon style="fill:#99EBFF;stroke:#99D2D4;stroke-width:0.5899;stroke-miterlimit:3.8637;" points="35.003,48.607 36.931,51.34 
			34.984,53.955 33.017,51.32 		"/>
		<polygon style="fill:#99EBFF;stroke:#99D2D4;stroke-width:0.5899;stroke-miterlimit:3.8637;" points="42.833,48.607 44.761,51.34 
			42.814,53.955 40.847,51.32 		"/>
		<polygon style="fill:#FFE7B5;stroke:#99D2D4;stroke-width:0.5899;stroke-miterlimit:3.8637;" points="38.919,48.607 40.847,51.34 
			38.899,53.955 36.931,51.32 		"/>
		<polygon style="fill:#99EBFF;stroke:#99D2D4;stroke-width:0.5899;stroke-miterlimit:3.8637;" points="50.664,48.607 52.591,51.34 
			50.643,53.955 48.677,51.32 		"/>
		<polygon style="fill:#FFE7B5;stroke:#99D2D4;stroke-width:0.5899;stroke-miterlimit:3.8637;" points="46.749,48.607 48.677,51.34 
			46.729,53.955 44.761,51.32 		"/>
		<polygon style="fill:#99EBFF;stroke:#99D2D4;stroke-width:0.5899;stroke-miterlimit:3.8637;" points="7.599,53.955 9.527,56.688 
			7.579,59.303 5.612,56.668 		"/>
		<polygon style="fill:#99EBFF;stroke:#99D2D4;stroke-width:0.5899;stroke-miterlimit:3.8637;" points="15.429,53.955 
			17.357,56.688 15.409,59.303 13.442,56.668 		"/>
		<polygon style="fill:#FFE7B5;stroke:#99D2D4;stroke-width:0.5899;stroke-miterlimit:3.8637;" points="11.513,53.955 
			13.442,56.688 11.494,59.303 9.527,56.668 		"/>
		<polygon style="fill:#FFE7B5;stroke:#99D2D4;stroke-width:0.5899;stroke-miterlimit:3.8637;" points="19.344,53.955 
			21.272,56.688 19.324,59.303 17.357,56.668 		"/>
		<polygon style="fill:#FFE7B5;stroke:#99D2D4;stroke-width:0.5899;stroke-miterlimit:3.8637;" points="27.174,53.955 
			29.102,56.688 27.154,59.303 25.187,56.668 		"/>
		<polygon style="fill:#99EBFF;stroke:#99D2D4;stroke-width:0.5899;stroke-miterlimit:3.8637;" points="23.259,53.955 
			25.187,56.688 23.238,59.303 21.272,56.668 		"/>
		<polygon style="fill:#99EBFF;stroke:#99D2D4;stroke-width:0.5899;stroke-miterlimit:3.8637;" points="31.089,53.955 
			33.017,56.688 31.068,59.303 29.102,56.668 		"/>
		<polygon style="fill:#FFE7B5;stroke:#99D2D4;stroke-width:0.5899;stroke-miterlimit:3.8637;" points="35.003,53.955 
			36.931,56.688 34.984,59.303 33.017,56.668 		"/>
		<polygon style="fill:#FFE7B5;stroke:#99D2D4;stroke-width:0.5899;stroke-miterlimit:3.8637;" points="42.833,53.955 
			44.761,56.688 42.814,59.303 40.847,56.668 		"/>
		<polygon style="fill:#99EBFF;stroke:#99D2D4;stroke-width:0.5899;stroke-miterlimit:3.8637;" points="38.919,53.955 
			40.847,56.688 38.899,59.303 36.931,56.668 		"/>
		<polygon style="fill:#FFE7B5;stroke:#99D2D4;stroke-width:0.5899;stroke-miterlimit:3.8637;" points="50.664,53.955 
			52.591,56.688 50.643,59.303 48.677,56.668 		"/>
		<polygon style="fill:#99EBFF;stroke:#99D2D4;stroke-width:0.5899;stroke-miterlimit:3.8637;" points="46.749,53.955 
			48.677,56.688 46.729,59.303 44.761,56.668 		"/>
		<polygon style="fill:#FFE7B5;stroke:#99D2D4;stroke-width:0.5899;stroke-miterlimit:3.8637;" points="7.599,59.303 9.527,62.035 
			7.579,64.65 5.612,62.016 		"/>
		<polygon style="fill:#FFE7B5;stroke:#99D2D4;stroke-width:0.5899;stroke-miterlimit:3.8637;" points="15.429,59.303 
			17.357,62.035 15.409,64.65 13.442,62.016 		"/>
		<polygon style="fill:#99EBFF;stroke:#99D2D4;stroke-width:0.5899;stroke-miterlimit:3.8637;" points="11.513,59.303 
			13.442,62.035 11.494,64.65 9.527,62.016 		"/>
		<polygon style="fill:#99EBFF;stroke:#99D2D4;stroke-width:0.5899;stroke-miterlimit:3.8637;" points="19.344,59.303 
			21.272,62.035 19.324,64.65 17.357,62.016 		"/>
		<polygon style="fill:#99EBFF;stroke:#99D2D4;stroke-width:0.5899;stroke-miterlimit:3.8637;" points="27.174,59.303 
			29.102,62.035 27.154,64.65 25.187,62.016 		"/>
		<polygon style="fill:#FFE7B5;stroke:#99D2D4;stroke-width:0.5899;stroke-miterlimit:3.8637;" points="23.259,59.303 
			25.187,62.035 23.238,64.65 21.272,62.016 		"/>
		<polygon style="fill:#FFE7B5;stroke:#99D2D4;stroke-width:0.5899;stroke-miterlimit:3.8637;" points="31.089,59.303 
			33.017,62.035 31.068,64.65 29.102,62.016 		"/>
		<polygon style="fill:#99EBFF;stroke:#99D2D4;stroke-width:0.5899;stroke-miterlimit:3.8637;" points="35.003,59.303 
			36.931,62.035 34.984,64.65 33.017,62.016 		"/>
		<polygon style="fill:#99EBFF;stroke:#99D2D4;stroke-width:0.5899;stroke-miterlimit:3.8637;" points="42.833,59.303 
			44.761,62.035 42.814,64.65 40.847,62.016 		"/>
		<polygon style="fill:#FFE7B5;stroke:#99D2D4;stroke-width:0.5899;stroke-miterlimit:3.8637;" points="38.919,59.303 
			40.847,62.035 38.899,64.65 36.931,62.016 		"/>
		<polygon style="fill:#99EBFF;stroke:#99D2D4;stroke-width:0.5899;stroke-miterlimit:3.8637;" points="50.664,59.303 
			52.591,62.035 50.643,64.65 48.677,62.016 		"/>
		<polygon style="fill:#FFE7B5;stroke:#99D2D4;stroke-width:0.5899;stroke-miterlimit:3.8637;" points="46.749,59.303 
			48.677,62.035 46.729,64.65 44.761,62.016 		"/>
		<polygon style="fill:#99EBFF;stroke:#99D2D4;stroke-width:0.5899;stroke-miterlimit:3.8637;" points="7.599,64.65 9.527,67.383 
			7.579,69.999 5.612,67.364 		"/>
		<polygon style="fill:#99EBFF;stroke:#99D2D4;stroke-width:0.5899;stroke-miterlimit:3.8637;" points="15.429,64.65 17.357,67.383 
			15.409,69.999 13.442,67.364 		"/>
		<polygon style="fill:#FFE7B5;stroke:#99D2D4;stroke-width:0.5899;stroke-miterlimit:3.8637;" points="11.513,64.65 13.442,67.383 
			11.494,69.999 9.527,67.364 		"/>
		<polygon style="fill:#FFE7B5;stroke:#99D2D4;stroke-width:0.5899;stroke-miterlimit:3.8637;" points="19.344,64.65 21.272,67.383 
			19.324,69.999 17.357,67.364 		"/>
		<polygon style="fill:#FFE7B5;stroke:#99D2D4;stroke-width:0.5899;stroke-miterlimit:3.8637;" points="27.174,64.65 29.102,67.383 
			27.154,69.999 25.187,67.364 		"/>
		<polygon style="fill:#99EBFF;stroke:#99D2D4;stroke-width:0.5899;stroke-miterlimit:3.8637;" points="23.259,64.65 25.187,67.383 
			23.238,69.999 21.272,67.364 		"/>
		<polygon style="fill:#99EBFF;stroke:#99D2D4;stroke-width:0.5899;stroke-miterlimit:3.8637;" points="31.089,64.65 33.017,67.383 
			31.068,69.999 29.102,67.364 		"/>
		<polygon style="fill:#FFE7B5;stroke:#99D2D4;stroke-width:0.5899;stroke-miterlimit:3.8637;" points="35.003,64.65 36.931,67.383 
			34.984,69.999 33.017,67.364 		"/>
		<polygon style="fill:#FFE7B5;stroke:#99D2D4;stroke-width:0.5899;stroke-miterlimit:3.8637;" points="42.833,64.65 44.761,67.383 
			42.814,69.999 40.847,67.364 		"/>
		<polygon style="fill:#99EBFF;stroke:#99D2D4;stroke-width:0.5899;stroke-miterlimit:3.8637;" points="38.919,64.65 40.847,67.383 
			38.899,69.999 36.931,67.364 		"/>
		<polygon style="fill:#FFE7B5;stroke:#99D2D4;stroke-width:0.5899;stroke-miterlimit:3.8637;" points="50.664,64.65 52.591,67.383 
			50.643,69.999 48.677,67.364 		"/>
		<polygon style="fill:#99EBFF;stroke:#99D2D4;stroke-width:0.5899;stroke-miterlimit:3.8637;" points="46.749,64.65 48.677,67.383 
			46.729,69.999 44.761,67.364 		"/>
		<polygon style="fill:#FFE7B5;stroke:#99D2D4;stroke-width:0.5899;stroke-miterlimit:3.8637;" points="7.599,69.999 9.527,72.729 
			7.579,75.346 5.612,72.711 		"/>
		<polygon style="fill:#FFE7B5;stroke:#99D2D4;stroke-width:0.5899;stroke-miterlimit:3.8637;" points="15.429,69.999 
			17.357,72.729 15.409,75.346 13.442,72.711 		"/>
		<polygon style="fill:#99EBFF;stroke:#99D2D4;stroke-width:0.5899;stroke-miterlimit:3.8637;" points="11.513,69.999 
			13.442,72.729 11.494,75.346 9.527,72.711 		"/>
		<polygon style="fill:#99EBFF;stroke:#99D2D4;stroke-width:0.5899;stroke-miterlimit:3.8637;" points="19.344,69.999 
			21.272,72.729 19.324,75.346 17.357,72.711 		"/>
		<polygon style="fill:#99EBFF;stroke:#99D2D4;stroke-width:0.5899;stroke-miterlimit:3.8637;" points="27.174,69.999 
			29.102,72.729 27.154,75.346 25.187,72.711 		"/>
		<polygon style="fill:#FFE7B5;stroke:#99D2D4;stroke-width:0.5899;stroke-miterlimit:3.8637;" points="23.259,69.999 
			25.187,72.729 23.238,75.346 21.272,72.711 		"/>
		<polygon style="fill:#FFE7B5;stroke:#99D2D4;stroke-width:0.5899;stroke-miterlimit:3.8637;" points="31.089,69.999 
			33.017,72.729 31.068,75.346 29.102,72.711 		"/>
		<polygon style="fill:#99EBFF;stroke:#99D2D4;stroke-width:0.5899;stroke-miterlimit:3.8637;" points="35.003,69.999 
			36.931,72.729 34.984,75.346 33.017,72.711 		"/>
		<polygon style="fill:#99EBFF;stroke:#99D2D4;stroke-width:0.5899;stroke-miterlimit:3.8637;" points="42.833,69.999 
			44.761,72.729 42.814,75.346 40.847,72.711 		"/>
		<polygon style="fill:#FFE7B5;stroke:#99D2D4;stroke-width:0.5899;stroke-miterlimit:3.8637;" points="38.919,69.999 
			40.847,72.729 38.899,75.346 36.931,72.711 		"/>
		<polygon style="fill:#99EBFF;stroke:#99D2D4;stroke-width:0.5899;stroke-miterlimit:3.8637;" points="50.664,69.999 
			52.591,72.729 50.643,75.346 48.677,72.711 		"/>
		<polygon style="fill:#FFE7B5;stroke:#99D2D4;stroke-width:0.5899;stroke-miterlimit:3.8637;" points="46.749,69.999 
			48.677,72.729 46.729,75.346 44.761,72.711 		"/>
	</g>
</g>
</svg>
