<?xml version="1.0" encoding="iso-8859-1"?>
<!-- Generator: Adobe Illustrator 16.0.0, SVG Export Plug-In . SVG Version: 6.00 Build 0)  -->
<!DOCTYPE svg PUBLIC "-//W3C//DTD SVG 1.1//EN" "http://www.w3.org/Graphics/SVG/1.1/DTD/svg11.dtd">
<svg version="1.1" id="Layer_1" xmlns="http://www.w3.org/2000/svg" xmlns:xlink="http://www.w3.org/1999/xlink" x="0px" y="0px"
	 width="58.425px" height="81.337px" viewBox="0 0 58.425 81.337" style="enable-background:new 0 0 58.425 81.337;"
	 xml:space="preserve">
<g>
	<g>
		<path style="fill-rule:evenodd;clip-rule:evenodd;fill:#FAFAFA;" d="M58.11,75.624c0,2.969-2.43,5.398-5.398,5.398H5.713
			c-2.969,0-5.398-2.43-5.398-5.398V5.714c0-2.97,2.43-5.399,5.398-5.399h46.998c2.969,0,5.398,2.43,5.398,5.399V75.624z"/>
		<path style="fill:none;stroke:#CCCCCC;stroke-width:0.6299;stroke-miterlimit:3.8637;" d="M58.11,75.624
			c0,2.969-2.43,5.398-5.398,5.398H5.713c-2.969,0-5.398-2.43-5.398-5.398V5.714c0-2.97,2.43-5.399,5.398-5.399h46.998
			c2.969,0,5.398,2.43,5.398,5.399V75.624z"/>
	</g>
	<g>
		<path style="fill:#B50F0D;" d="M6.609,19.12l5.2-12.298h3.12V19.12h1.352v2.602h-1.352v3.301h-2.86v-3.301h-5.46V19.12z
			 M12.069,19.12v-6.734L9.235,19.12H12.069z"/>
	</g>
	<g>
		<polygon style="fill:#B50F0D;" points="11.799,27.317 16.209,33.694 11.799,39.843 7.297,33.694 		"/>
		<polygon style="fill:#B50F0D;" points="36.708,43.292 47.734,59.233 36.708,74.603 25.455,59.233 		"/>
	</g>
</g>
</svg>
