<?xml version="1.0" encoding="iso-8859-1"?>
<!-- Generator: Adobe Illustrator 16.0.0, SVG Export Plug-In . SVG Version: 6.00 Build 0)  -->
<!DOCTYPE svg PUBLIC "-//W3C//DTD SVG 1.1//EN" "http://www.w3.org/Graphics/SVG/1.1/DTD/svg11.dtd">
<svg version="1.1" id="Layer_1" xmlns="http://www.w3.org/2000/svg" xmlns:xlink="http://www.w3.org/1999/xlink" x="0px" y="0px"
	 width="58.426px" height="81.336px" viewBox="0 0 58.426 81.336" style="enable-background:new 0 0 58.426 81.336;"
	 xml:space="preserve">
<g>
	<g>
		<path style="fill-rule:evenodd;clip-rule:evenodd;fill:#FAFAFA;" d="M58.111,75.622c0,2.97-2.43,5.399-5.399,5.399H5.714
			c-2.97,0-5.399-2.43-5.399-5.399V5.714c0-2.97,2.43-5.399,5.399-5.399h46.998c2.97,0,5.399,2.43,5.399,5.399V75.622z"/>
		<path style="fill:none;stroke:#CCCCCC;stroke-width:0.6299;stroke-miterlimit:3.8637;" d="M58.111,75.622
			c0,2.97-2.43,5.399-5.399,5.399H5.714c-2.97,0-5.399-2.43-5.399-5.399V5.714c0-2.97,2.43-5.399,5.399-5.399h46.998
			c2.97,0,5.399,2.43,5.399,5.399V75.622z"/>
	</g>
	<g>
		<path style="fill:#B50F0D;" d="M8.809,22.422c0.313,0.025,0.676,0.025,0.988,0.025c0.91,0,1.639-0.338,1.639-1.742V6.82h2.859
			v13.678c0,3.641-1.95,4.576-4.107,4.576c-0.521,0-0.91,0-1.379-0.053V22.422z"/>
	</g>
	<g>
		<path style="fill:#F5CC00;stroke:#020202;stroke-width:0.436;stroke-miterlimit:10;" d="M44.945,45.834
			c0,0,6.563,1.666,7.283-3.658c0.451-3.324-2.287-5.91-5.662-5.355v3.043l2.438,1.711l0.57,1.377l-1.116,1.719L44.945,45.834z"/>
		<g>
			<defs>
				<polygon id="XMLID_134_" points="27.932,49.66 9.739,62.105 6.462,75.514 9.891,75.514 52.248,75.514 52.248,56.754 
					47.203,48.264 37.237,43.707 				"/>
			</defs>
			<use xlink:href="#XMLID_134_"  style="overflow:visible;fill:#AE2A20;"/>
			<clipPath id="XMLID_2_">
				<use xlink:href="#XMLID_134_"  style="overflow:visible;"/>
			</clipPath>
			<g style="clip-path:url(#XMLID_2_);">
				<defs>
					<polygon id="XMLID_137_" points="43.688,48.283 23.154,61.951 25.531,42.805 41.075,40.178 45.541,42.043 					"/>
				</defs>
				<use xlink:href="#XMLID_137_"  style="overflow:visible;fill:#FFFFFF;"/>
				<clipPath id="XMLID_3_">
					<use xlink:href="#XMLID_137_"  style="overflow:visible;"/>
				</clipPath>
				<g style="clip-path:url(#XMLID_3_);">
					<defs>
						<path id="XMLID_138_" d="M41.075,47.941L25.628,57.947l0.85-8.02c0,0-1.187-1.771-0.282-4.469l12.502-2.566L41.075,47.941z"/>
					</defs>
					<use xlink:href="#XMLID_138_"  style="overflow:visible;fill:#F5CC00;"/>
					<clipPath id="XMLID_4_">
						<use xlink:href="#XMLID_138_"  style="overflow:visible;"/>
					</clipPath>
					<polygon style="clip-path:url(#XMLID_4_);stroke:#020202;stroke-width:0.5509;stroke-miterlimit:10;" points="40.404,46.193 
						27.74,54.563 29.107,39.701 38.877,40.533 					"/>
					
						<use xlink:href="#XMLID_138_"  style="overflow:visible;fill:none;stroke:#020202;stroke-width:0.5509;stroke-miterlimit:10;"/>
				</g>
				<use xlink:href="#XMLID_137_"  style="overflow:visible;fill:none;stroke:#000000;stroke-width:0.5509;stroke-miterlimit:10;"/>
			</g>
			<g style="clip-path:url(#XMLID_2_);">
				<defs>
					<polygon id="XMLID_136_" points="12.3,77.697 50.979,48.91 55.646,56.568 22.614,81.697 					"/>
				</defs>
				<use xlink:href="#XMLID_136_"  style="overflow:visible;fill:#F5CC00;"/>
				<clipPath id="XMLID_5_">
					<use xlink:href="#XMLID_136_"  style="overflow:visible;"/>
				</clipPath>
				<polygon style="clip-path:url(#XMLID_5_);fill:#AE2A20;stroke:#000000;stroke-width:0.579;stroke-miterlimit:10;" points="
					18.703,82.611 57.5,52.98 54.258,48.732 8.316,82.789 				"/>
				<use xlink:href="#XMLID_136_"  style="overflow:visible;fill:none;stroke:#020202;stroke-width:0.5509;stroke-miterlimit:10;"/>
			</g>
			<g style="clip-path:url(#XMLID_2_);">
				<defs>
					<polygon id="XMLID_135_" points="17.486,52.574 13.594,77.877 18.98,77.877 22.959,50.49 					"/>
				</defs>
				<use xlink:href="#XMLID_135_"  style="overflow:visible;fill:#FFFFFF;"/>
				<clipPath id="XMLID_6_">
					<use xlink:href="#XMLID_135_"  style="overflow:visible;"/>
				</clipPath>
				<polygon style="clip-path:url(#XMLID_6_);fill:#F5CC00;stroke:#020202;stroke-width:0.5509;stroke-miterlimit:10;" points="
					19.538,51.141 15.29,77.518 21.168,77.518 25.51,48.969 				"/>
				<polygon style="clip-path:url(#XMLID_6_);fill:#FFFFFF;stroke:#000000;stroke-width:0.5509;stroke-miterlimit:10;" points="
					21.174,51.141 16.926,77.518 22.805,77.518 27.145,48.969 				"/>
				<use xlink:href="#XMLID_135_"  style="overflow:visible;fill:none;stroke:#000000;stroke-width:0.5509;stroke-miterlimit:10;"/>
			</g>
			<use xlink:href="#XMLID_134_"  style="overflow:visible;fill:none;stroke:#000000;stroke-width:0.579;stroke-miterlimit:10;"/>
		</g>
		<path style="fill:#FFFFFF;stroke:#000000;stroke-width:0.5509;stroke-miterlimit:10;" d="M25.16,30.934c0,0,0,4.338,0,5.002
			l-2.508,6.271h2.68v7.406c0,0,10.928,2.564,14.162-5.801V28.451C39.494,28.451,27.818,28.754,25.16,30.934z"/>
		<g>
			<defs>
				<path id="XMLID_133_" d="M47.21,32.346c0,0-1.856,3.566,1.14,7.242l0.678,6.365l-5.558,2.096l-9.591-5.652l-1.421-11.705
					l9.538,0.162L47.21,32.346z"/>
			</defs>
			<use xlink:href="#XMLID_133_"  style="overflow:visible;fill:#F5CC00;"/>
			<clipPath id="XMLID_7_">
				<use xlink:href="#XMLID_133_"  style="overflow:visible;"/>
			</clipPath>
			<path style="clip-path:url(#XMLID_7_);fill:#F5CC00;stroke:#020202;stroke-width:0.5425;stroke-miterlimit:10;" d="
				M36.144,29.092c-0.212,4.449-2.013,15.939,15.293,17.652c0,0-1.013-4.643-0.237-3.352c0.328,0.553-13.734,0.91-12.391-12.9
				C38.809,30.492,36.504,21.623,36.144,29.092z"/>
			<path style="clip-path:url(#XMLID_7_);fill:#F5CC00;stroke:#020202;stroke-width:0.4976;stroke-miterlimit:10;" d="M38.65,28.322
				c-0.01,5.35-1.518,14.32,13.052,16.223c0,0-0.667-4.223,0.01-2.98c0.239,0.438-11.479,1.537-10.353-11.158
				C41.359,30.406,38.662,21.16,38.65,28.322z"/>
			<path style="clip-path:url(#XMLID_7_);fill:#F5CC00;stroke:#020202;stroke-width:0.4976;stroke-miterlimit:10;" d="M44.59,30.41
				c0,0-2.568,9.953,6.787,8.986"/>
			<use xlink:href="#XMLID_133_"  style="overflow:visible;fill:none;stroke:#020202;stroke-width:0.4976;stroke-miterlimit:10;"/>
		</g>
		<path style="fill:none;stroke:#D85A00;stroke-width:0.5427;stroke-miterlimit:10;" d="M39.936,29.539"/>
		<ellipse style="fill:#171717;" cx="27.865" cy="37.27" rx="0.734" ry="0.744"/>
		<path style="fill:#171717;" d="M25.332,44.627c1.504-0.314,3.507,0,3.507,0c2.444,0.266,3.168-0.855,3.168-0.855
			s-0.604,0.512-3.168-0.033c-2.561-0.545-3.507-0.408-3.507-0.408V44.627z"/>
		
			<line style="fill:none;stroke:#000000;stroke-width:0.5509;stroke-miterlimit:10;" x1="24.498" y1="42.207" x2="26.639" y2="42.207"/>
		<g>
			<defs>
				<path id="XMLID_132_" d="M6.163,61.918h6.999c0,0,1.811,9.193-6.999,13.559V61.918z"/>
			</defs>
			<use xlink:href="#XMLID_132_"  style="overflow:visible;fill:#FFFFFF;"/>
			<clipPath id="XMLID_8_">
				<use xlink:href="#XMLID_132_"  style="overflow:visible;"/>
			</clipPath>
			<polyline style="clip-path:url(#XMLID_8_);fill:#FFFFFF;stroke:#000000;stroke-width:0.6693;stroke-miterlimit:10;" points="
				4.879,64.844 13.451,64.844 13.451,68.348 5.102,68.348 5.423,72.074 12.477,72.074 11.369,75.055 4.879,75.082 			"/>
			<use xlink:href="#XMLID_132_"  style="overflow:visible;fill:none;stroke:#000000;stroke-width:0.5509;stroke-miterlimit:10;"/>
		</g>
		
			<line style="fill:none;stroke:#000000;stroke-width:0.5402;stroke-miterlimit:10;" x1="27.641" y1="45.625" x2="25.609" y2="45.576"/>
		<path style="fill:#F5CC00;stroke:#020202;stroke-width:0.436;stroke-miterlimit:10;" d="M43.619,47.809
			c0,0,6.84,1.666,7.561-3.658c0.451-3.328-2.287-5.91-5.662-5.352v3.039l2.438,1.713l0.564,1.375l-1.113,1.719L43.619,47.809z"/>
		<path style="fill:#F5CC00;stroke:#020202;stroke-width:0.5509;stroke-miterlimit:10;" d="M43.021,29.678"/>
		<path style="fill:#F5CC00;stroke:#020202;stroke-width:0.5509;stroke-miterlimit:10;" d="M30.701,30.707
			c0,0-1.974,14.85,11.637,18.27c1.625,0.408,6.58,0.699,7.024-4.043c0.285-3.059-2.987-5.018-5.509-4.5l0.121,2.502
			c0,0,2.73-0.375,2.637,2.021c0,0-0.279,2.068-3.26,1.547c0,0-11.197-1.795-10.087-15.912L30.701,30.707z"/>
		<path style="fill:#020202;stroke:#000000;stroke-width:0.5509;stroke-miterlimit:10;" d="M20.193,23.988l4.656,8.742
			c0,0,13.23-3.568,22.299-0.072l3.275-8.793C50.424,23.865,36.761,18.615,20.193,23.988z"/>
		<g>
			<defs>
				<path id="XMLID_131_" d="M20.621,24.244l3.208,6.584c0,0,13.155-2.902,23.993-0.02l2.43-6.441
					C50.252,24.367,36.445,19.174,20.621,24.244z"/>
			</defs>
			<use xlink:href="#XMLID_131_"  style="overflow:visible;fill:#AE2A20;"/>
			<clipPath id="XMLID_9_">
				<use xlink:href="#XMLID_131_"  style="overflow:visible;"/>
			</clipPath>
			<use xlink:href="#XMLID_131_"  style="overflow:visible;fill:none;stroke:#000000;stroke-width:0.5509;stroke-miterlimit:10;"/>
		</g>
		<path style="fill:#AE2A20;stroke:#000000;stroke-width:0.5509;stroke-miterlimit:10;" d="M23.207,25.256l1.85,3.59
			c0,0,2.41-0.641,5.268-0.873l-0.363-3.801"/>
		<path style="fill:#AE2A20;stroke:#000000;stroke-width:0.5509;stroke-miterlimit:10;" d="M47.914,24.943l-1.293,3.545
			c0,0-3.244-0.367-6.102-0.602l0.086-3.799"/>
		<polyline style="fill:#AE2A20;stroke:#000000;stroke-width:0.5509;stroke-miterlimit:10;" points="32.186,24.172 32.465,27.779 
			38.391,27.779 38.391,24.029 		"/>
		<path style="fill:#AE2A20;stroke:#000000;stroke-width:0.5509;stroke-miterlimit:10;" d="M38.671,23.027"/>
		<polygon style="stroke:#020202;stroke-width:0.5509;stroke-miterlimit:10;" points="23.572,73.99 26.756,73.99 29.859,71.76 
			26.656,71.76 		"/>
		<polygon style="stroke:#020202;stroke-width:0.5509;stroke-miterlimit:10;" points="28.485,70.088 31.668,70.088 34.771,67.855 
			31.568,67.855 		"/>
		<polygon style="stroke:#020202;stroke-width:0.5509;stroke-miterlimit:10;" points="33.616,66.396 36.797,66.396 39.902,64.164 
			36.699,64.164 		"/>
		<polygon style="stroke:#020202;stroke-width:0.5509;stroke-miterlimit:10;" points="38.529,62.764 41.711,62.764 44.815,60.533 
			41.611,60.533 		"/>
		<polygon style="stroke:#020202;stroke-width:0.5509;stroke-miterlimit:10;" points="43.578,59.002 46.484,59.002 49.311,57.043 
			48.33,55.404 		"/>
		<polygon style="stroke:#020202;stroke-width:0.4883;stroke-miterlimit:10;" points="38.873,72.965 49.898,64.979 49.898,72.965 		
			"/>
		<polygon style="fill:#F5CC00;stroke:#020202;stroke-width:0.4713;stroke-miterlimit:10;" points="42.59,71.604 48.531,67.504 
			48.531,71.604 		"/>
		
			<ellipse style="fill:#FFFFFF;stroke:#000000;stroke-width:0.3726;stroke-miterlimit:10;" cx="43.579" cy="51.334" rx="0.835" ry="0.82"/>
		
			<ellipse style="fill:#FFFFFF;stroke:#000000;stroke-width:0.3726;stroke-miterlimit:10;" cx="40.049" cy="54.01" rx="0.834" ry="0.818"/>
		
			<ellipse style="fill:#FFFFFF;stroke:#000000;stroke-width:0.3726;stroke-miterlimit:10;" cx="36.446" cy="56.707" rx="0.834" ry="0.82"/>
		<path style="fill:#FFFFFF;stroke:#000000;stroke-width:0.3726;stroke-miterlimit:10;" d="M33.193,59.928
			c0,0.457-0.372,0.822-0.832,0.822c-0.461,0-0.834-0.365-0.834-0.822c0-0.451,0.373-0.818,0.834-0.818
			C32.821,59.109,33.193,59.477,33.193,59.928z"/>
		<path style="fill:#FFFFFF;stroke:#000000;stroke-width:0.3726;stroke-miterlimit:10;" d="M28.905,62.963
			c0,0.451-0.375,0.816-0.835,0.816c-0.458,0-0.836-0.365-0.836-0.816c0-0.449,0.378-0.82,0.836-0.82
			C28.53,62.143,28.905,62.514,28.905,62.963z"/>
		<path style="fill:#FFFFFF;stroke:#000000;stroke-width:0.3726;stroke-miterlimit:10;" d="M24.818,66.184
			c0,0.455-0.372,0.822-0.835,0.822c-0.458,0-0.833-0.367-0.833-0.822c0-0.451,0.375-0.818,0.833-0.818
			C24.446,65.365,24.818,65.732,24.818,66.184z"/>
		<path style="stroke:#020202;stroke-width:0.4379;stroke-miterlimit:10;" d="M11.885,49.098c0-0.797-0.911-1.443-2.086-1.443
			s-2.091,0.646-2.091,1.443c0,0.096,0,12.609,0,12.609h4.177C11.885,52.795,11.885,52.795,11.885,49.098z"/>
		<path style="fill:#FFFFFF;" d="M10.336,48.924c0-0.201-0.235-0.367-0.537-0.367c-0.299,0-0.533,0.166-0.533,0.367
			c0,0.025,0,11.883,0,11.883h1.07C10.336,58.523,10.336,49.871,10.336,48.924z"/>
		<rect x="9.241" y="44.17" style="stroke:#020202;stroke-width:0.5236;stroke-miterlimit:10;" width="1.115" height="3.297"/>
		<polygon style="stroke:#020202;stroke-width:0.5036;stroke-miterlimit:10;" points="9.882,41.912 11.712,45.969 7.9,45.969 		"/>
	</g>
	<polygon style="fill:#B50F0D;" points="11.805,28.512 16.215,34.887 11.805,41.035 7.303,34.887 	"/>
</g>
</svg>
