<?xml version="1.0" encoding="iso-8859-1"?>
<!-- Generator: Adobe Illustrator 16.0.0, SVG Export Plug-In . SVG Version: 6.00 Build 0)  -->
<!DOCTYPE svg PUBLIC "-//W3C//DTD SVG 1.1//EN" "http://www.w3.org/Graphics/SVG/1.1/DTD/svg11.dtd">
<svg version="1.1" id="Layer_1" xmlns="http://www.w3.org/2000/svg" xmlns:xlink="http://www.w3.org/1999/xlink" x="0px" y="0px"
	 width="58.426px" height="81.338px" viewBox="0 0 58.426 81.338" style="enable-background:new 0 0 58.426 81.338;"
	 xml:space="preserve">
<g>
	<g>
		<path style="fill-rule:evenodd;clip-rule:evenodd;fill:#FAFAFA;" d="M58.111,75.624c0,2.969-2.43,5.399-5.399,5.399H5.714
			c-2.97,0-5.399-2.43-5.399-5.399V5.714c0-2.969,2.43-5.399,5.399-5.399h46.998c2.97,0,5.399,2.43,5.399,5.399V75.624z"/>
		<path style="fill:none;stroke:#CCCCCC;stroke-width:0.6299;stroke-miterlimit:3.8637;" d="M58.111,75.624
			c0,2.969-2.43,5.399-5.399,5.399H5.714c-2.97,0-5.399-2.43-5.399-5.399V5.714c0-2.969,2.43-5.399,5.399-5.399h46.998
			c2.97,0,5.399,2.43,5.399,5.399V75.624z"/>
	</g>
	<g>
		<path style="fill:#B50F0D;" d="M16.164,20.499c0,3.068-1.404,4.732-4.369,4.732c-2.808,0-4.264-1.664-4.264-4.576v-0.468h2.704
			v0.649c0,1.301,0.571,1.794,1.481,1.794c1.015,0,1.586-0.493,1.586-2.235v-3.328c-0.493,1.04-1.377,1.612-2.651,1.612
			c-2.106,0-3.173-1.482-3.173-4.16v-3.328c0-2.912,1.535-4.576,4.343-4.576s4.343,1.664,4.343,4.576V20.499z M13.303,14.285v-3.276
			c0-1.3-0.571-1.768-1.481-1.768s-1.481,0.468-1.481,1.768v3.276c0,1.3,0.571,1.794,1.481,1.794S13.303,15.584,13.303,14.285z"/>
	</g>
	<g>
		<polygon style="fill:#B50F0D;" points="11.801,27.318 16.211,33.694 11.801,39.842 7.299,33.694 		"/>
		<polygon style="fill:#B50F0D;" points="36.709,43.292 47.734,59.234 36.709,74.603 25.455,59.234 		"/>
	</g>
</g>
</svg>
