<?xml version="1.0" encoding="iso-8859-1"?>
<!-- Generator: Adobe Illustrator 16.0.0, SVG Export Plug-In . SVG Version: 6.00 Build 0)  -->
<!DOCTYPE svg PUBLIC "-//W3C//DTD SVG 1.1//EN" "http://www.w3.org/Graphics/SVG/1.1/DTD/svg11.dtd">
<svg version="1.1" id="Layer_1" xmlns="http://www.w3.org/2000/svg" xmlns:xlink="http://www.w3.org/1999/xlink" x="0px" y="0px"
	 width="58.425px" height="81.338px" viewBox="0 0 58.425 81.338" style="enable-background:new 0 0 58.425 81.338;"
	 xml:space="preserve">
<g>
	<g>
		<path style="fill-rule:evenodd;clip-rule:evenodd;fill:#FAFAFA;" d="M58.11,75.624c0,2.969-2.43,5.399-5.399,5.399H5.714
			c-2.969,0-5.399-2.43-5.399-5.399V5.714c0-2.969,2.43-5.399,5.399-5.399h46.997c2.969,0,5.399,2.43,5.399,5.399V75.624z"/>
		<path style="fill:none;stroke:#CCCCCC;stroke-width:0.6299;stroke-miterlimit:3.8637;" d="M58.11,75.624
			c0,2.969-2.43,5.399-5.399,5.399H5.714c-2.969,0-5.399-2.43-5.399-5.399V5.714c0-2.969,2.43-5.399,5.399-5.399h46.997
			c2.969,0,5.399,2.43,5.399,5.399V75.624z"/>
	</g>
	<g>
		<path style="fill:#B50F0D;" d="M11.471,9.214c-0.91,0-1.482,0.494-1.482,1.794v1.95H7.285v-1.768c0-2.912,1.456-4.576,4.265-4.576
			c2.808,0,4.264,1.664,4.264,4.576c0,5.979-6.215,8.034-5.668,11.232h5.408v2.6H7.285v-2.236c0-5.355,5.668-6.24,5.668-11.492
			C12.953,9.657,12.381,9.214,11.471,9.214z"/>
	</g>
	<g>
		<polygon style="fill:#B50F0D;" points="11.799,27.318 16.209,33.694 11.799,39.842 7.297,33.694 		"/>
		<polygon style="fill:#B50F0D;" points="36.708,43.292 47.734,59.234 36.708,74.603 25.455,59.234 		"/>
	</g>
</g>
</svg>
