<?xml version="1.0" encoding="iso-8859-1"?>
<!-- Generator: Adobe Illustrator 16.0.0, SVG Export Plug-In . SVG Version: 6.00 Build 0)  -->
<!DOCTYPE svg PUBLIC "-//W3C//DTD SVG 1.1//EN" "http://www.w3.org/Graphics/SVG/1.1/DTD/svg11.dtd">
<svg version="1.1" id="Layer_1" xmlns="http://www.w3.org/2000/svg" xmlns:xlink="http://www.w3.org/1999/xlink" x="0px" y="0px"
	 width="58.425px" height="81.336px" viewBox="0 0 58.425 81.336" style="enable-background:new 0 0 58.425 81.336;"
	 xml:space="preserve">
<g>
	<g>
		<path style="fill-rule:evenodd;clip-rule:evenodd;fill:#FAFAFA;" d="M58.11,75.622c0,2.97-2.43,5.399-5.399,5.399H5.714
			c-2.969,0-5.399-2.43-5.399-5.399V5.714c0-2.97,2.43-5.399,5.399-5.399h46.997c2.969,0,5.399,2.43,5.399,5.399V75.622z"/>
		<path style="fill:none;stroke:#CCCCCC;stroke-width:0.6299;stroke-miterlimit:3.8637;" d="M58.11,75.622
			c0,2.97-2.43,5.399-5.399,5.399H5.714c-2.969,0-5.399-2.43-5.399-5.399V5.714c0-2.97,2.43-5.399,5.399-5.399h46.997
			c2.969,0,5.399,2.43,5.399,5.399V75.622z"/>
	</g>
	<g>
		<path style="fill:#B50F0D;" d="M7.102,11.346c0-3.068,1.404-4.732,4.369-4.732c2.808,0,4.264,1.664,4.264,4.576v0.469h-2.704
			v-0.65c0-1.301-0.571-1.795-1.481-1.795c-1.015,0-1.586,0.494-1.586,2.236v3.328c0.493-1.039,1.377-1.611,2.651-1.611
			c2.106,0,3.173,1.482,3.173,4.16v3.328c0,2.912-1.535,4.576-4.343,4.576s-4.343-1.664-4.343-4.576V11.346z M9.963,17.561v3.275
			c0,1.301,0.571,1.768,1.481,1.768s1.481-0.467,1.481-1.768v-3.275c0-1.301-0.571-1.795-1.481-1.795S9.963,16.26,9.963,17.561z"/>
	</g>
	<g>
		<polygon style="fill:#B50F0D;" points="11.799,28.689 16.209,35.066 11.799,41.215 7.297,35.066 		"/>
		<polygon style="fill:#B50F0D;" points="36.708,44.664 47.734,60.605 36.708,75.975 25.455,60.605 		"/>
	</g>
</g>
</svg>
