<?xml version="1.0" encoding="iso-8859-1"?>
<!-- Generator: Adobe Illustrator 16.0.0, SVG Export Plug-In . SVG Version: 6.00 Build 0)  -->
<!DOCTYPE svg PUBLIC "-//W3C//DTD SVG 1.1//EN" "http://www.w3.org/Graphics/SVG/1.1/DTD/svg11.dtd">
<svg version="1.1" id="Layer_1" xmlns="http://www.w3.org/2000/svg" xmlns:xlink="http://www.w3.org/1999/xlink" x="0px" y="0px"
	 width="58.426px" height="81.338px" viewBox="0 0 58.426 81.338" style="enable-background:new 0 0 58.426 81.338;"
	 xml:space="preserve">
<g>
	<g>
		<path style="fill-rule:evenodd;clip-rule:evenodd;fill:#FAFAFA;" d="M58.111,75.624c0,2.969-2.43,5.399-5.399,5.399H5.714
			c-2.97,0-5.399-2.43-5.399-5.399V5.714c0-2.969,2.43-5.399,5.399-5.399h46.998c2.97,0,5.399,2.43,5.399,5.399V75.624z"/>
		<path style="fill:none;stroke:#CCCCCC;stroke-width:0.6299;stroke-miterlimit:3.8637;" d="M58.111,75.624
			c0,2.969-2.43,5.399-5.399,5.399H5.714c-2.97,0-5.399-2.43-5.399-5.399V5.714c0-2.969,2.43-5.399,5.399-5.399h46.998
			c2.97,0,5.399,2.43,5.399,5.399V75.624z"/>
	</g>
	<g>
		<path style="fill:#B50F0D;" d="M11.873,25.231c-2.886,0-4.472-1.664-4.472-4.576v-1.43c0-1.742,0.52-3.095,1.768-3.797
			c-1.196-0.649-1.768-1.872-1.768-3.666v-0.571c0-2.912,1.586-4.576,4.472-4.576c2.887,0,4.473,1.664,4.473,4.576v0.571
			c0,1.794-0.598,3.017-1.769,3.666c1.248,0.702,1.769,2.055,1.769,3.797v1.43C16.346,23.567,14.76,25.231,11.873,25.231z
			 M10.262,12.308c0,1.456,0.676,1.925,1.611,1.925c0.91,0,1.612-0.469,1.612-1.925v-1.014c0-1.638-0.702-2.08-1.612-2.08
			s-1.611,0.442-1.611,2.08V12.308z M11.873,22.63c0.91,0,1.586-0.441,1.612-2.054v-1.69c0-1.43-0.599-2.054-1.612-2.054
			s-1.611,0.624-1.611,2.054v1.69C10.262,22.189,10.963,22.63,11.873,22.63z"/>
	</g>
	<g>
		<polygon style="fill:#B50F0D;" points="11.801,28.691 16.211,35.067 11.801,41.215 7.299,35.067 		"/>
		<polygon style="fill:#B50F0D;" points="36.709,44.666 47.734,60.607 36.709,75.976 25.455,60.607 		"/>
	</g>
</g>
</svg>
