<?xml version="1.0" encoding="iso-8859-1"?>
<!-- Generator: Adobe Illustrator 16.0.0, SVG Export Plug-In . SVG Version: 6.00 Build 0)  -->
<!DOCTYPE svg PUBLIC "-//W3C//DTD SVG 1.1//EN" "http://www.w3.org/Graphics/SVG/1.1/DTD/svg11.dtd">
<svg version="1.1" id="Layer_1" xmlns="http://www.w3.org/2000/svg" xmlns:xlink="http://www.w3.org/1999/xlink" x="0px" y="0px"
	 width="58.425px" height="81.338px" viewBox="0 0 58.425 81.338" style="enable-background:new 0 0 58.425 81.338;"
	 xml:space="preserve">
<g>
	<g>
		<path style="fill-rule:evenodd;clip-rule:evenodd;fill:#FAFAFA;" d="M58.11,75.624c0,2.969-2.43,5.399-5.399,5.399H5.714
			c-2.969,0-5.399-2.43-5.399-5.399V5.714c0-2.969,2.43-5.399,5.399-5.399h46.997c2.969,0,5.399,2.43,5.399,5.399V75.624z"/>
		<path style="fill:none;stroke:#CCCCCC;stroke-width:0.6299;stroke-miterlimit:3.8637;" d="M58.11,75.624
			c0,2.969-2.43,5.399-5.399,5.399H5.714c-2.969,0-5.399-2.43-5.399-5.399V5.714c0-2.969,2.43-5.399,5.399-5.399h46.997
			c2.969,0,5.399,2.43,5.399,5.399V75.624z"/>
	</g>
	<g>
		<path style="fill:#B50F0D;" d="M16.398,25.023h-2.886l-0.494-3.302h-3.51l-0.494,3.302H6.387L9.299,6.822h4.187L16.398,25.023z
			 M9.872,19.25h2.756l-1.378-9.204L9.872,19.25z"/>
	</g>
	<g>
		<polygon style="fill:#B50F0D;" points="11.799,28.04 16.209,34.416 11.799,40.564 7.297,34.416 		"/>
		<polygon style="fill:#B50F0D;" points="36.708,44.014 47.734,59.956 36.708,75.325 25.455,59.956 		"/>
	</g>
</g>
</svg>
