<?xml version="1.0" encoding="iso-8859-1"?>
<!-- Generator: Adobe Illustrator 16.0.0, SVG Export Plug-In . SVG Version: 6.00 Build 0)  -->
<!DOCTYPE svg PUBLIC "-//W3C//DTD SVG 1.1//EN" "http://www.w3.org/Graphics/SVG/1.1/DTD/svg11.dtd">
<svg version="1.1" id="Layer_1" xmlns="http://www.w3.org/2000/svg" xmlns:xlink="http://www.w3.org/1999/xlink" x="0px" y="0px"
	 width="58.425px" height="81.336px" viewBox="0 0 58.425 81.336" style="enable-background:new 0 0 58.425 81.336;"
	 xml:space="preserve">
<g>
	<g>
		<path style="fill-rule:evenodd;clip-rule:evenodd;fill:#FAFAFA;" d="M58.11,75.623c0,2.969-2.43,5.398-5.398,5.398H5.713
			c-2.969,0-5.398-2.43-5.398-5.398V5.713c0-2.969,2.43-5.398,5.398-5.398h46.998c2.969,0,5.398,2.43,5.398,5.398V75.623z"/>
		<path style="fill:none;stroke:#CCCCCC;stroke-width:0.6299;stroke-miterlimit:3.8637;" d="M58.11,75.623
			c0,2.969-2.43,5.398-5.398,5.398H5.713c-2.969,0-5.398-2.43-5.398-5.398V5.713c0-2.969,2.43-5.398,5.398-5.398h46.998
			c2.969,0,5.398,2.43,5.398,5.398V75.623z"/>
	</g>
	<g>
		<path style="fill:#B50F0D;" d="M10.379,19.146v1.689c0,1.301,0.571,1.768,1.481,1.768s1.481-0.467,1.481-1.768v-4.004
			c0-1.301-0.571-1.795-1.481-1.795s-1.481,0.494-1.481,1.795v0.545H7.674L8.195,6.82h7.54v2.602h-4.966l-0.234,4.342
			c0.521-0.857,1.353-1.326,2.496-1.326c2.106,0,3.173,1.482,3.173,4.16v4.057c0,2.912-1.457,4.576-4.265,4.576
			s-4.265-1.664-4.265-4.576v-1.508H10.379z"/>
	</g>
	<g>
		<polygon style="fill:#B50F0D;" points="11.799,27.316 16.209,33.693 11.799,39.842 7.297,33.693 		"/>
		<polygon style="fill:#B50F0D;" points="36.708,43.291 47.734,59.232 36.708,74.602 25.455,59.232 		"/>
	</g>
</g>
</svg>
