<?xml version="1.0" encoding="iso-8859-1"?>
<!-- Generator: Adobe Illustrator 16.0.0, SVG Export Plug-In . SVG Version: 6.00 Build 0)  -->
<!DOCTYPE svg PUBLIC "-//W3C//DTD SVG 1.1//EN" "http://www.w3.org/Graphics/SVG/1.1/DTD/svg11.dtd">
<svg version="1.1" id="Layer_1" xmlns="http://www.w3.org/2000/svg" xmlns:xlink="http://www.w3.org/1999/xlink" x="0px" y="0px"
	 width="58.425px" height="81.338px" viewBox="0 0 58.425 81.338" style="enable-background:new 0 0 58.425 81.338;"
	 xml:space="preserve">
<g>
	<g>
		<path style="fill-rule:evenodd;clip-rule:evenodd;fill:#FAFAFA;" d="M58.11,75.624c0,2.97-2.43,5.399-5.398,5.399H5.713
			c-2.969,0-5.398-2.43-5.398-5.399V5.714c0-2.97,2.43-5.399,5.398-5.399h46.998c2.969,0,5.398,2.43,5.398,5.399V75.624z"/>
		<path style="fill:none;stroke:#CCCCCC;stroke-width:0.6299;stroke-miterlimit:3.8637;" d="M58.11,75.624
			c0,2.97-2.43,5.399-5.398,5.399H5.713c-2.969,0-5.398-2.43-5.398-5.399V5.714c0-2.97,2.43-5.399,5.398-5.399h46.998
			c2.969,0,5.398,2.43,5.398,5.399V75.624z"/>
	</g>
	<g>
		<path style="fill:#B50F0D;" d="M13.317,11.294c0-1.638-0.572-2.08-1.482-2.08s-1.481,0.494-1.481,1.794v1.17H7.649v-0.987
			c0-2.912,1.456-4.576,4.264-4.576c2.809,0,4.265,1.664,4.265,4.576v0.468c0,1.95-0.624,3.172-2.003,3.744
			c1.431,0.624,2.003,1.976,2.003,3.822v1.43c0,2.912-1.456,4.576-4.265,4.576c-2.808,0-4.264-1.664-4.264-4.576v-1.508h2.704v1.689
			c0,1.301,0.571,1.794,1.481,1.794s1.482-0.441,1.482-2.054v-1.43c0-1.69-0.572-2.314-1.872-2.314h-0.962v-2.6h1.118
			c1.065,0,1.716-0.469,1.716-1.925V11.294z"/>
	</g>
	<g>
		<polygon style="fill:#B50F0D;" points="11.799,27.355 16.209,33.731 11.799,39.879 7.297,33.731 		"/>
		<polygon style="fill:#B50F0D;" points="36.708,43.33 47.734,59.271 36.708,74.64 25.455,59.271 		"/>
	</g>
</g>
</svg>
