<?xml version="1.0" encoding="iso-8859-1"?>
<!-- Generator: Adobe Illustrator 16.0.0, SVG Export Plug-In . SVG Version: 6.00 Build 0)  -->
<!DOCTYPE svg PUBLIC "-//W3C//DTD SVG 1.1//EN" "http://www.w3.org/Graphics/SVG/1.1/DTD/svg11.dtd">
<svg version="1.1" id="Layer_1" xmlns="http://www.w3.org/2000/svg" xmlns:xlink="http://www.w3.org/1999/xlink" x="0px" y="0px"
	 width="58.426px" height="81.338px" viewBox="0 0 58.426 81.338" style="enable-background:new 0 0 58.426 81.338;"
	 xml:space="preserve">
<g>
	<g>
		<path style="fill-rule:evenodd;clip-rule:evenodd;fill:#FAFAFA;" d="M58.111,75.624c0,2.97-2.43,5.399-5.399,5.399H5.714
			c-2.97,0-5.399-2.43-5.399-5.399V5.714c0-2.969,2.43-5.399,5.399-5.399h46.998c2.97,0,5.399,2.43,5.399,5.399V75.624z"/>
		<path style="fill:none;stroke:#CCCCCC;stroke-width:0.6299;stroke-miterlimit:3.8637;" d="M58.111,75.624
			c0,2.97-2.43,5.399-5.399,5.399H5.714c-2.97,0-5.399-2.43-5.399-5.399V5.714c0-2.969,2.43-5.399,5.399-5.399h46.998
			c2.97,0,5.399,2.43,5.399,5.399V75.624z"/>
	</g>
	<g>
		<path style="fill:#B50F0D;" d="M4.426,9.111c2.209,0,2.703-1.066,3.146-2.289h1.925v18.201H6.635V11.138H4.426V9.111z"/>
		<path style="fill:#B50F0D;" d="M10.639,11.191c0-2.912,1.534-4.576,4.343-4.576c2.808,0,4.342,1.664,4.342,4.576v9.464
			c0,2.912-1.534,4.576-4.342,4.576c-2.809,0-4.343-1.664-4.343-4.576V11.191z M13.499,20.836c0,1.301,0.572,1.794,1.482,1.794
			c0.909,0,1.481-0.493,1.481-1.794v-9.828c0-1.3-0.572-1.794-1.481-1.794c-0.91,0-1.482,0.494-1.482,1.794V20.836z"/>
	</g>
	<g>
		<polygon style="fill:#B50F0D;" points="11.801,27.318 16.211,33.694 11.801,39.842 7.299,33.694 		"/>
		<polygon style="fill:#B50F0D;" points="36.709,43.293 47.734,59.234 36.709,74.604 25.455,59.234 		"/>
	</g>
</g>
</svg>
