<?xml version="1.0" encoding="iso-8859-1"?>
<!-- Generator: Adobe Illustrator 16.0.0, SVG Export Plug-In . SVG Version: 6.00 Build 0)  -->
<!DOCTYPE svg PUBLIC "-//W3C//DTD SVG 1.1//EN" "http://www.w3.org/Graphics/SVG/1.1/DTD/svg11.dtd">
<svg version="1.1" id="Layer_1" xmlns="http://www.w3.org/2000/svg" xmlns:xlink="http://www.w3.org/1999/xlink" x="0px" y="0px"
	 width="58.424px" height="81.339px" viewBox="0 0 58.424 81.339" style="enable-background:new 0 0 58.424 81.339;"
	 xml:space="preserve">
<g>
	<g>
		<path style="fill-rule:evenodd;clip-rule:evenodd;fill:#FAFAFA;" d="M58.109,75.624c0,2.97-2.43,5.399-5.399,5.399H5.714
			c-2.97,0-5.399-2.43-5.399-5.399V5.714c0-2.969,2.43-5.399,5.399-5.399H52.71c2.97,0,5.399,2.43,5.399,5.399V75.624z"/>
		<path style="fill:none;stroke:#CCCCCC;stroke-width:0.6299;stroke-miterlimit:3.8637;" d="M58.109,75.624
			c0,2.97-2.43,5.399-5.399,5.399H5.714c-2.97,0-5.399-2.43-5.399-5.399V5.714c0-2.969,2.43-5.399,5.399-5.399H52.71
			c2.97,0,5.399,2.43,5.399,5.399V75.624z"/>
	</g>
	<path style="fill:#B50F0D;" d="M14.67,28.691c-1.42,0-2.601,0.952-2.914,2.229c-0.313-1.277-1.498-2.229-2.918-2.229
		c-1.658,0-3.004,1.296-3.004,2.892c0.126,2.879,5.922,8.329,5.922,8.329s5.797-5.45,5.918-8.329
		C17.674,29.987,16.33,28.691,14.67,28.691z"/>
	<path style="fill:#B50F0D;" d="M43.673,47.367c-3.449,0-6.319,2.314-7.077,5.41c-0.762-3.096-3.633-5.41-7.082-5.41
		c-4.024,0-7.289,3.145-7.289,7.02c0.303,6.986,14.371,20.217,14.371,20.217s14.07-13.23,14.367-20.217
		C50.963,50.512,47.701,47.367,43.673,47.367z"/>
	<g>
		<path style="fill:#B50F0D;" d="M4.424,9.111c2.211,0,2.705-1.066,3.146-2.289h1.924v18.201H6.635V11.138H4.424V9.111z"/>
		<path style="fill:#B50F0D;" d="M10.639,11.191c0-2.912,1.533-4.576,4.342-4.576c2.808,0,4.342,1.664,4.342,4.576v9.464
			c0,2.912-1.534,4.576-4.342,4.576c-2.809,0-4.342-1.664-4.342-4.576V11.191z M13.498,20.836c0,1.301,0.572,1.794,1.482,1.794
			s1.482-0.493,1.482-1.794v-9.828c0-1.3-0.572-1.794-1.482-1.794s-1.482,0.494-1.482,1.794V20.836z"/>
	</g>
</g>
</svg>
