<?xml version="1.0" encoding="iso-8859-1"?>
<!-- Generator: Adobe Illustrator 16.0.0, SVG Export Plug-In . SVG Version: 6.00 Build 0)  -->
<!DOCTYPE svg PUBLIC "-//W3C//DTD SVG 1.1//EN" "http://www.w3.org/Graphics/SVG/1.1/DTD/svg11.dtd">
<svg version="1.1" id="Layer_1" xmlns="http://www.w3.org/2000/svg" xmlns:xlink="http://www.w3.org/1999/xlink" x="0px" y="0px"
	 width="58.427px" height="81.337px" viewBox="0 0 58.427 81.337" style="enable-background:new 0 0 58.427 81.337;"
	 xml:space="preserve">
<g>
	<g>
		<path style="fill-rule:evenodd;clip-rule:evenodd;fill:#FAFAFA;" d="M58.112,75.624c0,2.969-2.43,5.398-5.399,5.398H5.714
			c-2.97,0-5.399-2.43-5.399-5.398V5.714c0-2.97,2.43-5.399,5.399-5.399h46.998c2.97,0,5.399,2.43,5.399,5.399V75.624z"/>
		<path style="fill:none;stroke:#CCCCCC;stroke-width:0.6299;stroke-miterlimit:3.8637;" d="M58.112,75.624
			c0,2.969-2.43,5.398-5.399,5.398H5.714c-2.97,0-5.399-2.43-5.399-5.398V5.714c0-2.97,2.43-5.399,5.399-5.399h46.998
			c2.97,0,5.399,2.43,5.399,5.399V75.624z"/>
	</g>
	<path style="fill:#B50F0D;" d="M14.672,28.691c-1.421,0-2.602,0.953-2.915,2.23c-0.313-1.277-1.498-2.23-2.919-2.23
		c-1.658,0-3.002,1.296-3.002,2.892c0.125,2.879,5.921,8.328,5.921,8.328s5.796-5.449,5.917-8.328
		C17.674,29.987,16.333,28.691,14.672,28.691z"/>
	<path style="fill:#B50F0D;" d="M43.674,47.366c-3.449,0-6.318,2.314-7.076,5.412c-0.762-3.098-3.635-5.412-7.083-5.412
		c-4.024,0-7.288,3.146-7.288,7.021c0.302,6.984,14.371,20.215,14.371,20.215s14.068-13.23,14.367-20.215
		C50.965,50.513,47.703,47.366,43.674,47.366z"/>
	<g>
		<path style="fill:#B50F0D;" d="M6.61,19.121l5.2-12.299h3.12v12.299h1.352v2.601H14.93v3.302h-2.86v-3.302H6.61V19.121z
			 M12.07,19.121v-6.734l-2.834,6.734H12.07z"/>
	</g>
</g>
</svg>
