<?xml version="1.0" encoding="iso-8859-1"?>
<!-- Generator: Adobe Illustrator 16.0.0, SVG Export Plug-In . SVG Version: 6.00 Build 0)  -->
<!DOCTYPE svg PUBLIC "-//W3C//DTD SVG 1.1//EN" "http://www.w3.org/Graphics/SVG/1.1/DTD/svg11.dtd">
<svg version="1.1" id="Layer_1" xmlns="http://www.w3.org/2000/svg" xmlns:xlink="http://www.w3.org/1999/xlink" x="0px" y="0px"
	 width="58.424px" height="81.338px" viewBox="0 0 58.424 81.338" style="enable-background:new 0 0 58.424 81.338;"
	 xml:space="preserve">
<g>
	<g>
		<path style="fill-rule:evenodd;clip-rule:evenodd;fill:#FAFAFA;" d="M58.109,75.624c0,2.969-2.43,5.399-5.399,5.399H5.714
			c-2.97,0-5.399-2.43-5.399-5.399V5.714c0-2.969,2.43-5.399,5.399-5.399H52.71c2.97,0,5.399,2.43,5.399,5.399V75.624z"/>
		<path style="fill:none;stroke:#CCCCCC;stroke-width:0.6299;stroke-miterlimit:3.8637;" d="M58.109,75.624
			c0,2.969-2.43,5.399-5.399,5.399H5.714c-2.97,0-5.399-2.43-5.399-5.399V5.714c0-2.969,2.43-5.399,5.399-5.399H52.71
			c2.97,0,5.399,2.43,5.399,5.399V75.624z"/>
	</g>
	<path style="fill:#B50F0D;" d="M14.67,28.691c-1.42,0-2.601,0.952-2.914,2.229c-0.313-1.277-1.498-2.229-2.918-2.229
		c-1.658,0-3.004,1.296-3.004,2.893c0.126,2.878,5.922,8.328,5.922,8.328s5.797-5.45,5.918-8.328
		C17.674,29.987,16.33,28.691,14.67,28.691z"/>
	<path style="fill:#B50F0D;" d="M43.673,47.367c-3.449,0-6.319,2.314-7.077,5.411c-0.762-3.097-3.633-5.411-7.082-5.411
		c-4.024,0-7.289,3.146-7.289,7.021c0.303,6.985,14.371,20.216,14.371,20.216s14.07-13.23,14.367-20.216
		C50.963,50.512,47.701,47.367,43.673,47.367z"/>
	<g>
		<path style="fill:#B50F0D;" d="M16.162,20.499c0,3.068-1.404,4.732-4.367,4.732c-2.809,0-4.265-1.664-4.265-4.576v-0.468h2.704
			v0.649c0,1.301,0.572,1.794,1.482,1.794c1.014,0,1.586-0.493,1.586-2.235v-3.328c-0.494,1.04-1.379,1.612-2.652,1.612
			c-2.106,0-3.172-1.482-3.172-4.16v-3.328c0-2.912,1.533-4.576,4.342-4.576s4.342,1.664,4.342,4.576V20.499z M13.303,14.285v-3.276
			c0-1.3-0.572-1.768-1.482-1.768s-1.482,0.468-1.482,1.768v3.276c0,1.3,0.572,1.794,1.482,1.794S13.303,15.584,13.303,14.285z"/>
	</g>
</g>
</svg>
