<?xml version="1.0" encoding="iso-8859-1"?>
<!-- Generator: Adobe Illustrator 16.0.0, SVG Export Plug-In . SVG Version: 6.00 Build 0)  -->
<!DOCTYPE svg PUBLIC "-//W3C//DTD SVG 1.1//EN" "http://www.w3.org/Graphics/SVG/1.1/DTD/svg11.dtd">
<svg version="1.1" id="Layer_1" xmlns="http://www.w3.org/2000/svg" xmlns:xlink="http://www.w3.org/1999/xlink" x="0px" y="0px"
	 width="58.427px" height="81.338px" viewBox="0 0 58.427 81.338" style="enable-background:new 0 0 58.427 81.338;"
	 xml:space="preserve">
<g>
	<g>
		<path style="fill-rule:evenodd;clip-rule:evenodd;fill:#FAFAFA;" d="M58.112,75.624c0,2.969-2.43,5.399-5.399,5.399H5.714
			c-2.969,0-5.399-2.43-5.399-5.399V5.714c0-2.969,2.43-5.399,5.399-5.399h46.999c2.969,0,5.399,2.43,5.399,5.399V75.624z"/>
		<path style="fill:none;stroke:#CCCCCC;stroke-width:0.6299;stroke-miterlimit:3.8637;" d="M58.112,75.624
			c0,2.969-2.43,5.399-5.399,5.399H5.714c-2.969,0-5.399-2.43-5.399-5.399V5.714c0-2.969,2.43-5.399,5.399-5.399h46.999
			c2.969,0,5.399,2.43,5.399,5.399V75.624z"/>
	</g>
	<path style="fill:#B50F0D;" d="M14.672,28.691c-1.421,0-2.602,0.952-2.915,2.229c-0.313-1.277-1.498-2.229-2.919-2.229
		c-1.658,0-3.002,1.296-3.002,2.893c0.125,2.878,5.921,8.328,5.921,8.328s5.796-5.45,5.917-8.328
		C17.674,29.987,16.333,28.691,14.672,28.691z"/>
	<path style="fill:#B50F0D;" d="M50.778,115.401c-0.762-3.097-17.814-68.035-21.263-68.035c-4.024,0-7.288,3.146-7.288,7.021
		c0.302,6.985,14.371,20.216,14.371,20.216s14.068-13.23,14.367-20.216c0-3.875-3.263-7.021-7.291-7.021
		c-3.449,0-6.318,2.314-7.076,5.411"/>
	<g>
		<path style="fill:#B50F0D;" d="M16.399,25.023h-2.887l-0.493-3.302H9.508l-0.494,3.302H6.389L9.301,6.822h4.186L16.399,25.023z
			 M9.873,19.25h2.757l-1.379-9.204L9.873,19.25z"/>
	</g>
</g>
</svg>
