<?xml version="1.0" encoding="iso-8859-1"?>
<!-- Generator: Adobe Illustrator 16.0.0, SVG Export Plug-In . SVG Version: 6.00 Build 0)  -->
<!DOCTYPE svg PUBLIC "-//W3C//DTD SVG 1.1//EN" "http://www.w3.org/Graphics/SVG/1.1/DTD/svg11.dtd">
<svg version="1.1" id="Layer_1" xmlns="http://www.w3.org/2000/svg" xmlns:xlink="http://www.w3.org/1999/xlink" x="0px" y="0px"
	 width="58.427px" height="81.336px" viewBox="0 0 58.427 81.336" style="enable-background:new 0 0 58.427 81.336;"
	 xml:space="preserve">
<g>
	<g>
		<path style="fill-rule:evenodd;clip-rule:evenodd;fill:#FAFAFA;" d="M58.112,75.622c0,2.97-2.43,5.399-5.399,5.399H5.714
			c-2.969,0-5.399-2.43-5.399-5.399V5.714c0-2.97,2.43-5.399,5.399-5.399h46.999c2.969,0,5.399,2.43,5.399,5.399V75.622z"/>
		<path style="fill:none;stroke:#CCCCCC;stroke-width:0.6299;stroke-miterlimit:3.8637;" d="M58.112,75.622
			c0,2.97-2.43,5.399-5.399,5.399H5.714c-2.969,0-5.399-2.43-5.399-5.399V5.714c0-2.97,2.43-5.399,5.399-5.399h46.999
			c2.969,0,5.399,2.43,5.399,5.399V75.622z"/>
	</g>
	<path style="fill:#B50F0D;" d="M14.672,28.689c-1.421,0-2.602,0.953-2.915,2.23c-0.313-1.277-1.498-2.23-2.919-2.23
		c-1.658,0-3.002,1.297-3.002,2.893c0.125,2.879,5.921,8.328,5.921,8.328s5.796-5.449,5.917-8.328
		C17.674,29.986,16.333,28.689,14.672,28.689z"/>
	<path style="fill:#B50F0D;" d="M43.674,47.365c-3.449,0-6.318,2.314-7.076,5.412c-0.762-3.098-3.635-5.412-7.083-5.412
		c-4.024,0-7.288,3.146-7.288,7.021c0.302,6.984,14.371,20.215,14.371,20.215s14.068-13.23,14.367-20.215
		C50.965,50.512,47.703,47.365,43.674,47.365z"/>
	<g>
		<path style="fill:#B50F0D;" d="M7.104,11.346c0-3.068,1.404-4.732,4.367-4.732c2.809,0,4.265,1.664,4.265,4.576v0.469h-2.704
			v-0.65c0-1.301-0.572-1.795-1.482-1.795c-1.014,0-1.586,0.494-1.586,2.236v3.328c0.494-1.039,1.379-1.611,2.652-1.611
			c2.106,0,3.172,1.482,3.172,4.16v3.328c0,2.912-1.533,4.576-4.342,4.576s-4.342-1.664-4.342-4.576V11.346z M9.963,17.561v3.275
			c0,1.301,0.572,1.768,1.482,1.768s1.482-0.467,1.482-1.768v-3.275c0-1.301-0.572-1.795-1.482-1.795S9.963,16.26,9.963,17.561z"/>
	</g>
</g>
</svg>
