<?xml version="1.0" encoding="iso-8859-1"?>
<!-- Generator: Adobe Illustrator 16.0.0, SVG Export Plug-In . SVG Version: 6.00 Build 0)  -->
<!DOCTYPE svg PUBLIC "-//W3C//DTD SVG 1.1//EN" "http://www.w3.org/Graphics/SVG/1.1/DTD/svg11.dtd">
<svg version="1.1" id="Layer_1" xmlns="http://www.w3.org/2000/svg" xmlns:xlink="http://www.w3.org/1999/xlink" x="0px" y="0px"
	 width="58.424px" height="81.336px" viewBox="0 0 58.424 81.336" style="enable-background:new 0 0 58.424 81.336;"
	 xml:space="preserve">
<g>
	<g>
		<path style="fill-rule:evenodd;clip-rule:evenodd;fill:#FAFAFA;" d="M58.109,75.623c0,2.969-2.43,5.398-5.398,5.398H5.713
			c-2.969,0-5.398-2.43-5.398-5.398V5.713c0-2.969,2.43-5.398,5.398-5.398h46.998c2.969,0,5.398,2.43,5.398,5.398V75.623z"/>
		<path style="fill:none;stroke:#CCCCCC;stroke-width:0.6299;stroke-miterlimit:3.8637;" d="M58.109,75.623
			c0,2.969-2.43,5.398-5.398,5.398H5.713c-2.969,0-5.398-2.43-5.398-5.398V5.713c0-2.969,2.43-5.398,5.398-5.398h46.998
			c2.969,0,5.398,2.43,5.398,5.398V75.623z"/>
	</g>
	<path style="fill:#B50F0D;" d="M14.674,28.689c-1.42,0-2.601,0.953-2.914,2.23c-0.313-1.277-1.498-2.23-2.918-2.23
		c-1.658,0-3.004,1.297-3.004,2.893c0.126,2.879,5.922,8.328,5.922,8.328s5.797-5.449,5.918-8.328
		C17.678,29.986,16.334,28.689,14.674,28.689z"/>
	<g>
		<path style="fill:#B50F0D;" d="M7.014,11.189c0-2.912,1.534-4.576,4.343-4.576c2.808,0,4.342,1.664,4.342,4.576v9.465
			c0,1.014-0.182,1.871-0.546,2.547c0.13,0.338,0.338,0.391,0.807,0.391h0.26v2.549h-0.391c-1.273,0-2.08-0.469-2.47-1.248
			c-0.572,0.207-1.248,0.338-2.002,0.338c-2.809,0-4.343-1.664-4.343-4.576V11.189z M9.874,20.836c0,1.301,0.572,1.793,1.482,1.793
			c0.909,0,1.481-0.492,1.481-1.793v-9.828c0-1.301-0.572-1.795-1.481-1.795c-0.91,0-1.482,0.494-1.482,1.795V20.836z"/>
	</g>
	<g>
		<path style="fill:#B32825;stroke:#000000;stroke-width:0.5616;stroke-miterlimit:10;" d="M27.795,27.104
			c0,0,3.913-3.115,10.413-1.557c0,0,7.043,1.229,7.345,10.24c0,0-0.784-2.412-3.102-1.701c-2.318,0.713-9.715-3.246-10.514-3.291
			C31.139,30.754,27.795,27.104,27.795,27.104z"/>
		<path style="fill:#B32825;stroke:#000000;stroke-width:0.5499;stroke-miterlimit:10;" d="M38.715,23.264"/>
		<g>
			<path style="fill:#B32825;stroke:#000000;stroke-width:0.5779;stroke-miterlimit:10;" d="M24.536,30.256
				c1.972,14.713-3.651,23.199-7.642,27.762l10.842-3.434l6.805-15.5l-3.143-4.18L24.536,30.256z"/>
			<g>
				<defs>
					<polygon id="XMLID_62_" points="27.929,49.688 10.162,63.098 6.498,75.494 9.922,75.494 52.201,75.494 52.201,56.77 
						49.369,47.549 37.218,43.746 					"/>
				</defs>
				<use xlink:href="#XMLID_62_"  style="overflow:visible;fill:#B32825;"/>
				<clipPath id="XMLID_2_">
					<use xlink:href="#XMLID_62_"  style="overflow:visible;"/>
				</clipPath>
				<path style="clip-path:url(#XMLID_2_);fill:#FFFFFF;stroke:#000000;stroke-width:0.718;stroke-miterlimit:10;" d="
					M21.904,47.279c0,0.002,1.06,6.971,9.646,5.779c8.588-1.189,12.256-7.846,11.613-11.303c-0.642-3.459-7.682-4.264-7.682-4.264
					L21.904,47.279z"/>
				<g style="clip-path:url(#XMLID_2_);">
					<g>
						
							<line style="fill:#B32825;stroke:#000000;stroke-width:0.5779;stroke-miterlimit:10;" x1="38.854" y1="40.578" x2="40.379" y2="46.23"/>
					</g>
				</g>
				<g style="clip-path:url(#XMLID_2_);">
					<defs>
						<polygon id="XMLID_65_" points="12.324,77.674 50.934,48.941 55.594,56.584 22.621,81.666 						"/>
					</defs>
					<use xlink:href="#XMLID_65_"  style="overflow:visible;fill:#F7CC10;"/>
					<clipPath id="XMLID_3_">
						<use xlink:href="#XMLID_65_"  style="overflow:visible;"/>
					</clipPath>
					<g style="clip-path:url(#XMLID_3_);">
						<defs>
							<polygon id="XMLID_66_" points="18.717,82.58 57.443,53.002 54.207,48.76 8.346,82.758 							"/>
						</defs>
						<use xlink:href="#XMLID_66_"  style="overflow:visible;fill:#B32825;"/>
						<clipPath id="XMLID_4_">
							<use xlink:href="#XMLID_66_"  style="overflow:visible;"/>
						</clipPath>
						
							<ellipse transform="matrix(0.7971 -0.6039 0.6039 0.7971 -40.5113 29.5247)" style="clip-path:url(#XMLID_4_);fill:#FFFFFF;stroke:#000000;stroke-width:0.4088;stroke-miterlimit:10;" cx="23.673" cy="75.038" rx="1.499" ry="1.47"/>
						<path style="clip-path:url(#XMLID_4_);fill:#FFFFFF;stroke:#000000;stroke-width:0.4088;stroke-miterlimit:10;" d="
							M24.17,73.396c0.07-0.809,0.797-1.408,1.621-1.338c0.826,0.068,1.438,0.787,1.369,1.594c-0.068,0.813-0.796,1.412-1.621,1.34
							C24.715,74.922,24.102,74.207,24.17,73.396z"/>
						<path style="clip-path:url(#XMLID_4_);fill:#FFFFFF;stroke:#000000;stroke-width:0.4088;stroke-miterlimit:10;" d="
							M28.816,71.139c0.491,0.645,0.354,1.576-0.305,2.078c-0.66,0.498-1.596,0.377-2.084-0.266
							c-0.492-0.65-0.356-1.582,0.305-2.082C27.391,70.369,28.326,70.49,28.816,71.139z"/>
						<path style="clip-path:url(#XMLID_4_);fill:#FFFFFF;stroke:#000000;stroke-width:0.4088;stroke-miterlimit:10;" d="
							M28.119,70.4c0.069-0.805,0.796-1.408,1.621-1.338c0.825,0.068,1.438,0.787,1.37,1.594c-0.07,0.813-0.796,1.412-1.624,1.34
							C28.664,71.926,28.051,71.213,28.119,70.4z"/>
						<path style="clip-path:url(#XMLID_4_);fill:#FFFFFF;stroke:#000000;stroke-width:0.4088;stroke-miterlimit:10;" d="
							M32.775,68.135c0.487,0.645,0.353,1.58-0.307,2.08c-0.659,0.502-1.595,0.379-2.085-0.266
							c-0.491-0.648-0.356-1.582,0.306-2.084C31.349,67.367,32.283,67.488,32.775,68.135z"/>
						<path style="clip-path:url(#XMLID_4_);fill:#FFFFFF;stroke:#000000;stroke-width:0.4088;stroke-miterlimit:10;" d="
							M32.076,67.398c0.069-0.807,0.795-1.404,1.621-1.336c0.824,0.07,1.438,0.787,1.369,1.594c-0.07,0.811-0.795,1.41-1.621,1.338
							C32.621,68.926,32.008,68.209,32.076,67.398z"/>
						<path style="clip-path:url(#XMLID_4_);fill:#FFFFFF;stroke:#000000;stroke-width:0.4088;stroke-miterlimit:10;" d="
							M36.723,65.141c0.49,0.646,0.355,1.578-0.305,2.078c-0.66,0.502-1.596,0.381-2.086-0.264c-0.49-0.65-0.355-1.58,0.306-2.082
							C35.298,64.373,36.231,64.492,36.723,65.141z"/>
						
							<ellipse transform="matrix(-0.9964 -0.0847 0.0847 -0.9964 69.4447 132.0114)" style="clip-path:url(#XMLID_4_);fill:#FFFFFF;stroke:#000000;stroke-width:0.4088;stroke-miterlimit:10;" cx="37.521" cy="64.533" rx="1.5" ry="1.472"/>
						
							<ellipse transform="matrix(0.7966 -0.6045 0.6045 0.7966 -30.1145 36.6647)" style="clip-path:url(#XMLID_4_);fill:#FFFFFF;stroke:#000000;stroke-width:0.4088;stroke-miterlimit:10;" cx="39.431" cy="63.086" rx="1.499" ry="1.473"/>
						<path style="clip-path:url(#XMLID_4_);fill:#FFFFFF;stroke:#000000;stroke-width:0.4088;stroke-miterlimit:10;" d="
							M39.93,61.447c0.068-0.809,0.794-1.41,1.619-1.34s1.438,0.787,1.369,1.594c-0.068,0.811-0.795,1.412-1.621,1.342
							C40.473,62.969,39.86,62.256,39.93,61.447z"/>
						<path style="clip-path:url(#XMLID_4_);fill:#FFFFFF;stroke:#000000;stroke-width:0.4088;stroke-miterlimit:10;" d="
							M44.574,59.188c0.491,0.645,0.354,1.576-0.305,2.076c-0.66,0.502-1.594,0.381-2.085-0.266
							c-0.492-0.648-0.355-1.582,0.306-2.08C43.15,58.418,44.084,58.537,44.574,59.188z"/>
						<path style="clip-path:url(#XMLID_4_);fill:#FFFFFF;stroke:#000000;stroke-width:0.4088;stroke-miterlimit:10;" d="
							M43.878,58.449c0.069-0.807,0.796-1.408,1.619-1.338c0.826,0.072,1.438,0.787,1.37,1.594
							c-0.068,0.811-0.795,1.414-1.621,1.342C44.422,59.977,43.809,59.262,43.878,58.449z"/>
						<path style="clip-path:url(#XMLID_4_);fill:#FFFFFF;stroke:#000000;stroke-width:0.4088;stroke-miterlimit:10;" d="
							M48.532,56.186c0.489,0.645,0.353,1.578-0.306,2.078c-0.66,0.5-1.596,0.377-2.085-0.266c-0.491-0.648-0.354-1.58,0.304-2.082
							C47.106,55.416,48.039,55.537,48.532,56.186z"/>
						<path style="clip-path:url(#XMLID_4_);fill:#FFFFFF;stroke:#000000;stroke-width:0.4088;stroke-miterlimit:10;" d="
							M47.834,55.449c0.069-0.807,0.795-1.41,1.62-1.338c0.826,0.07,1.438,0.787,1.368,1.594c-0.066,0.813-0.793,1.41-1.619,1.34
							C48.379,56.977,47.766,56.262,47.834,55.449z"/>
						<path style="clip-path:url(#XMLID_4_);fill:#FFFFFF;stroke:#000000;stroke-width:0.4088;stroke-miterlimit:10;" d="
							M52.481,53.189c0.488,0.648,0.354,1.578-0.307,2.078c-0.66,0.502-1.595,0.381-2.083-0.264
							c-0.492-0.65-0.356-1.582,0.304-2.084C51.055,52.422,51.989,52.543,52.481,53.189z"/>
						<path style="clip-path:url(#XMLID_4_);fill:#FFFFFF;stroke:#000000;stroke-width:0.4088;stroke-miterlimit:10;" d="
							M51.784,52.453c0.069-0.807,0.795-1.406,1.618-1.338c0.826,0.072,1.439,0.789,1.369,1.594
							c-0.068,0.811-0.794,1.412-1.619,1.342C52.328,53.98,51.715,53.264,51.784,52.453z"/>
						
							<use xlink:href="#XMLID_66_"  style="overflow:visible;fill:none;stroke:#000000;stroke-width:0.5779;stroke-miterlimit:10;"/>
					</g>
					<use xlink:href="#XMLID_65_"  style="overflow:visible;fill:none;stroke:#020202;stroke-width:0.5499;stroke-miterlimit:10;"/>
				</g>
				<path style="clip-path:url(#XMLID_2_);fill:#B32825;stroke:#000000;stroke-width:0.5616;stroke-miterlimit:10;" d="
					M23.895,47.26c0,0,1.054,4.965,8.07,3.912s10.791-7.553,10.17-10.016c-0.619-2.459-7.357-1.215-7.357-1.215L23.895,47.26z"/>
				<g style="clip-path:url(#XMLID_2_);">
					<defs>
						<polygon id="XMLID_64_" points="17.502,52.596 13.339,78.963 18.361,78.963 22.965,50.518 						"/>
					</defs>
					<use xlink:href="#XMLID_64_"  style="overflow:visible;fill:#FFFFFF;"/>
					<clipPath id="XMLID_5_">
						<use xlink:href="#XMLID_64_"  style="overflow:visible;"/>
					</clipPath>
					<polygon style="clip-path:url(#XMLID_5_);fill:#B32825;stroke:#000000;stroke-width:0.5779;stroke-miterlimit:10;" points="
						19.549,51.166 15.311,77.492 21.178,77.492 25.51,48.998 					"/>
					<polygon style="clip-path:url(#XMLID_5_);fill:#FFFFFF;stroke:#000000;stroke-width:0.5499;stroke-miterlimit:10;" points="
						21.182,51.166 16.94,77.492 22.811,77.492 27.143,48.998 					"/>
					<use xlink:href="#XMLID_64_"  style="overflow:visible;fill:none;stroke:#000000;stroke-width:0.5499;stroke-miterlimit:10;"/>
				</g>
				<g style="clip-path:url(#XMLID_2_);">
					<defs>
						<polygon id="XMLID_63_" points="54.482,61.068 33.331,77.354 36.979,80.807 59.879,63.314 						"/>
					</defs>
					<use xlink:href="#XMLID_63_"  style="overflow:visible;fill:#FFFFFF;"/>
					<clipPath id="XMLID_6_">
						<use xlink:href="#XMLID_63_"  style="overflow:visible;"/>
					</clipPath>
					<polygon style="clip-path:url(#XMLID_6_);fill:#B32825;stroke:#000000;stroke-width:0.5779;stroke-miterlimit:10;" points="
						56.953,61.439 35.775,77.641 40.033,81.672 62.773,63.963 					"/>
					<polygon style="clip-path:url(#XMLID_6_);fill:#FFFFFF;stroke:#000000;stroke-width:0.5499;stroke-miterlimit:10;" points="
						58.139,62.561 36.959,78.764 41.221,82.799 63.957,65.084 					"/>
					<use xlink:href="#XMLID_63_"  style="overflow:visible;fill:none;stroke:#000000;stroke-width:0.5499;stroke-miterlimit:10;"/>
				</g>
				<use xlink:href="#XMLID_62_"  style="overflow:visible;fill:none;stroke:#000000;stroke-width:0.5616;stroke-miterlimit:10;"/>
			</g>
			<path style="fill:#FFFFFF;stroke:#000000;stroke-width:0.5843;stroke-miterlimit:10;" d="M9.772,48.979
				c0,0,1.524,0.148-0.52,6.559c-2.043,6.41,0,8.441,0,8.441l1.071,0.826c0,0-1.906-2.098-0.006-8.453
				c2.285-7.637-0.057-7.877-0.177-8.301"/>
			<g>
				<defs>
					<path id="XMLID_61_" d="M25.161,32.207c0,0,1.213,3.121,1.213,3.781l-2.504,7.475h1.463v6.18c0,0,10.909,2.559,14.138-5.791
						v-12.91C39.471,30.941,27.814,30.033,25.161,32.207z"/>
				</defs>
				<use xlink:href="#XMLID_61_"  style="overflow:visible;fill:#FFFFFF;"/>
				<clipPath id="XMLID_7_">
					<use xlink:href="#XMLID_61_"  style="overflow:visible;"/>
				</clipPath>
				<path style="clip-path:url(#XMLID_7_);fill:#F7CC10;stroke:#020202;stroke-width:0.4366;stroke-miterlimit:10;" d="
					M29.922,50.428c0,0,3.508-1.236,3.246-6.104c-0.262-4.863,5.989,0.387,5.989,0.387l-3.036,5.717l-5.46,0.975L29.922,50.428z"/>
				<use xlink:href="#XMLID_61_"  style="overflow:visible;fill:none;stroke:#000000;stroke-width:0.5499;stroke-miterlimit:10;"/>
			</g>
			<g>
				<defs>
					<path id="XMLID_60_" d="M44.497,32.967c0,0-1.626,0.324,2.018,3.752l4.276,13.822L40.58,44.604l-11.672-5.268l-1.73-10.91
						l11.607,2.576L44.497,32.967z"/>
				</defs>
				<use xlink:href="#XMLID_60_"  style="overflow:visible;fill:#B32825;"/>
				<clipPath id="XMLID_8_">
					<use xlink:href="#XMLID_60_"  style="overflow:visible;"/>
				</clipPath>
				<path style="clip-path:url(#XMLID_8_);fill:#B32825;stroke:#000000;stroke-width:0.5616;stroke-miterlimit:10;" d="
					M31.661,26.936c-0.257,4.145-2.448,14.855,18.613,16.455c0,0-1.235-4.33-0.29-3.127c0.398,0.516-16.715,0.85-15.078-12.023
					C34.906,28.24,32.102,19.975,31.661,26.936z"/>
				<path style="clip-path:url(#XMLID_8_);fill:#B32825;stroke:#000000;stroke-width:0.5616;stroke-miterlimit:10;" d="
					M34.711,26.219c-0.01,4.984-1.844,13.346,15.887,15.123c0,0-0.812-3.941,0.011-2.779c0.292,0.406-13.968,1.434-12.597-10.404
					C38.012,28.158,34.726,19.541,34.711,26.219z"/>
				<path style="clip-path:url(#XMLID_8_);fill:#B32825;stroke:#000000;stroke-width:0.5616;stroke-miterlimit:10;" d="
					M41.941,28.164c0,0-3.127,9.279,8.26,8.377"/>
				<use xlink:href="#XMLID_60_"  style="overflow:visible;fill:none;stroke:#000000;stroke-width:0.5616;stroke-miterlimit:10;"/>
			</g>
			<ellipse style="fill:#171717;" cx="27.059" cy="39.773" rx="0.629" ry="0.637"/>
			
				<line style="fill:none;stroke:#000000;stroke-width:0.5499;stroke-miterlimit:10;" x1="24.501" y1="43.463" x2="26.139" y2="43.463"/>
			<g>
				<defs>
					<path id="XMLID_59_" d="M6.199,63.514h5.98c0,0,0.32,8.984-5.98,11.996V63.514z"/>
				</defs>
				<use xlink:href="#XMLID_59_"  style="overflow:visible;fill:#FFFFFF;"/>
				<clipPath id="XMLID_9_">
					<use xlink:href="#XMLID_59_"  style="overflow:visible;"/>
				</clipPath>
				<polyline style="clip-path:url(#XMLID_9_);fill:#FFFFFF;stroke:#000000;stroke-width:0.6476;stroke-miterlimit:10;" points="
					4.279,66.154 12.835,66.154 12.835,69.443 4.5,69.443 4.82,72.938 11.861,72.938 10.757,75.734 4.279,75.76 				"/>
				<use xlink:href="#XMLID_59_"  style="overflow:visible;fill:none;stroke:#000000;stroke-width:0.5178;stroke-miterlimit:10;"/>
			</g>
			
				<line style="fill:none;stroke:#000000;stroke-width:0.5392;stroke-miterlimit:10;" x1="27.637" y1="45.66" x2="25.61" y2="45.611"/>
			<path style="fill:#FFFFFF;stroke:#000000;stroke-width:0.6596;stroke-miterlimit:10;" d="M24.467,27.6
				c0,0-1.496,15.447,16.566,18.633c7.457,1.316,9.758,5.285,11.168,10.537c0.104,0.391-1.237-7.264-3.395-10.109
				c-2.446-3.229-5.389-2.963-6.437-3.113c0,0-15.987-0.736-14.521-16.074L24.467,27.6z"/>
			<path style="stroke:#020202;stroke-width:0.6469;stroke-miterlimit:10;" d="M12.645,57.012"/>
			<g>
				<defs>
					<path id="XMLID_58_" d="M24.437,29.303c0,0,13.239,8.113,22.078,7.416l1.106-4.479c0,0-10.032-0.316-23.751-8.908
						L24.437,29.303z"/>
				</defs>
				<use xlink:href="#XMLID_58_"  style="overflow:visible;fill:#F7CC10;"/>
				<clipPath id="XMLID_10_">
					<use xlink:href="#XMLID_58_"  style="overflow:visible;"/>
				</clipPath>
				<path style="clip-path:url(#XMLID_10_);fill:#F7CC10;stroke:#020202;stroke-width:0.4345;stroke-miterlimit:10;" d="
					M24.437,28.162c0,0,13.72,8.498,24.831,7.561l-0.434-4.621c0,0-11.245-1.529-24.964-10.123L24.437,28.162z"/>
				<use xlink:href="#XMLID_58_"  style="overflow:visible;fill:none;stroke:#020202;stroke-width:0.4345;stroke-miterlimit:10;"/>
			</g>
			<g>
				<g>
					
						<ellipse transform="matrix(0.1733 -0.9849 0.9849 0.1733 -13.9816 82.4739)" style="fill:#FFFFFF;stroke:#000000;stroke-width:0.4033;stroke-miterlimit:10;" cx="42.137" cy="49.565" rx="0.834" ry="0.962"/>
					<path style="fill:#FFFFFF;stroke:#000000;stroke-width:0.4033;stroke-miterlimit:10;" d="M42.893,49.324
						c0.435-0.303,1.001-0.242,1.265,0.133c0.265,0.375,0.124,0.932-0.311,1.236s-1.003,0.244-1.269-0.133
						C42.316,50.184,42.457,49.631,42.893,49.324z"/>
					
						<ellipse transform="matrix(0.041 -0.9992 0.9992 0.041 -9.3562 92.736)" style="fill:#FFFFFF;stroke:#000000;stroke-width:0.4033;stroke-miterlimit:10;" cx="43.634" cy="51.242" rx="0.833" ry="0.962"/>
					
						<ellipse transform="matrix(-0.9671 -0.2544 0.2544 -0.9671 70.2517 113.278)" style="fill:#FFFFFF;stroke:#000000;stroke-width:0.4033;stroke-miterlimit:10;" cx="42.45" cy="52.097" rx="0.833" ry="0.962"/>
					
						<ellipse transform="matrix(0.4765 0.8792 -0.8792 0.4765 66.9012 -9.3212)" style="fill:#FFFFFF;stroke:#000000;stroke-width:0.4033;stroke-miterlimit:10;" cx="41.278" cy="51.518" rx="0.833" ry="0.96"/>
					
						<ellipse transform="matrix(-0.1541 0.9881 -0.9881 -0.1541 97.4478 17.393)" style="fill:#FFFFFF;stroke:#000000;stroke-width:0.4033;stroke-miterlimit:10;" cx="41.279" cy="50.409" rx="0.833" ry="0.96"/>
				</g>
				
					<ellipse style="fill:#FFFFFF;stroke:#000000;stroke-width:0.3719;stroke-miterlimit:10;" cx="42.396" cy="50.832" rx="0.833" ry="0.816"/>
			</g>
			<g>
				<g>
					
						<ellipse transform="matrix(0.1741 -0.9847 0.9847 0.1741 -22.5658 79.9114)" style="fill:#FFFFFF;stroke:#000000;stroke-width:0.4033;stroke-miterlimit:10;" cx="36.356" cy="53.408" rx="0.833" ry="0.962"/>
					
						<ellipse transform="matrix(-0.5732 -0.8194 0.8194 -0.5732 15.0138 115.521)" style="fill:#FFFFFF;stroke:#000000;stroke-width:0.4033;stroke-miterlimit:10;" cx="37.591" cy="53.851" rx="0.833" ry="0.961"/>
					
						<ellipse transform="matrix(0.041 -0.9992 0.9992 0.041 -18.7361 90.6493)" style="fill:#FFFFFF;stroke:#000000;stroke-width:0.4033;stroke-miterlimit:10;" cx="37.854" cy="55.085" rx="0.834" ry="0.961"/>
					<path style="fill:#FFFFFF;stroke:#000000;stroke-width:0.4033;stroke-miterlimit:10;" d="M35.865,55.725
						c0.135-0.512,0.605-0.834,1.05-0.717c0.445,0.117,0.696,0.631,0.561,1.141c-0.136,0.516-0.605,0.838-1.051,0.723
						C35.979,56.752,35.729,56.24,35.865,55.725z"/>
					<path style="fill:#FFFFFF;stroke:#000000;stroke-width:0.4033;stroke-miterlimit:10;" d="M35.895,56.094
						c-0.465,0.25-1.021,0.127-1.24-0.277c-0.221-0.404-0.018-0.939,0.447-1.189c0.467-0.254,1.026-0.131,1.245,0.273
						C36.566,55.305,36.363,55.838,35.895,56.094z"/>
					
						<ellipse transform="matrix(-0.1547 0.988 -0.988 -0.1547 94.5874 27.5728)" style="fill:#FFFFFF;stroke:#000000;stroke-width:0.4033;stroke-miterlimit:10;" cx="35.498" cy="54.251" rx="0.833" ry="0.961"/>
				</g>
				
					<ellipse style="fill:#FFFFFF;stroke:#000000;stroke-width:0.3719;stroke-miterlimit:10;" cx="36.616" cy="54.674" rx="0.833" ry="0.818"/>
			</g>
			<g>
				<g>
					
						<ellipse transform="matrix(0.1739 -0.9848 0.9848 0.1739 -31.9859 77.9046)" style="fill:#FFFFFF;stroke:#000000;stroke-width:0.4033;stroke-miterlimit:10;" cx="30.44" cy="58.017" rx="0.834" ry="0.961"/>
					
						<ellipse transform="matrix(-0.5724 -0.8199 0.8199 -0.5724 1.871 117.8956)" style="fill:#FFFFFF;stroke:#000000;stroke-width:0.4033;stroke-miterlimit:10;" cx="31.674" cy="58.46" rx="0.833" ry="0.961"/>
					<path style="fill:#FFFFFF;stroke:#000000;stroke-width:0.4033;stroke-miterlimit:10;" d="M31.973,58.859
						c0.527,0.023,0.945,0.412,0.926,0.871c-0.02,0.461-0.465,0.816-0.995,0.795s-0.948-0.412-0.929-0.873
						C30.992,59.195,31.439,58.84,31.973,58.859z"/>
					<path style="fill:#FFFFFF;stroke:#000000;stroke-width:0.4033;stroke-miterlimit:10;" d="M29.947,60.334
						c0.136-0.514,0.607-0.836,1.051-0.717c0.445,0.115,0.697,0.631,0.562,1.141c-0.136,0.516-0.606,0.84-1.052,0.723
						C30.063,61.361,29.812,60.85,29.947,60.334z"/>
					
						<ellipse transform="matrix(0.4756 0.8797 -0.8797 0.4756 68.2663 5.4264)" style="fill:#FFFFFF;stroke:#000000;stroke-width:0.4033;stroke-miterlimit:10;" cx="29.582" cy="59.968" rx="0.834" ry="0.961"/>
					<path style="fill:#FFFFFF;stroke:#000000;stroke-width:0.4033;stroke-miterlimit:10;" d="M29.453,59.682
						c-0.521-0.08-0.893-0.518-0.82-0.971c0.069-0.455,0.555-0.756,1.078-0.676c0.525,0.084,0.895,0.518,0.822,0.971
						C30.465,59.461,29.98,59.766,29.453,59.682z"/>
				</g>
				
					<ellipse style="fill:#FFFFFF;stroke:#000000;stroke-width:0.3719;stroke-miterlimit:10;" cx="30.7" cy="59.283" rx="0.833" ry="0.818"/>
			</g>
			<g>
				<g>
					<path style="fill:#FFFFFF;stroke:#000000;stroke-width:0.4033;stroke-miterlimit:10;" d="M24.787,61.191
						c0.521,0.092,0.881,0.535,0.801,0.986c-0.08,0.453-0.57,0.746-1.091,0.656c-0.524-0.096-0.885-0.539-0.804-0.99
						C23.773,61.389,24.264,61.098,24.787,61.191z"/>
					<path style="fill:#FFFFFF;stroke:#000000;stroke-width:0.4033;stroke-miterlimit:10;" d="M25.399,61.771
						c0.433-0.303,1-0.246,1.265,0.133c0.264,0.375,0.123,0.932-0.311,1.232c-0.437,0.305-1.005,0.248-1.269-0.129
						C24.822,62.629,24.961,62.078,25.399,61.771z"/>
					<path style="fill:#FFFFFF;stroke:#000000;stroke-width:0.4033;stroke-miterlimit:10;" d="M26.174,62.857
						c0.529,0.02,0.945,0.41,0.926,0.869c-0.018,0.463-0.465,0.816-0.994,0.793c-0.529-0.021-0.947-0.412-0.928-0.871
						C25.194,63.189,25.643,62.834,26.174,62.857z"/>
					<path style="fill:#FFFFFF;stroke:#000000;stroke-width:0.4033;stroke-miterlimit:10;" d="M24.15,64.328
						c0.135-0.51,0.605-0.834,1.05-0.717c0.445,0.117,0.696,0.631,0.562,1.143c-0.135,0.514-0.605,0.836-1.051,0.721
						C24.264,65.355,24.014,64.846,24.15,64.328z"/>
					<path style="fill:#FFFFFF;stroke:#000000;stroke-width:0.4033;stroke-miterlimit:10;" d="M24.182,64.697
						c-0.467,0.25-1.023,0.129-1.241-0.277c-0.221-0.406-0.019-0.938,0.447-1.189c0.468-0.252,1.026-0.133,1.245,0.273
						C24.852,63.908,24.649,64.441,24.182,64.697z"/>
					
						<ellipse transform="matrix(-0.1536 0.9881 -0.9881 -0.1536 89.5454 49.004)" style="fill:#FFFFFF;stroke:#000000;stroke-width:0.4033;stroke-miterlimit:10;" cx="23.784" cy="62.854" rx="0.833" ry="0.96"/>
				</g>
				
					<ellipse style="fill:#FFFFFF;stroke:#000000;stroke-width:0.3719;stroke-miterlimit:10;" cx="24.901" cy="63.277" rx="0.833" ry="0.816"/>
			</g>
			<path style="fill:#F7CC10;stroke:#020202;stroke-width:0.4705;stroke-miterlimit:10;" d="M26.326,23.332
				c0,0.756-0.615,1.375-1.375,1.375c-0.758,0-1.373-0.619-1.373-1.375c0-0.762,0.615-1.375,1.373-1.375
				C25.711,21.957,26.326,22.57,26.326,23.332z"/>
			<circle style="fill:#F7CC10;stroke:#020202;stroke-width:0.3187;stroke-miterlimit:10;" cx="26.508" cy="24.92" r="0.931"/>
			<path style="fill:#F7CC10;stroke:#020202;stroke-width:0.3036;stroke-miterlimit:10;" d="M28.682,25.893
				c0,0.488-0.396,0.885-0.887,0.885c-0.489,0-0.886-0.396-0.886-0.885c0-0.492,0.396-0.885,0.886-0.885
				C28.285,25.008,28.682,25.4,28.682,25.893z"/>
			<circle style="fill:#F7CC10;stroke:#020202;stroke-width:0.3036;stroke-miterlimit:10;" cx="29.35" cy="26.865" r="0.887"/>
			<circle style="fill:#F7CC10;stroke:#020202;stroke-width:0.3036;stroke-miterlimit:10;" cx="30.975" cy="27.662" r="0.887"/>
			<circle style="fill:#F7CC10;stroke:#020202;stroke-width:0.3036;stroke-miterlimit:10;" cx="32.595" cy="28.359" r="0.887"/>
			<g>
				<path style="fill:#F7CC10;stroke:#020202;stroke-width:0.4345;stroke-miterlimit:10;" d="M10.85,43.617
					c0.854,0.15,1.443,0.875,1.313,1.615c-0.133,0.744-0.935,1.221-1.787,1.07c-0.859-0.152-1.448-0.877-1.317-1.619
					C9.189,43.943,9.992,43.465,10.85,43.617z"/>
				<path style="fill:#F7CC10;stroke:#020202;stroke-width:0.4345;stroke-miterlimit:10;" d="M11.851,44.566
					c0.71-0.496,1.638-0.398,2.071,0.217c0.432,0.615,0.201,1.521-0.509,2.02c-0.714,0.5-1.645,0.404-2.076-0.215
					C10.906,45.973,11.135,45.064,11.851,44.566z"/>
				<path style="fill:#F7CC10;stroke:#020202;stroke-width:0.4345;stroke-miterlimit:10;" d="M13.121,46.342
					c0.864,0.035,1.547,0.674,1.516,1.426c-0.031,0.754-0.762,1.336-1.629,1.301c-0.867-0.037-1.551-0.676-1.519-1.428
					C11.517,46.889,12.249,46.305,13.121,46.342z"/>
				<path style="fill:#F7CC10;stroke:#020202;stroke-width:0.4345;stroke-miterlimit:10;" d="M9.807,48.752
					c0.222-0.836,0.992-1.363,1.721-1.174c0.727,0.193,1.14,1.033,0.918,1.869c-0.223,0.844-0.992,1.373-1.721,1.18
					C9.993,50.434,9.584,49.598,9.807,48.752z"/>
				<path style="fill:#F7CC10;stroke:#020202;stroke-width:0.4345;stroke-miterlimit:10;" d="M9.857,49.355
					c-0.764,0.41-1.675,0.209-2.031-0.453c-0.361-0.662-0.03-1.537,0.731-1.949c0.767-0.412,1.68-0.213,2.038,0.451
					C10.955,48.064,10.623,48.939,9.857,49.355z"/>
				<path style="fill:#F7CC10;stroke:#020202;stroke-width:0.4345;stroke-miterlimit:10;" d="M8.998,47.688
					c-0.856-0.135-1.462-0.846-1.346-1.592c0.115-0.744,0.908-1.236,1.766-1.104c0.858,0.131,1.465,0.844,1.348,1.59
					C10.652,47.326,9.857,47.822,8.998,47.688z"/>
			</g>
			
				<ellipse style="fill:#FFFFFF;stroke:#000000;stroke-width:0.3719;stroke-miterlimit:10;" cx="11.038" cy="47.031" rx="1.365" ry="1.338"/>
			<path style="fill:#F7CC10;stroke:#020202;stroke-width:0.4345;stroke-miterlimit:10;" d="M10.205,57.834
				c0,0,1.014-2.922,3.568-2.838c0,0-0.302,2.992-3.574,2.861L10.205,57.834z"/>
			<path style="fill:#F7CC10;stroke:#020202;stroke-width:0.4345;stroke-miterlimit:10;" d="M8.671,56.045
				c0,0-0.228-3.086-2.718-3.658c0,0-0.479,2.967,2.718,3.682V56.045z"/>
		</g>
	</g>
</g>
</svg>
