<?xml version="1.0" encoding="iso-8859-1"?>
<!-- Generator: Adobe Illustrator 16.0.0, SVG Export Plug-In . SVG Version: 6.00 Build 0)  -->
<!DOCTYPE svg PUBLIC "-//W3C//DTD SVG 1.1//EN" "http://www.w3.org/Graphics/SVG/1.1/DTD/svg11.dtd">
<svg version="1.1" id="Layer_1" xmlns="http://www.w3.org/2000/svg" xmlns:xlink="http://www.w3.org/1999/xlink" x="0px" y="0px"
	 width="58.427px" height="81.338px" viewBox="0 0 58.427 81.338" style="enable-background:new 0 0 58.427 81.338;"
	 xml:space="preserve">
<g>
	<g>
		<path style="fill-rule:evenodd;clip-rule:evenodd;fill:#FAFAFA;" d="M58.112,75.624c0,2.97-2.43,5.399-5.399,5.399H5.714
			c-2.97,0-5.399-2.43-5.399-5.399V5.714c0-2.97,2.43-5.399,5.399-5.399h46.998c2.97,0,5.399,2.43,5.399,5.399V75.624z"/>
		<path style="fill:none;stroke:#CCCCCC;stroke-width:0.6299;stroke-miterlimit:3.8637;" d="M58.112,75.624
			c0,2.97-2.43,5.399-5.399,5.399H5.714c-2.97,0-5.399-2.43-5.399-5.399V5.714c0-2.97,2.43-5.399,5.399-5.399h46.998
			c2.97,0,5.399,2.43,5.399,5.399V75.624z"/>
	</g>
	<path style="fill:#B50F0D;" d="M14.672,28.691c-1.421,0-2.602,0.952-2.915,2.229c-0.313-1.277-1.498-2.229-2.919-2.229
		c-1.658,0-3.002,1.296-3.002,2.893c0.125,2.878,5.921,8.328,5.921,8.328s5.796-5.45,5.917-8.328
		C17.674,29.987,16.333,28.691,14.672,28.691z"/>
	<path style="fill:#B50F0D;" d="M43.674,47.367c-3.449,0-6.318,2.314-7.076,5.411c-0.762-3.097-3.635-5.411-7.083-5.411
		c-4.024,0-7.288,3.146-7.288,7.021c0.302,6.985,14.371,20.216,14.371,20.216s14.068-13.23,14.367-20.216
		C50.965,50.512,47.703,47.367,43.674,47.367z"/>
	<g>
		<path style="fill:#B50F0D;" d="M13.318,11.294c0-1.638-0.572-2.08-1.481-2.08c-0.91,0-1.482,0.494-1.482,1.794v1.17H7.65v-0.987
			c0-2.912,1.456-4.576,4.264-4.576c2.809,0,4.265,1.664,4.265,4.576v0.468c0,1.95-0.624,3.172-2.002,3.744
			c1.43,0.624,2.002,1.976,2.002,3.822v1.43c0,2.912-1.456,4.576-4.265,4.576c-2.808,0-4.264-1.664-4.264-4.576v-1.508h2.704v1.689
			c0,1.301,0.572,1.794,1.482,1.794c0.909,0,1.481-0.441,1.481-2.054v-1.43c0-1.69-0.572-2.314-1.872-2.314h-0.962v-2.6h1.118
			c1.066,0,1.716-0.469,1.716-1.925V11.294z"/>
	</g>
</g>
</svg>
