<?xml version="1.0" encoding="iso-8859-1"?>
<!-- Generator: Adobe Illustrator 16.0.0, SVG Export Plug-In . SVG Version: 6.00 Build 0)  -->
<!DOCTYPE svg PUBLIC "-//W3C//DTD SVG 1.1//EN" "http://www.w3.org/Graphics/SVG/1.1/DTD/svg11.dtd">
<svg version="1.1" id="Layer_1" xmlns="http://www.w3.org/2000/svg" xmlns:xlink="http://www.w3.org/1999/xlink" x="0px" y="0px"
	 width="58.427px" height="81.336px" viewBox="0 0 58.427 81.336" style="enable-background:new 0 0 58.427 81.336;"
	 xml:space="preserve">
<g>
	<g>
		<path style="fill-rule:evenodd;clip-rule:evenodd;fill:#FAFAFA;" d="M58.112,75.623c0,2.969-2.43,5.398-5.399,5.398H5.714
			c-2.97,0-5.399-2.43-5.399-5.398V5.713c0-2.969,2.43-5.398,5.399-5.398h46.998c2.97,0,5.399,2.43,5.399,5.398V75.623z"/>
		<path style="fill:none;stroke:#CCCCCC;stroke-width:0.6299;stroke-miterlimit:3.8637;" d="M58.112,75.623
			c0,2.969-2.43,5.398-5.399,5.398H5.714c-2.97,0-5.399-2.43-5.399-5.398V5.713c0-2.969,2.43-5.398,5.399-5.398h46.998
			c2.97,0,5.399,2.43,5.399,5.398V75.623z"/>
	</g>
	<path style="fill:#B50F0D;" d="M14.672,28.689c-1.421,0-2.602,0.953-2.915,2.23c-0.313-1.277-1.498-2.23-2.919-2.23
		c-1.658,0-3.002,1.297-3.002,2.893c0.125,2.879,5.921,8.328,5.921,8.328s5.796-5.449,5.917-8.328
		C17.674,29.986,16.333,28.689,14.672,28.689z"/>
	<path style="fill:#B50F0D;" d="M43.674,47.365c-3.449,0-6.318,2.314-7.076,5.412c-0.762-3.098-3.635-5.412-7.083-5.412
		c-4.024,0-7.288,3.146-7.288,7.021c0.302,6.984,14.371,20.215,14.371,20.215s14.068-13.23,14.367-20.215
		C50.965,50.512,47.703,47.365,43.674,47.365z"/>
	<g>
		<path style="fill:#B50F0D;" d="M10.379,19.146v1.689c0,1.301,0.572,1.768,1.482,1.768s1.482-0.467,1.482-1.768v-4.004
			c0-1.301-0.572-1.795-1.482-1.795s-1.482,0.494-1.482,1.795v0.545H7.676L8.196,6.82h7.54v2.602H10.77l-0.234,4.342
			c0.52-0.857,1.352-1.326,2.496-1.326c2.106,0,3.172,1.482,3.172,4.16v4.057c0,2.912-1.455,4.576-4.264,4.576
			s-4.264-1.664-4.264-4.576v-1.508H10.379z"/>
	</g>
</g>
</svg>
