<?xml version="1.0" encoding="iso-8859-1"?>
<!-- Generator: Adobe Illustrator 16.0.0, SVG Export Plug-In . SVG Version: 6.00 Build 0)  -->
<!DOCTYPE svg PUBLIC "-//W3C//DTD SVG 1.1//EN" "http://www.w3.org/Graphics/SVG/1.1/DTD/svg11.dtd">
<svg version="1.1" id="Layer_1" xmlns="http://www.w3.org/2000/svg" xmlns:xlink="http://www.w3.org/1999/xlink" x="0px" y="0px"
	 width="58.424px" height="81.338px" viewBox="0 0 58.424 81.338" style="enable-background:new 0 0 58.424 81.338;"
	 xml:space="preserve">
<g>
	<g>
		<path style="fill-rule:evenodd;clip-rule:evenodd;fill:#FAFAFA;" d="M58.109,75.624c0,2.969-2.43,5.399-5.399,5.399H5.714
			c-2.97,0-5.399-2.43-5.399-5.399V5.714c0-2.969,2.43-5.399,5.399-5.399H52.71c2.97,0,5.399,2.43,5.399,5.399V75.624z"/>
		<path style="fill:none;stroke:#CCCCCC;stroke-width:0.6299;stroke-miterlimit:3.8637;" d="M58.109,75.624
			c0,2.969-2.43,5.399-5.399,5.399H5.714c-2.97,0-5.399-2.43-5.399-5.399V5.714c0-2.969,2.43-5.399,5.399-5.399H52.71
			c2.97,0,5.399,2.43,5.399,5.399V75.624z"/>
	</g>
	<g>
		<path style="fill:#171717;" d="M16.162,20.499c0,3.068-1.404,4.732-4.367,4.732c-2.809,0-4.265-1.664-4.265-4.576v-0.468h2.704
			v0.649c0,1.301,0.572,1.794,1.482,1.794c1.014,0,1.586-0.493,1.586-2.235v-3.328c-0.494,1.04-1.379,1.612-2.652,1.612
			c-2.106,0-3.172-1.482-3.172-4.16v-3.328c0-2.912,1.533-4.576,4.342-4.576s4.342,1.664,4.342,4.576V20.499z M13.303,14.285v-3.276
			c0-1.3-0.572-1.768-1.482-1.768s-1.482,0.468-1.482,1.768v3.276c0,1.3,0.572,1.794,1.482,1.794S13.303,15.584,13.303,14.285z"/>
	</g>
	<path style="fill:#171717;" d="M11.755,28.691c0,0-5.236,4.922-5.35,7.522c0,1.441,1.215,2.613,2.715,2.613
		c0.645,0,1.232-0.218,1.695-0.579c-0.125,0.965-0.334,2.119-0.641,2.391h3.16c-0.26-0.229-0.496-1.538-0.625-2.378
		c0.461,0.354,1.043,0.566,1.678,0.566c1.498,0,2.715-1.172,2.715-2.613C16.989,33.613,11.755,28.691,11.755,28.691z"/>
	<path style="fill:#171717;" d="M36.594,45.098c0,0-13.088,12.308-13.369,18.809c0,3.605,3.035,6.53,6.785,6.53
		c1.609,0,3.082-0.544,4.24-1.445c-0.314,2.409-0.836,5.297-1.605,5.975h7.898c-0.645-0.573-1.24-3.844-1.559-5.943
		c1.15,0.885,2.605,1.414,4.195,1.414c3.748,0,6.785-2.925,6.785-6.53C49.684,57.406,36.594,45.098,36.594,45.098z"/>
</g>
</svg>
