<?xml version="1.0" encoding="iso-8859-1"?>
<!-- Generator: Adobe Illustrator 16.0.0, SVG Export Plug-In . SVG Version: 6.00 Build 0)  -->
<!DOCTYPE svg PUBLIC "-//W3C//DTD SVG 1.1//EN" "http://www.w3.org/Graphics/SVG/1.1/DTD/svg11.dtd">
<svg version="1.1" id="Layer_1" xmlns="http://www.w3.org/2000/svg" xmlns:xlink="http://www.w3.org/1999/xlink" x="0px" y="0px"
	 width="58.427px" height="81.336px" viewBox="0 0 58.427 81.336" style="enable-background:new 0 0 58.427 81.336;"
	 xml:space="preserve">
<g>
	<g>
		<path style="fill-rule:evenodd;clip-rule:evenodd;fill:#FAFAFA;" d="M58.112,75.622c0,2.97-2.43,5.399-5.399,5.399H5.714
			c-2.969,0-5.399-2.43-5.399-5.399V5.714c0-2.97,2.43-5.399,5.399-5.399h46.999c2.969,0,5.399,2.43,5.399,5.399V75.622z"/>
		<path style="fill:none;stroke:#CCCCCC;stroke-width:0.6299;stroke-miterlimit:3.8637;" d="M58.112,75.622
			c0,2.97-2.43,5.399-5.399,5.399H5.714c-2.969,0-5.399-2.43-5.399-5.399V5.714c0-2.97,2.43-5.399,5.399-5.399h46.999
			c2.969,0,5.399,2.43,5.399,5.399V75.622z"/>
	</g>
	<g>
		<path style="fill:#171717;" d="M7.104,11.346c0-3.068,1.404-4.732,4.367-4.732c2.809,0,4.265,1.664,4.265,4.576v0.469h-2.704
			v-0.65c0-1.301-0.572-1.795-1.482-1.795c-1.014,0-1.586,0.494-1.586,2.236v3.328c0.494-1.039,1.379-1.611,2.652-1.611
			c2.106,0,3.172,1.482,3.172,4.16v3.328c0,2.912-1.533,4.576-4.342,4.576s-4.342-1.664-4.342-4.576V11.346z M9.963,17.561v3.275
			c0,1.301,0.572,1.768,1.482,1.768s1.482-0.467,1.482-1.768v-3.275c0-1.301-0.572-1.795-1.482-1.795S9.963,16.26,9.963,17.561z"/>
	</g>
	<path style="fill:#171717;" d="M11.756,28.689c0,0-5.236,4.922-5.35,7.523c0,1.441,1.215,2.613,2.715,2.613
		c0.645,0,1.232-0.219,1.695-0.58c-0.125,0.965-0.334,2.119-0.641,2.391h3.16c-0.26-0.229-0.496-1.537-0.625-2.377
		c0.461,0.354,1.043,0.566,1.678,0.566c1.498,0,2.715-1.172,2.715-2.613C16.991,33.611,11.756,28.689,11.756,28.689z"/>
	<path style="fill:#171717;" d="M36.594,45.098c0,0-13.088,12.307-13.369,18.809c0,3.605,3.035,6.529,6.785,6.529
		c1.609,0,3.082-0.543,4.24-1.445c-0.314,2.41-0.836,5.297-1.605,5.975h7.898c-0.645-0.572-1.24-3.844-1.559-5.943
		c1.15,0.885,2.605,1.414,4.195,1.414c3.748,0,6.785-2.924,6.785-6.529C49.684,57.404,36.594,45.098,36.594,45.098z"/>
</g>
</svg>
