<?xml version="1.0" encoding="iso-8859-1"?>
<!-- Generator: Adobe Illustrator 16.0.0, SVG Export Plug-In . SVG Version: 6.00 Build 0)  -->
<!DOCTYPE svg PUBLIC "-//W3C//DTD SVG 1.1//EN" "http://www.w3.org/Graphics/SVG/1.1/DTD/svg11.dtd">
<svg version="1.1" id="Layer_1" xmlns="http://www.w3.org/2000/svg" xmlns:xlink="http://www.w3.org/1999/xlink" x="0px" y="0px"
	 width="58.424px" height="81.338px" viewBox="0 0 58.424 81.338" style="enable-background:new 0 0 58.424 81.338;"
	 xml:space="preserve">
<g>
	<g>
		<path style="fill-rule:evenodd;clip-rule:evenodd;fill:#FAFAFA;" d="M58.109,75.624c0,2.969-2.43,5.399-5.399,5.399H5.714
			c-2.97,0-5.399-2.43-5.399-5.399V5.714c0-2.969,2.43-5.399,5.399-5.399H52.71c2.97,0,5.399,2.43,5.399,5.399V75.624z"/>
		<path style="fill:none;stroke:#CCCCCC;stroke-width:0.6299;stroke-miterlimit:3.8637;" d="M58.109,75.624
			c0,2.969-2.43,5.399-5.399,5.399H5.714c-2.97,0-5.399-2.43-5.399-5.399V5.714c0-2.969,2.43-5.399,5.399-5.399H52.71
			c2.97,0,5.399,2.43,5.399,5.399V75.624z"/>
	</g>
	<g>
		<path style="fill:#171717;" d="M11.872,25.231c-2.886,0-4.472-1.664-4.472-4.576v-1.43c0-1.742,0.52-3.095,1.768-3.797
			C7.973,14.779,7.4,13.556,7.4,11.762v-0.571c0-2.912,1.586-4.576,4.472-4.576s4.473,1.664,4.473,4.576v0.571
			c0,1.794-0.599,3.017-1.769,3.666c1.248,0.702,1.769,2.055,1.769,3.797v1.43C16.345,23.567,14.758,25.231,11.872,25.231z
			 M10.26,12.308c0,1.456,0.677,1.925,1.612,1.925c0.91,0,1.612-0.469,1.612-1.925v-1.014c0-1.638-0.702-2.08-1.612-2.08
			c-0.909,0-1.612,0.442-1.612,2.08V12.308z M11.872,22.63c0.91,0,1.587-0.441,1.612-2.054v-1.69c0-1.43-0.598-2.054-1.612-2.054
			c-1.014,0-1.612,0.624-1.612,2.054v1.69C10.26,22.189,10.963,22.63,11.872,22.63z"/>
	</g>
	<path style="fill:#171717;" d="M11.755,28.691c0,0-5.236,4.922-5.35,7.522c0,1.441,1.215,2.613,2.715,2.613
		c0.645,0,1.232-0.218,1.695-0.579c-0.125,0.965-0.334,2.119-0.641,2.391h3.16c-0.26-0.229-0.496-1.538-0.625-2.378
		c0.461,0.354,1.043,0.566,1.678,0.566c1.498,0,2.715-1.172,2.715-2.613C16.989,33.613,11.755,28.691,11.755,28.691z"/>
	<path style="fill:#171717;" d="M36.594,45.098c0,0-13.088,12.308-13.369,18.809c0,3.605,3.035,6.53,6.785,6.53
		c1.609,0,3.082-0.544,4.24-1.445c-0.314,2.409-0.836,5.297-1.605,5.975h7.898c-0.645-0.573-1.24-3.844-1.559-5.943
		c1.15,0.885,2.605,1.414,4.195,1.414c3.748,0,6.785-2.925,6.785-6.53C49.684,57.406,36.594,45.098,36.594,45.098z"/>
</g>
</svg>
