<?xml version="1.0" encoding="iso-8859-1"?>
<!-- Generator: Adobe Illustrator 16.0.0, SVG Export Plug-In . SVG Version: 6.00 Build 0)  -->
<!DOCTYPE svg PUBLIC "-//W3C//DTD SVG 1.1//EN" "http://www.w3.org/Graphics/SVG/1.1/DTD/svg11.dtd">
<svg version="1.1" id="Layer_1" xmlns="http://www.w3.org/2000/svg" xmlns:xlink="http://www.w3.org/1999/xlink" x="0px" y="0px"
	 width="58.427px" height="81.338px" viewBox="0 0 58.427 81.338" style="enable-background:new 0 0 58.427 81.338;"
	 xml:space="preserve">
<g>
	<g>
		<path style="fill-rule:evenodd;clip-rule:evenodd;fill:#FAFAFA;" d="M58.112,75.624c0,2.97-2.43,5.399-5.399,5.399H5.714
			c-2.97,0-5.399-2.43-5.399-5.399V5.714c0-2.97,2.43-5.399,5.399-5.399h46.998c2.97,0,5.399,2.43,5.399,5.399V75.624z"/>
		<path style="fill:none;stroke:#CCCCCC;stroke-width:0.6299;stroke-miterlimit:3.8637;" d="M58.112,75.624
			c0,2.97-2.43,5.399-5.399,5.399H5.714c-2.97,0-5.399-2.43-5.399-5.399V5.714c0-2.97,2.43-5.399,5.399-5.399h46.998
			c2.97,0,5.399,2.43,5.399,5.399V75.624z"/>
	</g>
	<g>
		<path style="fill:#171717;" d="M13.318,11.294c0-1.638-0.572-2.08-1.481-2.08c-0.91,0-1.482,0.494-1.482,1.794v1.17H7.65v-0.987
			c0-2.912,1.456-4.576,4.264-4.576c2.809,0,4.265,1.664,4.265,4.576v0.468c0,1.95-0.624,3.172-2.002,3.744
			c1.43,0.624,2.002,1.976,2.002,3.822v1.43c0,2.912-1.456,4.576-4.265,4.576c-2.808,0-4.264-1.664-4.264-4.576v-1.508h2.704v1.689
			c0,1.301,0.572,1.794,1.482,1.794c0.909,0,1.481-0.441,1.481-2.054v-1.43c0-1.69-0.572-2.314-1.872-2.314h-0.962v-2.6h1.118
			c1.066,0,1.716-0.469,1.716-1.925V11.294z"/>
	</g>
	<path style="fill:#171717;" d="M11.756,28.328c0,0-5.236,4.922-5.35,7.522c0,1.441,1.215,2.613,2.715,2.613
		c0.645,0,1.232-0.218,1.695-0.579c-0.125,0.965-0.334,2.119-0.641,2.391h3.16c-0.26-0.229-0.496-1.538-0.625-2.378
		c0.461,0.354,1.043,0.566,1.678,0.566c1.498,0,2.715-1.172,2.715-2.613C16.991,33.25,11.756,28.328,11.756,28.328z"/>
	<path style="fill:#171717;" d="M36.594,44.735c0,0-13.088,12.308-13.369,18.809c0,3.605,3.035,6.53,6.785,6.53
		c1.609,0,3.082-0.544,4.24-1.445c-0.314,2.409-0.836,5.297-1.605,5.975h7.898c-0.645-0.573-1.24-3.844-1.559-5.943
		c1.15,0.885,2.605,1.414,4.195,1.414c3.748,0,6.785-2.925,6.785-6.53C49.684,57.042,36.594,44.735,36.594,44.735z"/>
</g>
</svg>
