<?xml version="1.0" encoding="iso-8859-1"?>
<!-- Generator: Adobe Illustrator 16.0.0, SVG Export Plug-In . SVG Version: 6.00 Build 0)  -->
<!DOCTYPE svg PUBLIC "-//W3C//DTD SVG 1.1//EN" "http://www.w3.org/Graphics/SVG/1.1/DTD/svg11.dtd">
<svg version="1.1" id="Layer_1" xmlns="http://www.w3.org/2000/svg" xmlns:xlink="http://www.w3.org/1999/xlink" x="0px" y="0px"
	 width="58.424px" height="81.339px" viewBox="0 0 58.424 81.339" style="enable-background:new 0 0 58.424 81.339;"
	 xml:space="preserve">
<g>
	<g>
		<path style="fill-rule:evenodd;clip-rule:evenodd;fill:#FAFAFA;" d="M58.109,75.624c0,2.97-2.43,5.399-5.399,5.399H5.714
			c-2.97,0-5.399-2.43-5.399-5.399V5.714c0-2.969,2.43-5.399,5.399-5.399H52.71c2.97,0,5.399,2.43,5.399,5.399V75.624z"/>
		<path style="fill:none;stroke:#CCCCCC;stroke-width:0.6299;stroke-miterlimit:3.8637;" d="M58.109,75.624
			c0,2.97-2.43,5.399-5.399,5.399H5.714c-2.97,0-5.399-2.43-5.399-5.399V5.714c0-2.969,2.43-5.399,5.399-5.399H52.71
			c2.97,0,5.399,2.43,5.399,5.399V75.624z"/>
	</g>
	<g>
		<path style="fill:#171717;" d="M4.424,9.111c2.211,0,2.705-1.066,3.146-2.289h1.924v18.201H6.635V11.138H4.424V9.111z"/>
		<path style="fill:#171717;" d="M10.639,11.191c0-2.912,1.533-4.576,4.342-4.576c2.808,0,4.342,1.664,4.342,4.576v9.464
			c0,2.912-1.534,4.576-4.342,4.576c-2.809,0-4.342-1.664-4.342-4.576V11.191z M13.498,20.836c0,1.301,0.572,1.794,1.482,1.794
			s1.482-0.493,1.482-1.794v-9.828c0-1.3-0.572-1.794-1.482-1.794s-1.482,0.494-1.482,1.794V20.836z"/>
	</g>
	<path style="fill:#171717;" d="M11.755,28.691c0,0-5.236,4.922-5.35,7.522c0,1.441,1.215,2.613,2.715,2.613
		c0.645,0,1.232-0.217,1.695-0.578c-0.125,0.965-0.334,2.119-0.641,2.391h3.16c-0.26-0.229-0.496-1.539-0.625-2.379
		c0.461,0.354,1.043,0.566,1.678,0.566c1.498,0,2.715-1.172,2.715-2.613C16.989,33.613,11.755,28.691,11.755,28.691z"/>
	<path style="fill:#171717;" d="M36.594,45.098c0,0-13.088,12.309-13.369,18.809c0,3.605,3.035,6.531,6.785,6.531
		c1.609,0,3.082-0.545,4.24-1.445c-0.314,2.408-0.836,5.297-1.605,5.975h7.898c-0.645-0.574-1.24-3.844-1.559-5.943
		c1.15,0.885,2.605,1.414,4.195,1.414c3.748,0,6.785-2.926,6.785-6.531C49.684,57.406,36.594,45.098,36.594,45.098z"/>
</g>
</svg>
