<?xml version="1.0" encoding="iso-8859-1"?>
<!-- Generator: Adobe Illustrator 16.0.0, SVG Export Plug-In . SVG Version: 6.00 Build 0)  -->
<!DOCTYPE svg PUBLIC "-//W3C//DTD SVG 1.1//EN" "http://www.w3.org/Graphics/SVG/1.1/DTD/svg11.dtd">
<svg version="1.1" id="Layer_1" xmlns="http://www.w3.org/2000/svg" xmlns:xlink="http://www.w3.org/1999/xlink" x="0px" y="0px"
	 width="58.427px" height="81.337px" viewBox="0 0 58.427 81.337" style="enable-background:new 0 0 58.427 81.337;"
	 xml:space="preserve">
<g>
	<g>
		<path style="fill-rule:evenodd;clip-rule:evenodd;fill:#FAFAFA;" d="M58.112,75.624c0,2.969-2.43,5.398-5.399,5.398H5.714
			c-2.97,0-5.399-2.43-5.399-5.398V5.714c0-2.97,2.43-5.399,5.399-5.399h46.998c2.97,0,5.399,2.43,5.399,5.399V75.624z"/>
		<path style="fill:none;stroke:#CCCCCC;stroke-width:0.6299;stroke-miterlimit:3.8637;" d="M58.112,75.624
			c0,2.969-2.43,5.398-5.399,5.398H5.714c-2.97,0-5.399-2.43-5.399-5.398V5.714c0-2.97,2.43-5.399,5.399-5.399h46.998
			c2.97,0,5.399,2.43,5.399,5.399V75.624z"/>
	</g>
	<g>
		<path style="fill:#171717;" d="M6.61,19.121l5.2-12.299h3.12v12.299h1.352v2.601H14.93v3.302h-2.86v-3.302H6.61V19.121z
			 M12.07,19.121v-6.734l-2.834,6.734H12.07z"/>
	</g>
	<path style="fill:#171717;" d="M11.756,28.328c0,0-5.236,4.922-5.35,7.522c0,1.441,1.215,2.613,2.715,2.613
		c0.645,0,1.232-0.218,1.695-0.579c-0.125,0.965-0.334,2.119-0.641,2.391h3.16c-0.26-0.229-0.496-1.538-0.625-2.378
		c0.461,0.354,1.043,0.566,1.678,0.566c1.498,0,2.715-1.172,2.715-2.613C16.991,33.25,11.756,28.328,11.756,28.328z"/>
	<path style="fill:#171717;" d="M36.594,44.735c0,0-13.088,12.307-13.369,18.809c0,3.605,3.035,6.529,6.785,6.529
		c1.609,0,3.082-0.543,4.24-1.445c-0.314,2.41-0.836,5.297-1.605,5.975h7.898c-0.645-0.572-1.24-3.844-1.559-5.943
		c1.15,0.885,2.605,1.414,4.195,1.414c3.748,0,6.785-2.924,6.785-6.529C49.684,57.042,36.594,44.735,36.594,44.735z"/>
</g>
</svg>
